<svg width="235" height="160" viewBox="0 0 235 160" fill="none" xmlns="http://www.w3.org/2000/svg">
<path d="M234.667 140.606H0V140.713H234.667V140.606Z" fill="#EBEBEB"/>
<path d="M211.153 147.516H195.609V147.623H211.153V147.516Z" fill="#EBEBEB"/>
<path d="M155.453 148.684H151.374V148.791H155.453V148.684Z" fill="#EBEBEB"/>
<path d="M195.139 143.53H186.133V143.638H195.139V143.53Z" fill="#EBEBEB"/>
<path d="M44.8916 144.252H24.6211V144.359H44.8916V144.252Z" fill="#EBEBEB"/>
<path d="M52.0444 144.252H49.0735V144.359H52.0444V144.252Z" fill="#EBEBEB"/>
<path d="M105.67 146.064H61.7032V146.171H105.67V146.064Z" fill="#EBEBEB"/>
<path d="M111.232 121.452H20.6085C19.8986 121.45 19.2182 121.192 18.7166 120.732C18.215 120.272 17.9333 119.649 17.9333 118.999V2.43075C17.9395 1.78485 18.224 1.16727 18.7249 0.71214C19.2257 0.257014 19.9027 0.00110646 20.6085 0H111.232C111.943 0 112.625 0.258358 113.127 0.718239C113.63 1.17812 113.912 1.80185 113.912 2.45222V118.999C113.912 119.65 113.63 120.273 113.127 120.733C112.625 121.193 111.943 121.452 111.232 121.452ZM20.6085 0.0858925C19.9297 0.0870302 19.2791 0.334578 18.7996 0.774201C18.32 1.21382 18.0507 1.8096 18.0507 2.43075V118.999C18.0507 119.62 18.32 120.216 18.7996 120.656C19.2791 121.096 19.9297 121.343 20.6085 121.344H111.232C111.911 121.343 112.562 121.096 113.043 120.656C113.523 120.217 113.793 119.621 113.795 118.999V2.43075C113.793 1.8092 113.523 1.21344 113.043 0.773939C112.562 0.334439 111.911 0.0870278 111.232 0.0858925H20.6085Z" fill="#EBEBEB"/>
<path d="M212.753 121.452H122.125C121.415 121.45 120.734 121.192 120.232 120.732C119.729 120.272 119.447 119.649 119.445 118.999V2.43075C119.453 1.78446 119.738 1.16688 120.24 0.711871C120.741 0.256864 121.419 0.00109439 122.125 0H212.753C213.459 0.00223513 214.134 0.258643 214.634 0.713647C215.134 1.16865 215.418 1.78559 215.424 2.43075V118.999C215.424 119.648 215.143 120.271 214.642 120.73C214.142 121.19 213.463 121.449 212.753 121.452ZM122.125 0.0858925C121.446 0.0870278 120.795 0.334439 120.315 0.773939C119.834 1.21344 119.564 1.8092 119.563 2.43075V118.999C119.564 119.621 119.834 120.217 120.315 120.656C120.795 121.096 121.446 121.343 122.125 121.344H212.753C213.433 121.343 214.084 121.096 214.564 120.656C215.044 120.217 215.315 119.621 215.316 118.999V2.43075C215.315 1.8092 215.044 1.21344 214.564 0.773939C214.084 0.334439 213.433 0.0870278 212.753 0.0858925H122.125Z" fill="#EBEBEB"/>
<path d="M203.381 135.873V115.766H201.504V106.184H198.758V72.8752H194.783V68.5763L186.307 64.956V60.6227H185.133V72.8752H183.49V106.184H181.843V88.6708H177.384V79.6435H176.136V106.184H172.747V96.0833H170.518V93.5066H165.351V84.694H162.521V78.4625H159.043V69.3794H157.799V78.4625H154.321V84.694H151.491V93.5066H146.324V96.0833H144.095V106.184H141.448V93.5066H136.28V66.21H134.638V63.2038H123.599V66.21H121.248V85.9824H111.856V87.9193H108.331V89.4224H111.856V97.1613H101.991V71.3678H99.8788V65.8879H95.2981V46.4376H94.0027V65.8879H90.7174V71.3678H71.4418V69.5641H70.2638V81.8166H68.6212V82.0313H67.6356V94.2796H65.9882V97.6122H62.5151V88.5849H61.2714V110.075H59.8822V101.052H58.6384V115.126H57.8828V105.025H55.6488V102.448H50.4814V93.6354H47.6513V87.4039H44.1736V78.3251H42.9345V87.4039H39.4521V93.6354H36.6267V102.448H31.4593V105.025H29.2253V114.911H28.8264V115.126H27.7188V135.873H203.381Z" fill="#E6E6E6"/>
<path d="M83.5271 72.5746H82.1942V73.7943H83.5271V72.5746Z" fill="#F0F0F0"/>
<path d="M83.5271 74.6146H82.1942V75.8342H83.5271V74.6146Z" fill="#F0F0F0"/>
<path d="M83.5271 82.783H82.1942V84.0026H83.5271V82.783Z" fill="#F0F0F0"/>
<path d="M83.5271 84.8229H82.1942V86.0426H83.5271V84.8229Z" fill="#F0F0F0"/>
<path d="M83.5271 86.8671H82.1942V88.0867H83.5271V86.8671Z" fill="#F0F0F0"/>
<path d="M83.5271 92.9911H82.1942V94.2108H83.5271V92.9911Z" fill="#F0F0F0"/>
<path d="M83.5271 95.0311H82.1942V96.2508H83.5271V95.0311Z" fill="#F0F0F0"/>
<path d="M85.6439 80.743H84.311V81.9627H85.6439V80.743Z" fill="#F0F0F0"/>
<path d="M85.6439 82.783H84.311V84.0026H85.6439V82.783Z" fill="#F0F0F0"/>
<path d="M85.6439 84.8229H84.311V86.0426H85.6439V84.8229Z" fill="#F0F0F0"/>
<path d="M85.6439 86.8671H84.311V88.0867H85.6439V86.8671Z" fill="#F0F0F0"/>
<path d="M85.6439 88.907H84.311V90.1267H85.6439V88.907Z" fill="#F0F0F0"/>
<path d="M85.6439 92.9911H84.311V94.2108H85.6439V92.9911Z" fill="#F0F0F0"/>
<path d="M85.6439 95.0311H84.311V96.2508H85.6439V95.0311Z" fill="#F0F0F0"/>
<path d="M87.756 72.5746H86.4231V73.7943H87.756V72.5746Z" fill="#F0F0F0"/>
<path d="M87.756 74.6146H86.4231V75.8342H87.756V74.6146Z" fill="#F0F0F0"/>
<path d="M87.756 76.6588H86.4231V77.8785H87.756V76.6588Z" fill="#F0F0F0"/>
<path d="M87.756 78.6987H86.4231V79.9184H87.756V78.6987Z" fill="#F0F0F0"/>
<path d="M87.756 80.743H86.4231V81.9627H87.756V80.743Z" fill="#F0F0F0"/>
<path d="M87.756 82.783H86.4231V84.0026H87.756V82.783Z" fill="#F0F0F0"/>
<path d="M87.756 84.8229H86.4231V86.0426H87.756V84.8229Z" fill="#F0F0F0"/>
<path d="M87.756 86.8671H86.4231V88.0867H87.756V86.8671Z" fill="#F0F0F0"/>
<path d="M87.756 88.907H86.4231V90.1267H87.756V88.907Z" fill="#F0F0F0"/>
<path d="M87.756 90.9512H86.4231V92.1709H87.756V90.9512Z" fill="#F0F0F0"/>
<path d="M87.756 95.0311H86.4231V96.2508H87.756V95.0311Z" fill="#F0F0F0"/>
<path d="M89.8679 72.5746H88.535V73.7943H89.8679V72.5746Z" fill="#F0F0F0"/>
<path d="M89.8679 74.6146H88.535V75.8342H89.8679V74.6146Z" fill="#F0F0F0"/>
<path d="M89.8679 76.6588H88.535V77.8785H89.8679V76.6588Z" fill="#F0F0F0"/>
<path d="M89.8679 78.6987H88.535V79.9184H89.8679V78.6987Z" fill="#F0F0F0"/>
<path d="M89.8679 80.743H88.535V81.9627H89.8679V80.743Z" fill="#F0F0F0"/>
<path d="M89.8679 82.783H88.535V84.0026H89.8679V82.783Z" fill="#F0F0F0"/>
<path d="M89.8679 84.8229H88.535V86.0426H89.8679V84.8229Z" fill="#F0F0F0"/>
<path d="M89.8679 103.199H88.535V104.419H89.8679V103.199Z" fill="#F0F0F0"/>
<path d="M91.9846 72.5746H90.6517V73.7943H91.9846V72.5746Z" fill="#F0F0F0"/>
<path d="M91.9846 74.6146H90.6517V75.8342H91.9846V74.6146Z" fill="#F0F0F0"/>
<path d="M91.9846 76.6588H90.6517V77.8785H91.9846V76.6588Z" fill="#F0F0F0"/>
<path d="M91.9846 78.6987H90.6517V79.9184H91.9846V78.6987Z" fill="#F0F0F0"/>
<path d="M91.9846 80.743H90.6517V81.9627H91.9846V80.743Z" fill="#F0F0F0"/>
<path d="M91.9846 82.783H90.6517V84.0026H91.9846V82.783Z" fill="#F0F0F0"/>
<path d="M91.9846 84.8229H90.6517V86.0426H91.9846V84.8229Z" fill="#F0F0F0"/>
<path d="M91.9846 86.8671H90.6517V88.0867H91.9846V86.8671Z" fill="#F0F0F0"/>
<path d="M91.9846 99.1153H90.6517V100.335H91.9846V99.1153Z" fill="#F0F0F0"/>
<path d="M91.9846 101.159H90.6517V102.379H91.9846V101.159Z" fill="#F0F0F0"/>
<path d="M91.9846 103.199H90.6517V104.419H91.9846V103.199Z" fill="#F0F0F0"/>
<path d="M91.9846 105.239H90.6517V106.459H91.9846V105.239Z" fill="#F0F0F0"/>
<path d="M91.9846 113.408H90.6517V114.628H91.9846V113.408Z" fill="#F0F0F0"/>
<path d="M94.0966 72.5746H92.7637V73.7943H94.0966V72.5746Z" fill="#F0F0F0"/>
<path d="M94.0966 74.6146H92.7637V75.8342H94.0966V74.6146Z" fill="#F0F0F0"/>
<path d="M94.0966 76.6588H92.7637V77.8785H94.0966V76.6588Z" fill="#F0F0F0"/>
<path d="M94.0966 78.6987H92.7637V79.9184H94.0966V78.6987Z" fill="#F0F0F0"/>
<path d="M94.0966 80.743H92.7637V81.9627H94.0966V80.743Z" fill="#F0F0F0"/>
<path d="M94.0966 82.783H92.7637V84.0026H94.0966V82.783Z" fill="#F0F0F0"/>
<path d="M94.0966 84.8229H92.7637V86.0426H94.0966V84.8229Z" fill="#F0F0F0"/>
<path d="M94.0966 86.8671H92.7637V88.0867H94.0966V86.8671Z" fill="#F0F0F0"/>
<path d="M94.0966 88.907H92.7637V90.1267H94.0966V88.907Z" fill="#F0F0F0"/>
<path d="M94.0966 90.9512H92.7637V92.1709H94.0966V90.9512Z" fill="#F0F0F0"/>
<path d="M94.0966 97.0754H92.7637V98.295H94.0966V97.0754Z" fill="#F0F0F0"/>
<path d="M94.0966 99.1153H92.7637V100.335H94.0966V99.1153Z" fill="#F0F0F0"/>
<path d="M94.0966 101.159H92.7637V102.379H94.0966V101.159Z" fill="#F0F0F0"/>
<path d="M94.0966 103.199H92.7637V104.419H94.0966V103.199Z" fill="#F0F0F0"/>
<path d="M94.0966 105.239H92.7637V106.459H94.0966V105.239Z" fill="#F0F0F0"/>
<path d="M94.0966 113.408H92.7637V114.628H94.0966V113.408Z" fill="#F0F0F0"/>
<path d="M96.2133 72.5746H94.8804V73.7943H96.2133V72.5746Z" fill="#F0F0F0"/>
<path d="M96.2133 74.6146H94.8804V75.8342H96.2133V74.6146Z" fill="#F0F0F0"/>
<path d="M96.2133 76.6588H94.8804V77.8785H96.2133V76.6588Z" fill="#F0F0F0"/>
<path d="M96.2133 78.6987H94.8804V79.9184H96.2133V78.6987Z" fill="#F0F0F0"/>
<path d="M96.2133 80.743H94.8804V81.9627H96.2133V80.743Z" fill="#F0F0F0"/>
<path d="M96.2133 82.783H94.8804V84.0026H96.2133V82.783Z" fill="#F0F0F0"/>
<path d="M96.2133 84.8229H94.8804V86.0426H96.2133V84.8229Z" fill="#F0F0F0"/>
<path d="M96.2133 86.8671H94.8804V88.0867H96.2133V86.8671Z" fill="#F0F0F0"/>
<path d="M96.2133 88.907H94.8804V90.1267H96.2133V88.907Z" fill="#F0F0F0"/>
<path d="M96.2133 90.9512H94.8804V92.1709H96.2133V90.9512Z" fill="#F0F0F0"/>
<path d="M96.2133 92.9911H94.8804V94.2108H96.2133V92.9911Z" fill="#F0F0F0"/>
<path d="M96.2133 95.0311H94.8804V96.2508H96.2133V95.0311Z" fill="#F0F0F0"/>
<path d="M96.2133 97.0754H94.8804V98.295H96.2133V97.0754Z" fill="#F0F0F0"/>
<path d="M96.2133 99.1153H94.8804V100.335H96.2133V99.1153Z" fill="#F0F0F0"/>
<path d="M96.2133 101.159H94.8804V102.379H96.2133V101.159Z" fill="#F0F0F0"/>
<path d="M96.2133 103.199H94.8804V104.419H96.2133V103.199Z" fill="#F0F0F0"/>
<path d="M96.2133 105.239H94.8804V106.459H96.2133V105.239Z" fill="#F0F0F0"/>
<path d="M96.2133 107.284H94.8804V108.503H96.2133V107.284Z" fill="#F0F0F0"/>
<path d="M98.3252 72.5746H96.9923V73.7943H98.3252V72.5746Z" fill="#F0F0F0"/>
<path d="M98.3252 74.6146H96.9923V75.8342H98.3252V74.6146Z" fill="#F0F0F0"/>
<path d="M98.3252 76.6588H96.9923V77.8785H98.3252V76.6588Z" fill="#F0F0F0"/>
<path d="M98.3252 78.6987H96.9923V79.9184H98.3252V78.6987Z" fill="#F0F0F0"/>
<path d="M98.3252 80.743H96.9923V81.9627H98.3252V80.743Z" fill="#F0F0F0"/>
<path d="M98.3252 82.783H96.9923V84.0026H98.3252V82.783Z" fill="#F0F0F0"/>
<path d="M98.3252 84.8229H96.9923V86.0426H98.3252V84.8229Z" fill="#F0F0F0"/>
<path d="M98.3252 86.8671H96.9923V88.0867H98.3252V86.8671Z" fill="#F0F0F0"/>
<path d="M98.3252 88.907H96.9923V90.1267H98.3252V88.907Z" fill="#F0F0F0"/>
<path d="M98.3252 90.9512H96.9923V92.1709H98.3252V90.9512Z" fill="#F0F0F0"/>
<path d="M98.3252 97.0754H96.9923V98.295H98.3252V97.0754Z" fill="#F0F0F0"/>
<path d="M98.3252 99.1153H96.9923V100.335H98.3252V99.1153Z" fill="#F0F0F0"/>
<path d="M98.3252 101.159H96.9923V102.379H98.3252V101.159Z" fill="#F0F0F0"/>
<path d="M98.3252 103.199H96.9923V104.419H98.3252V103.199Z" fill="#F0F0F0"/>
<path d="M100.437 72.5746H99.1044V73.7943H100.437V72.5746Z" fill="#F0F0F0"/>
<path d="M100.437 74.6146H99.1044V75.8342H100.437V74.6146Z" fill="#F0F0F0"/>
<path d="M100.437 76.6588H99.1044V77.8785H100.437V76.6588Z" fill="#F0F0F0"/>
<path d="M100.437 78.6987H99.1044V79.9184H100.437V78.6987Z" fill="#F0F0F0"/>
<path d="M100.437 80.743H99.1044V81.9627H100.437V80.743Z" fill="#F0F0F0"/>
<path d="M100.437 82.783H99.1044V84.0026H100.437V82.783Z" fill="#F0F0F0"/>
<path d="M100.437 84.8229H99.1044V86.0426H100.437V84.8229Z" fill="#F0F0F0"/>
<path d="M100.437 86.8671H99.1044V88.0867H100.437V86.8671Z" fill="#F0F0F0"/>
<path d="M100.437 88.907H99.1044V90.1267H100.437V88.907Z" fill="#F0F0F0"/>
<path d="M100.437 90.9512H99.1044V92.1709H100.437V90.9512Z" fill="#F0F0F0"/>
<path d="M100.437 97.0754H99.1044V98.295H100.437V97.0754Z" fill="#F0F0F0"/>
<path d="M100.437 99.1153H99.1044V100.335H100.437V99.1153Z" fill="#F0F0F0"/>
<path d="M100.437 101.159H99.1044V102.379H100.437V101.159Z" fill="#F0F0F0"/>
<path d="M124.237 67.2751H122.904V68.4948H124.237V67.2751Z" fill="#F0F0F0"/>
<path d="M124.237 69.3149H122.904V70.5346H124.237V69.3149Z" fill="#F0F0F0"/>
<path d="M124.237 71.355H122.904V72.5747H124.237V71.355Z" fill="#F0F0F0"/>
<path d="M124.237 73.3992H122.904V74.6189H124.237V73.3992Z" fill="#F0F0F0"/>
<path d="M124.237 75.4391H122.904V76.6588H124.237V75.4391Z" fill="#F0F0F0"/>
<path d="M124.237 77.4833H122.904V78.703H124.237V77.4833Z" fill="#F0F0F0"/>
<path d="M124.237 79.5233H122.904V80.743H124.237V79.5233Z" fill="#F0F0F0"/>
<path d="M124.237 81.5633H122.904V82.783H124.237V81.5633Z" fill="#F0F0F0"/>
<path d="M124.237 87.6917H122.904V88.9113H124.237V87.6917Z" fill="#F0F0F0"/>
<path d="M124.237 89.7316H122.904V90.9512H124.237V89.7316Z" fill="#F0F0F0"/>
<path d="M126.354 67.2751H125.021V68.4948H126.354V67.2751Z" fill="#F0F0F0"/>
<path d="M126.354 69.3149H125.021V70.5346H126.354V69.3149Z" fill="#F0F0F0"/>
<path d="M126.354 71.355H125.021V72.5747H126.354V71.355Z" fill="#F0F0F0"/>
<path d="M126.354 73.3992H125.021V74.6189H126.354V73.3992Z" fill="#F0F0F0"/>
<path d="M126.354 75.4391H125.021V76.6588H126.354V75.4391Z" fill="#F0F0F0"/>
<path d="M126.354 77.4833H125.021V78.703H126.354V77.4833Z" fill="#F0F0F0"/>
<path d="M126.354 79.5233H125.021V80.743H126.354V79.5233Z" fill="#F0F0F0"/>
<path d="M126.354 81.5633H125.021V82.783H126.354V81.5633Z" fill="#F0F0F0"/>
<path d="M126.354 89.7316H125.021V90.9512H126.354V89.7316Z" fill="#F0F0F0"/>
<path d="M128.466 67.2751H127.133V68.4948H128.466V67.2751Z" fill="#F0F0F0"/>
<path d="M128.466 69.3149H127.133V70.5346H128.466V69.3149Z" fill="#F0F0F0"/>
<path d="M128.466 71.355H127.133V72.5747H128.466V71.355Z" fill="#F0F0F0"/>
<path d="M128.466 73.3992H127.133V74.6189H128.466V73.3992Z" fill="#F0F0F0"/>
<path d="M128.466 75.4391H127.133V76.6588H128.466V75.4391Z" fill="#F0F0F0"/>
<path d="M128.466 77.4833H127.133V78.703H128.466V77.4833Z" fill="#F0F0F0"/>
<path d="M128.466 79.5233H127.133V80.743H128.466V79.5233Z" fill="#F0F0F0"/>
<path d="M128.466 81.5633H127.133V82.783H128.466V81.5633Z" fill="#F0F0F0"/>
<path d="M130.578 67.2751H129.245V68.4948H130.578V67.2751Z" fill="#F0F0F0"/>
<path d="M130.578 69.3149H129.245V70.5346H130.578V69.3149Z" fill="#F0F0F0"/>
<path d="M130.578 71.355H129.245V72.5747H130.578V71.355Z" fill="#F0F0F0"/>
<path d="M130.578 73.3992H129.245V74.6189H130.578V73.3992Z" fill="#F0F0F0"/>
<path d="M130.578 75.4391H129.245V76.6588H130.578V75.4391Z" fill="#F0F0F0"/>
<path d="M130.578 77.4833H129.245V78.703H130.578V77.4833Z" fill="#F0F0F0"/>
<path d="M130.578 81.5633H129.245V82.783H130.578V81.5633Z" fill="#F0F0F0"/>
<path d="M130.578 83.6074H129.245V84.8271H130.578V83.6074Z" fill="#F0F0F0"/>
<path d="M130.578 89.7316H129.245V90.9512H130.578V89.7316Z" fill="#F0F0F0"/>
<path d="M130.578 91.7715H129.245V92.9912H130.578V91.7715Z" fill="#F0F0F0"/>
<path d="M130.578 93.8157H129.245V95.0354H130.578V93.8157Z" fill="#F0F0F0"/>
<path d="M130.578 95.8557H129.245V97.0754H130.578V95.8557Z" fill="#F0F0F0"/>
<path d="M130.578 97.8999H129.245V99.1196H130.578V97.8999Z" fill="#F0F0F0"/>
<path d="M130.578 99.9398H129.245V101.159H130.578V99.9398Z" fill="#F0F0F0"/>
<path d="M130.578 101.98H129.245V103.199H130.578V101.98Z" fill="#F0F0F0"/>
<path d="M132.695 67.2751H131.362V68.4948H132.695V67.2751Z" fill="#F0F0F0"/>
<path d="M132.695 69.3149H131.362V70.5346H132.695V69.3149Z" fill="#F0F0F0"/>
<path d="M132.695 71.355H131.362V72.5747H132.695V71.355Z" fill="#F0F0F0"/>
<path d="M132.695 73.3992H131.362V74.6189H132.695V73.3992Z" fill="#F0F0F0"/>
<path d="M132.695 75.4391H131.362V76.6588H132.695V75.4391Z" fill="#F0F0F0"/>
<path d="M132.695 77.4833H131.362V78.703H132.695V77.4833Z" fill="#F0F0F0"/>
<path d="M132.695 83.6074H131.362V84.8271H132.695V83.6074Z" fill="#F0F0F0"/>
<path d="M132.695 85.6474H131.362V86.8671H132.695V85.6474Z" fill="#F0F0F0"/>
<path d="M132.695 87.6917H131.362V88.9113H132.695V87.6917Z" fill="#F0F0F0"/>
<path d="M132.695 89.7316H131.362V90.9512H132.695V89.7316Z" fill="#F0F0F0"/>
<path d="M132.695 91.7715H131.362V92.9912H132.695V91.7715Z" fill="#F0F0F0"/>
<path d="M132.695 93.8157H131.362V95.0354H132.695V93.8157Z" fill="#F0F0F0"/>
<path d="M132.695 95.8557H131.362V97.0754H132.695V95.8557Z" fill="#F0F0F0"/>
<path d="M132.695 97.8999H131.362V99.1196H132.695V97.8999Z" fill="#F0F0F0"/>
<path d="M132.695 99.9398H131.362V101.159H132.695V99.9398Z" fill="#F0F0F0"/>
<path d="M132.695 101.98H131.362V103.199H132.695V101.98Z" fill="#F0F0F0"/>
<path d="M132.695 104.024H131.362V105.244H132.695V104.024Z" fill="#F0F0F0"/>
<path d="M132.695 108.108H131.362V109.328H132.695V108.108Z" fill="#F0F0F0"/>
<path d="M134.807 67.2751H133.474V68.4948H134.807V67.2751Z" fill="#F0F0F0"/>
<path d="M134.807 69.3149H133.474V70.5346H134.807V69.3149Z" fill="#F0F0F0"/>
<path d="M134.807 71.355H133.474V72.5747H134.807V71.355Z" fill="#F0F0F0"/>
<path d="M134.807 73.3992H133.474V74.6189H134.807V73.3992Z" fill="#F0F0F0"/>
<path d="M134.807 75.4391H133.474V76.6588H134.807V75.4391Z" fill="#F0F0F0"/>
<path d="M134.807 77.4833H133.474V78.703H134.807V77.4833Z" fill="#F0F0F0"/>
<path d="M134.807 83.6074H133.474V84.8271H134.807V83.6074Z" fill="#F0F0F0"/>
<path d="M134.807 85.6474H133.474V86.8671H134.807V85.6474Z" fill="#F0F0F0"/>
<path d="M134.807 87.6917H133.474V88.9113H134.807V87.6917Z" fill="#F0F0F0"/>
<path d="M134.807 89.7316H133.474V90.9512H134.807V89.7316Z" fill="#F0F0F0"/>
<path d="M134.807 95.8557H133.474V97.0754H134.807V95.8557Z" fill="#F0F0F0"/>
<path d="M134.807 97.8999H133.474V99.1196H134.807V97.8999Z" fill="#F0F0F0"/>
<path d="M134.807 99.9398H133.474V101.159H134.807V99.9398Z" fill="#F0F0F0"/>
<path d="M134.807 101.98H133.474V103.199H134.807V101.98Z" fill="#F0F0F0"/>
<path d="M134.807 104.024H133.474V105.244H134.807V104.024Z" fill="#F0F0F0"/>
<path d="M134.807 108.108H133.474V109.328H134.807V108.108Z" fill="#F0F0F0"/>
<path d="M134.807 110.148H133.474V111.368H134.807V110.148Z" fill="#F0F0F0"/>
<path d="M153.988 86.2572H152.655V87.4769H153.988V86.2572Z" fill="#F0F0F0"/>
<path d="M153.988 88.2972H152.655V89.5168H153.988V88.2972Z" fill="#F0F0F0"/>
<path d="M153.988 90.3414H152.655V91.5611H153.988V90.3414Z" fill="#F0F0F0"/>
<path d="M153.988 92.3813H152.655V93.601H153.988V92.3813Z" fill="#F0F0F0"/>
<path d="M153.988 94.4256H152.655V95.6453H153.988V94.4256Z" fill="#F0F0F0"/>
<path d="M153.988 96.4655H152.655V97.6852H153.988V96.4655Z" fill="#F0F0F0"/>
<path d="M153.988 98.5055H152.655V99.7252H153.988V98.5055Z" fill="#F0F0F0"/>
<path d="M153.988 104.634H152.655V105.854H153.988V104.634Z" fill="#F0F0F0"/>
<path d="M153.988 106.674H152.655V107.893H153.988V106.674Z" fill="#F0F0F0"/>
<path d="M153.988 108.714H152.655V109.933H153.988V108.714Z" fill="#F0F0F0"/>
<path d="M156.1 86.2572H154.767V87.4769H156.1V86.2572Z" fill="#F0F0F0"/>
<path d="M156.1 88.2972H154.767V89.5168H156.1V88.2972Z" fill="#F0F0F0"/>
<path d="M156.1 90.3414H154.767V91.5611H156.1V90.3414Z" fill="#F0F0F0"/>
<path d="M156.1 92.3813H154.767V93.601H156.1V92.3813Z" fill="#F0F0F0"/>
<path d="M156.1 94.4256H154.767V95.6453H156.1V94.4256Z" fill="#F0F0F0"/>
<path d="M156.1 96.4655H154.767V97.6852H156.1V96.4655Z" fill="#F0F0F0"/>
<path d="M156.1 98.5055H154.767V99.7252H156.1V98.5055Z" fill="#F0F0F0"/>
<path d="M158.217 86.2572H156.884V87.4769H158.217V86.2572Z" fill="#F0F0F0"/>
<path d="M158.217 88.2972H156.884V89.5168H158.217V88.2972Z" fill="#F0F0F0"/>
<path d="M158.217 90.3414H156.884V91.5611H158.217V90.3414Z" fill="#F0F0F0"/>
<path d="M158.217 92.3813H156.884V93.601H158.217V92.3813Z" fill="#F0F0F0"/>
<path d="M158.217 94.4256H156.884V95.6453H158.217V94.4256Z" fill="#F0F0F0"/>
<path d="M158.217 96.4655H156.884V97.6852H158.217V96.4655Z" fill="#F0F0F0"/>
<path d="M158.217 98.5055H156.884V99.7252H158.217V98.5055Z" fill="#F0F0F0"/>
<path d="M160.329 86.2572H158.996V87.4769H160.329V86.2572Z" fill="#F0F0F0"/>
<path d="M160.329 88.2972H158.996V89.5168H160.329V88.2972Z" fill="#F0F0F0"/>
<path d="M160.329 90.3414H158.996V91.5611H160.329V90.3414Z" fill="#F0F0F0"/>
<path d="M160.329 92.3813H158.996V93.601H160.329V92.3813Z" fill="#F0F0F0"/>
<path d="M160.329 94.4256H158.996V95.6453H160.329V94.4256Z" fill="#F0F0F0"/>
<path d="M160.329 96.4655H158.996V97.6852H160.329V96.4655Z" fill="#F0F0F0"/>
<path d="M160.329 98.5055H158.996V99.7252H160.329V98.5055Z" fill="#F0F0F0"/>
<path d="M160.329 100.55H158.996V101.769H160.329V100.55Z" fill="#F0F0F0"/>
<path d="M160.329 102.59H158.996V103.809H160.329V102.59Z" fill="#F0F0F0"/>
<path d="M160.329 104.634H158.996V105.854H160.329V104.634Z" fill="#F0F0F0"/>
<path d="M160.329 106.674H158.996V107.893H160.329V106.674Z" fill="#F0F0F0"/>
<path d="M162.446 86.2572H161.113V87.4769H162.446V86.2572Z" fill="#F0F0F0"/>
<path d="M162.446 88.2972H161.113V89.5168H162.446V88.2972Z" fill="#F0F0F0"/>
<path d="M162.446 90.3414H161.113V91.5611H162.446V90.3414Z" fill="#F0F0F0"/>
<path d="M162.446 92.3813H161.113V93.601H162.446V92.3813Z" fill="#F0F0F0"/>
<path d="M162.446 94.4256H161.113V95.6453H162.446V94.4256Z" fill="#F0F0F0"/>
<path d="M162.446 96.4655H161.113V97.6852H162.446V96.4655Z" fill="#F0F0F0"/>
<path d="M162.446 98.5055H161.113V99.7252H162.446V98.5055Z" fill="#F0F0F0"/>
<path d="M162.446 100.55H161.113V101.769H162.446V100.55Z" fill="#F0F0F0"/>
<path d="M162.446 102.59H161.113V103.809H162.446V102.59Z" fill="#F0F0F0"/>
<path d="M162.446 104.634H161.113V105.854H162.446V104.634Z" fill="#F0F0F0"/>
<path d="M162.446 106.674H161.113V107.893H162.446V106.674Z" fill="#F0F0F0"/>
<path d="M162.446 108.714H161.113V109.933H162.446V108.714Z" fill="#F0F0F0"/>
<path d="M162.446 114.842H161.113V116.062H162.446V114.842Z" fill="#F0F0F0"/>
<path d="M162.446 116.882H161.113V118.102H162.446V116.882Z" fill="#F0F0F0"/>
<path d="M164.558 86.2572H163.225V87.4769H164.558V86.2572Z" fill="#F0F0F0"/>
<path d="M164.558 88.2972H163.225V89.5168H164.558V88.2972Z" fill="#F0F0F0"/>
<path d="M164.558 90.3414H163.225V91.5611H164.558V90.3414Z" fill="#F0F0F0"/>
<path d="M164.558 96.4655H163.225V97.6852H164.558V96.4655Z" fill="#F0F0F0"/>
<path d="M164.558 98.5055H163.225V99.7252H164.558V98.5055Z" fill="#F0F0F0"/>
<path d="M164.558 100.55H163.225V101.769H164.558V100.55Z" fill="#F0F0F0"/>
<path d="M164.558 102.59H163.225V103.809H164.558V102.59Z" fill="#F0F0F0"/>
<path d="M164.558 104.634H163.225V105.854H164.558V104.634Z" fill="#F0F0F0"/>
<path d="M164.558 106.674H163.225V107.893H164.558V106.674Z" fill="#F0F0F0"/>
<path d="M164.558 108.714H163.225V109.933H164.558V108.714Z" fill="#F0F0F0"/>
<path d="M164.558 114.842H163.225V116.062H164.558V114.842Z" fill="#F0F0F0"/>
<path d="M164.558 116.882H163.225V118.102H164.558V116.882Z" fill="#F0F0F0"/>
<path d="M164.558 118.922H163.225V120.142H164.558V118.922Z" fill="#F0F0F0"/>
<path d="M186.715 74.009H185.382V75.2287H186.715V74.009Z" fill="#F0F0F0"/>
<path d="M186.715 76.049H185.382V77.2686H186.715V76.049Z" fill="#F0F0F0"/>
<path d="M186.715 78.0889H185.382V79.3086H186.715V78.0889Z" fill="#F0F0F0"/>
<path d="M186.715 80.1331H185.382V81.3528H186.715V80.1331Z" fill="#F0F0F0"/>
<path d="M186.715 82.173H185.382V83.3927H186.715V82.173Z" fill="#F0F0F0"/>
<path d="M186.715 84.2173H185.382V85.437H186.715V84.2173Z" fill="#F0F0F0"/>
<path d="M186.715 86.2572H185.382V87.4769H186.715V86.2572Z" fill="#F0F0F0"/>
<path d="M186.715 88.2972H185.382V89.5168H186.715V88.2972Z" fill="#F0F0F0"/>
<path d="M186.715 90.3414H185.382V91.5611H186.715V90.3414Z" fill="#F0F0F0"/>
<path d="M186.715 92.3813H185.382V93.601H186.715V92.3813Z" fill="#F0F0F0"/>
<path d="M186.715 94.4256H185.382V95.6453H186.715V94.4256Z" fill="#F0F0F0"/>
<path d="M186.715 96.4655H185.382V97.6852H186.715V96.4655Z" fill="#F0F0F0"/>
<path d="M186.715 98.5055H185.382V99.7252H186.715V98.5055Z" fill="#F0F0F0"/>
<path d="M186.715 100.55H185.382V101.769H186.715V100.55Z" fill="#F0F0F0"/>
<path d="M186.715 102.59H185.382V103.809H186.715V102.59Z" fill="#F0F0F0"/>
<path d="M186.715 104.634H185.382V105.854H186.715V104.634Z" fill="#F0F0F0"/>
<path d="M186.715 106.674H185.382V107.893H186.715V106.674Z" fill="#F0F0F0"/>
<path d="M186.715 108.714H185.382V109.933H186.715V108.714Z" fill="#F0F0F0"/>
<path d="M186.715 110.758H185.382V111.978H186.715V110.758Z" fill="#F0F0F0"/>
<path d="M186.715 112.798H185.382V114.018H186.715V112.798Z" fill="#F0F0F0"/>
<path d="M186.715 114.842H185.382V116.062H186.715V114.842Z" fill="#F0F0F0"/>
<path d="M186.715 116.882H185.382V118.102H186.715V116.882Z" fill="#F0F0F0"/>
<path d="M186.715 118.922H185.382V120.142H186.715V118.922Z" fill="#F0F0F0"/>
<path d="M188.827 74.009H187.494V75.2287H188.827V74.009Z" fill="#F0F0F0"/>
<path d="M188.827 76.049H187.494V77.2686H188.827V76.049Z" fill="#F0F0F0"/>
<path d="M188.827 78.0889H187.494V79.3086H188.827V78.0889Z" fill="#F0F0F0"/>
<path d="M188.827 80.1331H187.494V81.3528H188.827V80.1331Z" fill="#F0F0F0"/>
<path d="M188.827 82.173H187.494V83.3927H188.827V82.173Z" fill="#F0F0F0"/>
<path d="M188.827 84.2173H187.494V85.437H188.827V84.2173Z" fill="#F0F0F0"/>
<path d="M188.827 86.2572H187.494V87.4769H188.827V86.2572Z" fill="#F0F0F0"/>
<path d="M188.827 88.2972H187.494V89.5168H188.827V88.2972Z" fill="#F0F0F0"/>
<path d="M188.827 90.3414H187.494V91.5611H188.827V90.3414Z" fill="#F0F0F0"/>
<path d="M188.827 92.3813H187.494V93.601H188.827V92.3813Z" fill="#F0F0F0"/>
<path d="M188.827 94.4256H187.494V95.6453H188.827V94.4256Z" fill="#F0F0F0"/>
<path d="M188.827 96.4655H187.494V97.6852H188.827V96.4655Z" fill="#F0F0F0"/>
<path d="M188.827 98.5055H187.494V99.7252H188.827V98.5055Z" fill="#F0F0F0"/>
<path d="M188.827 100.55H187.494V101.769H188.827V100.55Z" fill="#F0F0F0"/>
<path d="M188.827 102.59H187.494V103.809H188.827V102.59Z" fill="#F0F0F0"/>
<path d="M188.827 104.634H187.494V105.854H188.827V104.634Z" fill="#F0F0F0"/>
<path d="M188.827 106.674H187.494V107.893H188.827V106.674Z" fill="#F0F0F0"/>
<path d="M188.827 108.714H187.494V109.933H188.827V108.714Z" fill="#F0F0F0"/>
<path d="M188.827 110.758H187.494V111.978H188.827V110.758Z" fill="#F0F0F0"/>
<path d="M190.939 74.009H189.606V75.2287H190.939V74.009Z" fill="#F0F0F0"/>
<path d="M190.939 76.049H189.606V77.2686H190.939V76.049Z" fill="#F0F0F0"/>
<path d="M190.939 78.0889H189.606V79.3086H190.939V78.0889Z" fill="#F0F0F0"/>
<path d="M190.939 80.1331H189.606V81.3528H190.939V80.1331Z" fill="#F0F0F0"/>
<path d="M190.939 82.173H189.606V83.3927H190.939V82.173Z" fill="#F0F0F0"/>
<path d="M190.939 84.2173H189.606V85.437H190.939V84.2173Z" fill="#F0F0F0"/>
<path d="M190.939 86.2572H189.606V87.4769H190.939V86.2572Z" fill="#F0F0F0"/>
<path d="M190.939 88.2972H189.606V89.5168H190.939V88.2972Z" fill="#F0F0F0"/>
<path d="M190.939 90.3414H189.606V91.5611H190.939V90.3414Z" fill="#F0F0F0"/>
<path d="M190.939 92.3813H189.606V93.601H190.939V92.3813Z" fill="#F0F0F0"/>
<path d="M190.939 94.4256H189.606V95.6453H190.939V94.4256Z" fill="#F0F0F0"/>
<path d="M190.939 96.4655H189.606V97.6852H190.939V96.4655Z" fill="#F0F0F0"/>
<path d="M190.939 98.5055H189.606V99.7252H190.939V98.5055Z" fill="#F0F0F0"/>
<path d="M190.939 100.55H189.606V101.769H190.939V100.55Z" fill="#F0F0F0"/>
<path d="M190.939 102.59H189.606V103.809H190.939V102.59Z" fill="#F0F0F0"/>
<path d="M190.939 104.634H189.606V105.854H190.939V104.634Z" fill="#F0F0F0"/>
<path d="M190.939 106.674H189.606V107.893H190.939V106.674Z" fill="#F0F0F0"/>
<path d="M190.939 108.714H189.606V109.933H190.939V108.714Z" fill="#F0F0F0"/>
<path d="M190.939 110.758H189.606V111.978H190.939V110.758Z" fill="#F0F0F0"/>
<path d="M193.056 74.009H191.723V75.2287H193.056V74.009Z" fill="#F0F0F0"/>
<path d="M193.056 76.049H191.723V77.2686H193.056V76.049Z" fill="#F0F0F0"/>
<path d="M193.056 78.0889H191.723V79.3086H193.056V78.0889Z" fill="#F0F0F0"/>
<path d="M193.056 80.1331H191.723V81.3528H193.056V80.1331Z" fill="#F0F0F0"/>
<path d="M193.056 82.173H191.723V83.3927H193.056V82.173Z" fill="#F0F0F0"/>
<path d="M193.056 84.2173H191.723V85.437H193.056V84.2173Z" fill="#F0F0F0"/>
<path d="M193.056 86.2572H191.723V87.4769H193.056V86.2572Z" fill="#F0F0F0"/>
<path d="M193.056 88.2972H191.723V89.5168H193.056V88.2972Z" fill="#F0F0F0"/>
<path d="M193.056 90.3414H191.723V91.5611H193.056V90.3414Z" fill="#F0F0F0"/>
<path d="M193.056 92.3813H191.723V93.601H193.056V92.3813Z" fill="#F0F0F0"/>
<path d="M193.056 94.4256H191.723V95.6453H193.056V94.4256Z" fill="#F0F0F0"/>
<path d="M193.056 96.4655H191.723V97.6852H193.056V96.4655Z" fill="#F0F0F0"/>
<path d="M193.056 98.5055H191.723V99.7252H193.056V98.5055Z" fill="#F0F0F0"/>
<path d="M193.056 100.55H191.723V101.769H193.056V100.55Z" fill="#F0F0F0"/>
<path d="M193.056 102.59H191.723V103.809H193.056V102.59Z" fill="#F0F0F0"/>
<path d="M195.168 74.009H193.835V75.2287H195.168V74.009Z" fill="#F0F0F0"/>
<path d="M195.168 76.049H193.835V77.2686H195.168V76.049Z" fill="#F0F0F0"/>
<path d="M195.168 78.0889H193.835V79.3086H195.168V78.0889Z" fill="#F0F0F0"/>
<path d="M195.168 80.1331H193.835V81.3528H195.168V80.1331Z" fill="#F0F0F0"/>
<path d="M195.168 82.173H193.835V83.3927H195.168V82.173Z" fill="#F0F0F0"/>
<path d="M195.168 84.2173H193.835V85.437H195.168V84.2173Z" fill="#F0F0F0"/>
<path d="M195.168 86.2572H193.835V87.4769H195.168V86.2572Z" fill="#F0F0F0"/>
<path d="M195.168 88.2972H193.835V89.5168H195.168V88.2972Z" fill="#F0F0F0"/>
<path d="M195.168 90.3414H193.835V91.5611H195.168V90.3414Z" fill="#F0F0F0"/>
<path d="M195.168 92.3813H193.835V93.601H195.168V92.3813Z" fill="#F0F0F0"/>
<path d="M195.168 94.4256H193.835V95.6453H195.168V94.4256Z" fill="#F0F0F0"/>
<path d="M195.168 96.4655H193.835V97.6852H195.168V96.4655Z" fill="#F0F0F0"/>
<path d="M195.168 98.5055H193.835V99.7252H195.168V98.5055Z" fill="#F0F0F0"/>
<path d="M197.284 74.009H195.951V75.2287H197.284V74.009Z" fill="#F0F0F0"/>
<path d="M197.284 76.049H195.951V77.2686H197.284V76.049Z" fill="#F0F0F0"/>
<path d="M197.284 78.0889H195.951V79.3086H197.284V78.0889Z" fill="#F0F0F0"/>
<path d="M197.284 80.1331H195.951V81.3528H197.284V80.1331Z" fill="#F0F0F0"/>
<path d="M197.284 82.173H195.951V83.3927H197.284V82.173Z" fill="#F0F0F0"/>
<path d="M197.284 84.2173H195.951V85.437H197.284V84.2173Z" fill="#F0F0F0"/>
<path d="M197.284 86.2572H195.951V87.4769H197.284V86.2572Z" fill="#F0F0F0"/>
<path d="M197.284 88.2972H195.951V89.5168H197.284V88.2972Z" fill="#F0F0F0"/>
<path d="M197.284 90.3414H195.951V91.5611H197.284V90.3414Z" fill="#F0F0F0"/>
<path d="M197.284 92.3813H195.951V93.601H197.284V92.3813Z" fill="#F0F0F0"/>
<path d="M197.284 94.4256H195.951V95.6453H197.284V94.4256Z" fill="#F0F0F0"/>
<path d="M197.284 96.4655H195.951V97.6852H197.284V96.4655Z" fill="#F0F0F0"/>
<path d="M41.9584 88.907H40.6255V90.1267H41.9584V88.907Z" fill="#F0F0F0"/>
<path d="M41.9584 90.9512H40.6255V92.1709H41.9584V90.9512Z" fill="#F0F0F0"/>
<path d="M41.9584 92.9911H40.6255V94.2108H41.9584V92.9911Z" fill="#F0F0F0"/>
<path d="M41.9584 95.0311H40.6255V96.2508H41.9584V95.0311Z" fill="#F0F0F0"/>
<path d="M41.9584 97.0754H40.6255V98.295H41.9584V97.0754Z" fill="#F0F0F0"/>
<path d="M41.9584 99.1153H40.6255V100.335H41.9584V99.1153Z" fill="#F0F0F0"/>
<path d="M41.9584 101.159H40.6255V102.379H41.9584V101.159Z" fill="#F0F0F0"/>
<path d="M41.9584 103.199H40.6255V104.419H41.9584V103.199Z" fill="#F0F0F0"/>
<path d="M41.9584 105.239H40.6255V106.459H41.9584V105.239Z" fill="#F0F0F0"/>
<path d="M41.9584 107.284H40.6255V108.503H41.9584V107.284Z" fill="#F0F0F0"/>
<path d="M41.9584 109.324H40.6255V110.543H41.9584V109.324Z" fill="#F0F0F0"/>
<path d="M41.9584 111.368H40.6255V112.588H41.9584V111.368Z" fill="#F0F0F0"/>
<path d="M41.9584 113.408H40.6255V114.628H41.9584V113.408Z" fill="#F0F0F0"/>
<path d="M41.9584 115.448H40.6255V116.667H41.9584V115.448Z" fill="#F0F0F0"/>
<path d="M41.9584 117.492H40.6255V118.712H41.9584V117.492Z" fill="#F0F0F0"/>
<path d="M41.9584 119.532H40.6255V120.752H41.9584V119.532Z" fill="#F0F0F0"/>
<path d="M41.9584 121.576H40.6255V122.796H41.9584V121.576Z" fill="#F0F0F0"/>
<path d="M41.9584 123.616H40.6255V124.836H41.9584V123.616Z" fill="#F0F0F0"/>
<path d="M41.9584 125.656H40.6255V126.876H41.9584V125.656Z" fill="#F0F0F0"/>
<path d="M41.9584 127.7H40.6255V128.92H41.9584V127.7Z" fill="#F0F0F0"/>
<path d="M44.0705 88.907H42.7375V90.1267H44.0705V88.907Z" fill="#F0F0F0"/>
<path d="M44.0705 90.9512H42.7375V92.1709H44.0705V90.9512Z" fill="#F0F0F0"/>
<path d="M44.0705 92.9911H42.7375V94.2108H44.0705V92.9911Z" fill="#F0F0F0"/>
<path d="M44.0705 95.0311H42.7375V96.2508H44.0705V95.0311Z" fill="#F0F0F0"/>
<path d="M44.0705 97.0754H42.7375V98.295H44.0705V97.0754Z" fill="#F0F0F0"/>
<path d="M44.0705 99.1153H42.7375V100.335H44.0705V99.1153Z" fill="#F0F0F0"/>
<path d="M44.0705 101.159H42.7375V102.379H44.0705V101.159Z" fill="#F0F0F0"/>
<path d="M44.0705 103.199H42.7375V104.419H44.0705V103.199Z" fill="#F0F0F0"/>
<path d="M44.0705 105.239H42.7375V106.459H44.0705V105.239Z" fill="#F0F0F0"/>
<path d="M44.0705 107.284H42.7375V108.503H44.0705V107.284Z" fill="#F0F0F0"/>
<path d="M44.0705 109.324H42.7375V110.543H44.0705V109.324Z" fill="#F0F0F0"/>
<path d="M44.0705 111.368H42.7375V112.588H44.0705V111.368Z" fill="#F0F0F0"/>
<path d="M44.0705 113.408H42.7375V114.628H44.0705V113.408Z" fill="#F0F0F0"/>
<path d="M44.0705 115.448H42.7375V116.667H44.0705V115.448Z" fill="#F0F0F0"/>
<path d="M44.0705 117.492H42.7375V118.712H44.0705V117.492Z" fill="#F0F0F0"/>
<path d="M44.0705 119.532H42.7375V120.752H44.0705V119.532Z" fill="#F0F0F0"/>
<path d="M44.0705 121.576H42.7375V122.796H44.0705V121.576Z" fill="#F0F0F0"/>
<path d="M44.0705 123.616H42.7375V124.836H44.0705V123.616Z" fill="#F0F0F0"/>
<path d="M46.1823 88.907H44.8494V90.1267H46.1823V88.907Z" fill="#F0F0F0"/>
<path d="M46.1823 90.9512H44.8494V92.1709H46.1823V90.9512Z" fill="#F0F0F0"/>
<path d="M46.1823 92.9911H44.8494V94.2108H46.1823V92.9911Z" fill="#F0F0F0"/>
<path d="M46.1823 95.0311H44.8494V96.2508H46.1823V95.0311Z" fill="#F0F0F0"/>
<path d="M46.1823 97.0754H44.8494V98.295H46.1823V97.0754Z" fill="#F0F0F0"/>
<path d="M46.1823 99.1153H44.8494V100.335H46.1823V99.1153Z" fill="#F0F0F0"/>
<path d="M46.1823 101.159H44.8494V102.379H46.1823V101.159Z" fill="#F0F0F0"/>
<path d="M46.1823 103.199H44.8494V104.419H46.1823V103.199Z" fill="#F0F0F0"/>
<path d="M46.1823 105.239H44.8494V106.459H46.1823V105.239Z" fill="#F0F0F0"/>
<path d="M46.1823 107.284H44.8494V108.503H46.1823V107.284Z" fill="#F0F0F0"/>
<path d="M46.1823 109.324H44.8494V110.543H46.1823V109.324Z" fill="#F0F0F0"/>
<path d="M46.1823 111.368H44.8494V112.588H46.1823V111.368Z" fill="#F0F0F0"/>
<path d="M46.1823 113.408H44.8494V114.628H46.1823V113.408Z" fill="#F0F0F0"/>
<path d="M46.1823 115.448H44.8494V116.667H46.1823V115.448Z" fill="#F0F0F0"/>
<path d="M46.1823 117.492H44.8494V118.712H46.1823V117.492Z" fill="#F0F0F0"/>
<path d="M46.1823 119.532H44.8494V120.752H46.1823V119.532Z" fill="#F0F0F0"/>
<path d="M46.1823 121.576H44.8494V122.796H46.1823V121.576Z" fill="#F0F0F0"/>
<path d="M46.1823 123.616H44.8494V124.836H46.1823V123.616Z" fill="#F0F0F0"/>
<path d="M34.0502 103.809H32.7173V105.029H34.0502V103.809Z" fill="#F0F0F0"/>
<path d="M34.0502 105.849H32.7173V107.069H34.0502V105.849Z" fill="#F0F0F0"/>
<path d="M34.0502 107.893H32.7173V109.113H34.0502V107.893Z" fill="#F0F0F0"/>
<path d="M34.0502 109.933H32.7173V111.153H34.0502V109.933Z" fill="#F0F0F0"/>
<path d="M34.0502 111.973H32.7173V113.193H34.0502V111.973Z" fill="#F0F0F0"/>
<path d="M34.0502 114.018H32.7173V115.237H34.0502V114.018Z" fill="#F0F0F0"/>
<path d="M34.0502 116.058H32.7173V117.277H34.0502V116.058Z" fill="#F0F0F0"/>
<path d="M34.0502 118.102H32.7173V119.321H34.0502V118.102Z" fill="#F0F0F0"/>
<path d="M34.0502 120.142H32.7173V121.361H34.0502V120.142Z" fill="#F0F0F0"/>
<path d="M34.0502 122.182H32.7173V123.401H34.0502V122.182Z" fill="#F0F0F0"/>
<path d="M34.0502 124.226H32.7173V125.446H34.0502V124.226Z" fill="#F0F0F0"/>
<path d="M34.0502 126.266H32.7173V127.485H34.0502V126.266Z" fill="#F0F0F0"/>
<path d="M34.0502 128.31H32.7173V129.53H34.0502V128.31Z" fill="#F0F0F0"/>
<path d="M36.1623 103.809H34.8293V105.029H36.1623V103.809Z" fill="#F0F0F0"/>
<path d="M36.1623 105.849H34.8293V107.069H36.1623V105.849Z" fill="#F0F0F0"/>
<path d="M36.1623 107.893H34.8293V109.113H36.1623V107.893Z" fill="#F0F0F0"/>
<path d="M36.1623 109.933H34.8293V111.153H36.1623V109.933Z" fill="#F0F0F0"/>
<path d="M36.1623 111.973H34.8293V113.193H36.1623V111.973Z" fill="#F0F0F0"/>
<path d="M36.1623 114.018H34.8293V115.237H36.1623V114.018Z" fill="#F0F0F0"/>
<path d="M36.1623 116.058H34.8293V117.277H36.1623V116.058Z" fill="#F0F0F0"/>
<path d="M36.1623 118.102H34.8293V119.321H36.1623V118.102Z" fill="#F0F0F0"/>
<path d="M36.1623 120.142H34.8293V121.361H36.1623V120.142Z" fill="#F0F0F0"/>
<path d="M36.1623 122.182H34.8293V123.401H36.1623V122.182Z" fill="#F0F0F0"/>
<path d="M36.1623 124.226H34.8293V125.446H36.1623V124.226Z" fill="#F0F0F0"/>
<path d="M36.1623 126.266H34.8293V127.485H36.1623V126.266Z" fill="#F0F0F0"/>
<path d="M36.1623 128.31H34.8293V129.53H36.1623V128.31Z" fill="#F0F0F0"/>
<path d="M38.2788 103.809H36.9459V105.029H38.2788V103.809Z" fill="#F0F0F0"/>
<path d="M38.2788 105.849H36.9459V107.069H38.2788V105.849Z" fill="#F0F0F0"/>
<path d="M38.2788 107.893H36.9459V109.113H38.2788V107.893Z" fill="#F0F0F0"/>
<path d="M38.2788 109.933H36.9459V111.153H38.2788V109.933Z" fill="#F0F0F0"/>
<path d="M38.2788 111.973H36.9459V113.193H38.2788V111.973Z" fill="#F0F0F0"/>
<path d="M38.2788 114.018H36.9459V115.237H38.2788V114.018Z" fill="#F0F0F0"/>
<path d="M38.2788 116.058H36.9459V117.277H38.2788V116.058Z" fill="#F0F0F0"/>
<path d="M38.2788 118.102H36.9459V119.321H38.2788V118.102Z" fill="#F0F0F0"/>
<path d="M38.2788 120.142H36.9459V121.361H38.2788V120.142Z" fill="#F0F0F0"/>
<path d="M38.2788 122.182H36.9459V123.401H38.2788V122.182Z" fill="#F0F0F0"/>
<path d="M38.2788 124.226H36.9459V125.446H38.2788V124.226Z" fill="#F0F0F0"/>
<path d="M38.2788 126.266H36.9459V127.485H38.2788V126.266Z" fill="#F0F0F0"/>
<path d="M38.2788 128.31H36.9459V129.53H38.2788V128.31Z" fill="#F0F0F0"/>
<path d="M38.2788 130.35H36.9459V131.57H38.2788V130.35Z" fill="#F0F0F0"/>
<path d="M50.0216 104.419H48.6887V105.639H50.0216V104.419Z" fill="#F0F0F0"/>
<path d="M50.0216 106.459H48.6887V107.679H50.0216V106.459Z" fill="#F0F0F0"/>
<path d="M50.0216 108.499H48.6887V109.719H50.0216V108.499Z" fill="#F0F0F0"/>
<path d="M50.0216 110.543H48.6887V111.763H50.0216V110.543Z" fill="#F0F0F0"/>
<path d="M50.0216 112.583H48.6887V113.803H50.0216V112.583Z" fill="#F0F0F0"/>
<path d="M50.0216 114.627H48.6887V115.847H50.0216V114.627Z" fill="#F0F0F0"/>
<path d="M50.0216 116.667H48.6887V117.887H50.0216V116.667Z" fill="#F0F0F0"/>
<path d="M50.0216 118.707H48.6887V119.927H50.0216V118.707Z" fill="#F0F0F0"/>
<path d="M50.0216 120.752H48.6887V121.971H50.0216V120.752Z" fill="#F0F0F0"/>
<path d="M50.0216 122.792H48.6887V124.011H50.0216V122.792Z" fill="#F0F0F0"/>
<path d="M50.0216 128.916H48.6887V130.135H50.0216V128.916Z" fill="#F0F0F0"/>
<path d="M52.1336 104.419H50.8007V105.639H52.1336V104.419Z" fill="#F0F0F0"/>
<path d="M52.1336 106.459H50.8007V107.679H52.1336V106.459Z" fill="#F0F0F0"/>
<path d="M52.1336 108.499H50.8007V109.719H52.1336V108.499Z" fill="#F0F0F0"/>
<path d="M52.1336 110.543H50.8007V111.763H52.1336V110.543Z" fill="#F0F0F0"/>
<path d="M52.1336 112.583H50.8007V113.803H52.1336V112.583Z" fill="#F0F0F0"/>
<path d="M52.1336 114.627H50.8007V115.847H52.1336V114.627Z" fill="#F0F0F0"/>
<path d="M52.1336 116.667H50.8007V117.887H52.1336V116.667Z" fill="#F0F0F0"/>
<path d="M52.1336 118.707H50.8007V119.927H52.1336V118.707Z" fill="#F0F0F0"/>
<path d="M52.1336 120.752H50.8007V121.971H52.1336V120.752Z" fill="#F0F0F0"/>
<path d="M52.1336 126.876H50.8007V128.095H52.1336V126.876Z" fill="#F0F0F0"/>
<path d="M52.1336 128.916H50.8007V130.135H52.1336V128.916Z" fill="#F0F0F0"/>
<path d="M54.2503 104.419H52.9174V105.639H54.2503V104.419Z" fill="#F0F0F0"/>
<path d="M54.2503 106.459H52.9174V107.679H54.2503V106.459Z" fill="#F0F0F0"/>
<path d="M54.2503 108.499H52.9174V109.719H54.2503V108.499Z" fill="#F0F0F0"/>
<path d="M54.2503 110.543H52.9174V111.763H54.2503V110.543Z" fill="#F0F0F0"/>
<path d="M54.2503 112.583H52.9174V113.803H54.2503V112.583Z" fill="#F0F0F0"/>
<path d="M54.2503 114.627H52.9174V115.847H54.2503V114.627Z" fill="#F0F0F0"/>
<path d="M54.2503 116.667H52.9174V117.887H54.2503V116.667Z" fill="#F0F0F0"/>
<path d="M54.2503 118.707H52.9174V119.927H54.2503V118.707Z" fill="#F0F0F0"/>
<path d="M54.2503 124.836H52.9174V126.055H54.2503V124.836Z" fill="#F0F0F0"/>
<path d="M54.2503 126.876H52.9174V128.095H54.2503V126.876Z" fill="#F0F0F0"/>
<path d="M54.2503 128.916H52.9174V130.135H54.2503V128.916Z" fill="#F0F0F0"/>
<path d="M73.8966 73.3992H72.5637V74.6189H73.8966V73.3992Z" fill="#F0F0F0"/>
<path d="M73.8966 75.4391H72.5637V76.6588H73.8966V75.4391Z" fill="#F0F0F0"/>
<path d="M73.8966 77.4833H72.5637V78.703H73.8966V77.4833Z" fill="#F0F0F0"/>
<path d="M73.8966 79.5233H72.5637V80.743H73.8966V79.5233Z" fill="#F0F0F0"/>
<path d="M73.8966 81.5633H72.5637V82.783H73.8966V81.5633Z" fill="#F0F0F0"/>
<path d="M73.8966 83.6074H72.5637V84.8271H73.8966V83.6074Z" fill="#F0F0F0"/>
<path d="M73.8966 85.6474H72.5637V86.8671H73.8966V85.6474Z" fill="#F0F0F0"/>
<path d="M73.8966 87.6917H72.5637V88.9113H73.8966V87.6917Z" fill="#F0F0F0"/>
<path d="M73.8966 89.7316H72.5637V90.9512H73.8966V89.7316Z" fill="#F0F0F0"/>
<path d="M73.8966 91.7715H72.5637V92.9912H73.8966V91.7715Z" fill="#F0F0F0"/>
<path d="M73.8966 93.8157H72.5637V95.0354H73.8966V93.8157Z" fill="#F0F0F0"/>
<path d="M73.8966 95.8557H72.5637V97.0754H73.8966V95.8557Z" fill="#F0F0F0"/>
<path d="M73.8966 97.8999H72.5637V99.1196H73.8966V97.8999Z" fill="#F0F0F0"/>
<path d="M73.8966 99.9398H72.5637V101.159H73.8966V99.9398Z" fill="#F0F0F0"/>
<path d="M73.8966 101.98H72.5637V103.199H73.8966V101.98Z" fill="#F0F0F0"/>
<path d="M73.8966 104.024H72.5637V105.244H73.8966V104.024Z" fill="#F0F0F0"/>
<path d="M73.8966 106.064H72.5637V107.284H73.8966V106.064Z" fill="#F0F0F0"/>
<path d="M73.8966 110.148H72.5637V111.368H73.8966V110.148Z" fill="#F0F0F0"/>
<path d="M73.8966 112.188H72.5637V113.408H73.8966V112.188Z" fill="#F0F0F0"/>
<path d="M73.8966 114.232H72.5637V115.452H73.8966V114.232Z" fill="#F0F0F0"/>
<path d="M73.8966 116.272H72.5637V117.492H73.8966V116.272Z" fill="#F0F0F0"/>
<path d="M73.8966 118.316H72.5637V119.536H73.8966V118.316Z" fill="#F0F0F0"/>
<path d="M76.0132 73.3992H74.6803V74.6189H76.0132V73.3992Z" fill="#F0F0F0"/>
<path d="M76.0132 75.4391H74.6803V76.6588H76.0132V75.4391Z" fill="#F0F0F0"/>
<path d="M76.0132 77.4833H74.6803V78.703H76.0132V77.4833Z" fill="#F0F0F0"/>
<path d="M76.0132 79.5233H74.6803V80.743H76.0132V79.5233Z" fill="#F0F0F0"/>
<path d="M76.0132 81.5633H74.6803V82.783H76.0132V81.5633Z" fill="#F0F0F0"/>
<path d="M76.0132 83.6074H74.6803V84.8271H76.0132V83.6074Z" fill="#F0F0F0"/>
<path d="M76.0132 85.6474H74.6803V86.8671H76.0132V85.6474Z" fill="#F0F0F0"/>
<path d="M76.0132 87.6917H74.6803V88.9113H76.0132V87.6917Z" fill="#F0F0F0"/>
<path d="M76.0132 89.7316H74.6803V90.9512H76.0132V89.7316Z" fill="#F0F0F0"/>
<path d="M76.0132 91.7715H74.6803V92.9912H76.0132V91.7715Z" fill="#F0F0F0"/>
<path d="M76.0132 93.8157H74.6803V95.0354H76.0132V93.8157Z" fill="#F0F0F0"/>
<path d="M76.0132 95.8557H74.6803V97.0754H76.0132V95.8557Z" fill="#F0F0F0"/>
<path d="M76.0132 97.8999H74.6803V99.1196H76.0132V97.8999Z" fill="#F0F0F0"/>
<path d="M76.0132 99.9398H74.6803V101.159H76.0132V99.9398Z" fill="#F0F0F0"/>
<path d="M76.0132 101.98H74.6803V103.199H76.0132V101.98Z" fill="#F0F0F0"/>
<path d="M76.0132 104.024H74.6803V105.244H76.0132V104.024Z" fill="#F0F0F0"/>
<path d="M76.0132 116.272H74.6803V117.492H76.0132V116.272Z" fill="#F0F0F0"/>
<path d="M76.0132 118.316H74.6803V119.536H76.0132V118.316Z" fill="#F0F0F0"/>
<path d="M78.1253 73.3992H76.7924V74.6189H78.1253V73.3992Z" fill="#F0F0F0"/>
<path d="M78.1253 75.4391H76.7924V76.6588H78.1253V75.4391Z" fill="#F0F0F0"/>
<path d="M78.1253 77.4833H76.7924V78.703H78.1253V77.4833Z" fill="#F0F0F0"/>
<path d="M78.1253 79.5233H76.7924V80.743H78.1253V79.5233Z" fill="#F0F0F0"/>
<path d="M78.1253 81.5633H76.7924V82.783H78.1253V81.5633Z" fill="#F0F0F0"/>
<path d="M78.1253 83.6074H76.7924V84.8271H78.1253V83.6074Z" fill="#F0F0F0"/>
<path d="M78.1253 85.6474H76.7924V86.8671H78.1253V85.6474Z" fill="#F0F0F0"/>
<path d="M78.1253 87.6917H76.7924V88.9113H78.1253V87.6917Z" fill="#F0F0F0"/>
<path d="M78.1253 89.7316H76.7924V90.9512H78.1253V89.7316Z" fill="#F0F0F0"/>
<path d="M78.1253 91.7715H76.7924V92.9912H78.1253V91.7715Z" fill="#F0F0F0"/>
<path d="M78.1253 93.8157H76.7924V95.0354H78.1253V93.8157Z" fill="#F0F0F0"/>
<path d="M78.1253 95.8557H76.7924V97.0754H78.1253V95.8557Z" fill="#F0F0F0"/>
<path d="M78.1253 97.8999H76.7924V99.1196H78.1253V97.8999Z" fill="#F0F0F0"/>
<path d="M78.1253 99.9398H76.7924V101.159H78.1253V99.9398Z" fill="#F0F0F0"/>
<path d="M78.1253 101.98H76.7924V103.199H78.1253V101.98Z" fill="#F0F0F0"/>
<path d="M78.1253 104.024H76.7924V105.244H78.1253V104.024Z" fill="#F0F0F0"/>
<path d="M78.1253 108.108H76.7924V109.328H78.1253V108.108Z" fill="#F0F0F0"/>
<path d="M78.1253 110.148H76.7924V111.368H78.1253V110.148Z" fill="#F0F0F0"/>
<path d="M78.1253 112.188H76.7924V113.408H78.1253V112.188Z" fill="#F0F0F0"/>
<path d="M78.1253 114.232H76.7924V115.452H78.1253V114.232Z" fill="#F0F0F0"/>
<path d="M78.1253 118.316H76.7924V119.536H78.1253V118.316Z" fill="#F0F0F0"/>
<path d="M66.2277 99.1153H64.8948V100.335H66.2277V99.1153Z" fill="#F0F0F0"/>
<path d="M66.2277 101.159H64.8948V102.379H66.2277V101.159Z" fill="#F0F0F0"/>
<path d="M66.2277 103.199H64.8948V104.419H66.2277V103.199Z" fill="#F0F0F0"/>
<path d="M66.2277 105.239H64.8948V106.459H66.2277V105.239Z" fill="#F0F0F0"/>
<path d="M66.2277 107.284H64.8948V108.503H66.2277V107.284Z" fill="#F0F0F0"/>
<path d="M66.2277 109.324H64.8948V110.543H66.2277V109.324Z" fill="#F0F0F0"/>
<path d="M66.2277 111.368H64.8948V112.588H66.2277V111.368Z" fill="#F0F0F0"/>
<path d="M66.2277 115.448H64.8948V116.667H66.2277V115.448Z" fill="#F0F0F0"/>
<path d="M66.2277 117.492H64.8948V118.712H66.2277V117.492Z" fill="#F0F0F0"/>
<path d="M66.2277 119.532H64.8948V120.752H66.2277V119.532Z" fill="#F0F0F0"/>
<path d="M66.2277 121.576H64.8948V122.796H66.2277V121.576Z" fill="#F0F0F0"/>
<path d="M66.2277 123.616H64.8948V124.836H66.2277V123.616Z" fill="#F0F0F0"/>
<path d="M66.2277 125.656H64.8948V126.876H66.2277V125.656Z" fill="#F0F0F0"/>
<path d="M66.2277 127.7H64.8948V128.92H66.2277V127.7Z" fill="#F0F0F0"/>
<path d="M66.2277 129.74H64.8948V130.96H66.2277V129.74Z" fill="#F0F0F0"/>
<path d="M68.3396 99.1153H67.0067V100.335H68.3396V99.1153Z" fill="#F0F0F0"/>
<path d="M68.3396 101.159H67.0067V102.379H68.3396V101.159Z" fill="#F0F0F0"/>
<path d="M68.3396 103.199H67.0067V104.419H68.3396V103.199Z" fill="#F0F0F0"/>
<path d="M68.3396 105.239H67.0067V106.459H68.3396V105.239Z" fill="#F0F0F0"/>
<path d="M68.3396 107.284H67.0067V108.503H68.3396V107.284Z" fill="#F0F0F0"/>
<path d="M68.3396 109.324H67.0067V110.543H68.3396V109.324Z" fill="#F0F0F0"/>
<path d="M68.3396 115.448H67.0067V116.667H68.3396V115.448Z" fill="#F0F0F0"/>
<path d="M68.3396 117.492H67.0067V118.712H68.3396V117.492Z" fill="#F0F0F0"/>
<path d="M68.3396 119.532H67.0067V120.752H68.3396V119.532Z" fill="#F0F0F0"/>
<path d="M68.3396 121.576H67.0067V122.796H68.3396V121.576Z" fill="#F0F0F0"/>
<path d="M68.3396 123.616H67.0067V124.836H68.3396V123.616Z" fill="#F0F0F0"/>
<path d="M68.3396 125.656H67.0067V126.876H68.3396V125.656Z" fill="#F0F0F0"/>
<path d="M68.3396 127.7H67.0067V128.92H68.3396V127.7Z" fill="#F0F0F0"/>
<path d="M68.3396 129.74H67.0067V130.96H68.3396V129.74Z" fill="#F0F0F0"/>
<path d="M70.4563 99.1153H69.1234V100.335H70.4563V99.1153Z" fill="#F0F0F0"/>
<path d="M70.4563 101.159H69.1234V102.379H70.4563V101.159Z" fill="#F0F0F0"/>
<path d="M70.4563 103.199H69.1234V104.419H70.4563V103.199Z" fill="#F0F0F0"/>
<path d="M70.4563 105.239H69.1234V106.459H70.4563V105.239Z" fill="#F0F0F0"/>
<path d="M70.4563 107.284H69.1234V108.503H70.4563V107.284Z" fill="#F0F0F0"/>
<path d="M70.4563 109.324H69.1234V110.543H70.4563V109.324Z" fill="#F0F0F0"/>
<path d="M70.4563 113.408H69.1234V114.628H70.4563V113.408Z" fill="#F0F0F0"/>
<path d="M70.4563 115.448H69.1234V116.667H70.4563V115.448Z" fill="#F0F0F0"/>
<path d="M70.4563 117.492H69.1234V118.712H70.4563V117.492Z" fill="#F0F0F0"/>
<path d="M70.4563 119.532H69.1234V120.752H70.4563V119.532Z" fill="#F0F0F0"/>
<path d="M70.4563 121.576H69.1234V122.796H70.4563V121.576Z" fill="#F0F0F0"/>
<path d="M70.4563 123.616H69.1234V124.836H70.4563V123.616Z" fill="#F0F0F0"/>
<path d="M70.4563 125.656H69.1234V126.876H70.4563V125.656Z" fill="#F0F0F0"/>
<path d="M70.4563 127.7H69.1234V128.92H70.4563V127.7Z" fill="#F0F0F0"/>
<path d="M70.4563 129.74H69.1234V130.96H70.4563V129.74Z" fill="#F0F0F0"/>
<path d="M115.001 87.6917H113.668V88.9113H115.001V87.6917Z" fill="#F0F0F0"/>
<path d="M115.001 89.7316H113.668V90.9512H115.001V89.7316Z" fill="#F0F0F0"/>
<path d="M115.001 91.7715H113.668V92.9912H115.001V91.7715Z" fill="#F0F0F0"/>
<path d="M115.001 93.8157H113.668V95.0354H115.001V93.8157Z" fill="#F0F0F0"/>
<path d="M115.001 95.8557H113.668V97.0754H115.001V95.8557Z" fill="#F0F0F0"/>
<path d="M115.001 97.8999H113.668V99.1196H115.001V97.8999Z" fill="#F0F0F0"/>
<path d="M115.001 99.9398H113.668V101.159H115.001V99.9398Z" fill="#F0F0F0"/>
<path d="M115.001 101.98H113.668V103.199H115.001V101.98Z" fill="#F0F0F0"/>
<path d="M115.001 104.024H113.668V105.244H115.001V104.024Z" fill="#F0F0F0"/>
<path d="M115.001 106.064H113.668V107.284H115.001V106.064Z" fill="#F0F0F0"/>
<path d="M115.001 108.108H113.668V109.328H115.001V108.108Z" fill="#F0F0F0"/>
<path d="M115.001 110.148H113.668V111.368H115.001V110.148Z" fill="#F0F0F0"/>
<path d="M115.001 112.188H113.668V113.408H115.001V112.188Z" fill="#F0F0F0"/>
<path d="M115.001 116.272H113.668V117.492H115.001V116.272Z" fill="#F0F0F0"/>
<path d="M115.001 118.316H113.668V119.536H115.001V118.316Z" fill="#F0F0F0"/>
<path d="M115.001 120.356H113.668V121.576H115.001V120.356Z" fill="#F0F0F0"/>
<path d="M115.001 122.396H113.668V123.616H115.001V122.396Z" fill="#F0F0F0"/>
<path d="M115.001 126.481H113.668V127.7H115.001V126.481Z" fill="#F0F0F0"/>
<path d="M115.001 128.525H113.668V129.744H115.001V128.525Z" fill="#F0F0F0"/>
<path d="M115.001 130.565H113.668V131.784H115.001V130.565Z" fill="#F0F0F0"/>
<path d="M117.113 87.6917H115.78V88.9113H117.113V87.6917Z" fill="#F0F0F0"/>
<path d="M117.113 89.7316H115.78V90.9512H117.113V89.7316Z" fill="#F0F0F0"/>
<path d="M117.113 91.7715H115.78V92.9912H117.113V91.7715Z" fill="#F0F0F0"/>
<path d="M117.113 93.8157H115.78V95.0354H117.113V93.8157Z" fill="#F0F0F0"/>
<path d="M117.113 95.8557H115.78V97.0754H117.113V95.8557Z" fill="#F0F0F0"/>
<path d="M117.113 97.8999H115.78V99.1196H117.113V97.8999Z" fill="#F0F0F0"/>
<path d="M117.113 99.9398H115.78V101.159H117.113V99.9398Z" fill="#F0F0F0"/>
<path d="M117.113 101.98H115.78V103.199H117.113V101.98Z" fill="#F0F0F0"/>
<path d="M117.113 104.024H115.78V105.244H117.113V104.024Z" fill="#F0F0F0"/>
<path d="M117.113 106.064H115.78V107.284H117.113V106.064Z" fill="#F0F0F0"/>
<path d="M117.113 108.108H115.78V109.328H117.113V108.108Z" fill="#F0F0F0"/>
<path d="M117.113 110.148H115.78V111.368H117.113V110.148Z" fill="#F0F0F0"/>
<path d="M117.113 112.188H115.78V113.408H117.113V112.188Z" fill="#F0F0F0"/>
<path d="M117.113 118.316H115.78V119.536H117.113V118.316Z" fill="#F0F0F0"/>
<path d="M117.113 120.356H115.78V121.576H117.113V120.356Z" fill="#F0F0F0"/>
<path d="M117.113 124.441H115.78V125.66H117.113V124.441Z" fill="#F0F0F0"/>
<path d="M117.113 126.481H115.78V127.7H117.113V126.481Z" fill="#F0F0F0"/>
<path d="M117.113 128.525H115.78V129.744H117.113V128.525Z" fill="#F0F0F0"/>
<path d="M117.113 130.565H115.78V131.784H117.113V130.565Z" fill="#F0F0F0"/>
<path d="M119.229 87.6917H117.896V88.9113H119.229V87.6917Z" fill="#F0F0F0"/>
<path d="M119.229 89.7316H117.896V90.9512H119.229V89.7316Z" fill="#F0F0F0"/>
<path d="M119.229 91.7715H117.896V92.9912H119.229V91.7715Z" fill="#F0F0F0"/>
<path d="M119.229 93.8157H117.896V95.0354H119.229V93.8157Z" fill="#F0F0F0"/>
<path d="M119.229 95.8557H117.896V97.0754H119.229V95.8557Z" fill="#F0F0F0"/>
<path d="M119.229 97.8999H117.896V99.1196H119.229V97.8999Z" fill="#F0F0F0"/>
<path d="M119.229 99.9398H117.896V101.159H119.229V99.9398Z" fill="#F0F0F0"/>
<path d="M119.229 101.98H117.896V103.199H119.229V101.98Z" fill="#F0F0F0"/>
<path d="M119.229 104.024H117.896V105.244H119.229V104.024Z" fill="#F0F0F0"/>
<path d="M119.229 106.064H117.896V107.284H119.229V106.064Z" fill="#F0F0F0"/>
<path d="M119.229 108.108H117.896V109.328H119.229V108.108Z" fill="#F0F0F0"/>
<path d="M119.229 110.148H117.896V111.368H119.229V110.148Z" fill="#F0F0F0"/>
<path d="M119.229 112.188H117.896V113.408H119.229V112.188Z" fill="#F0F0F0"/>
<path d="M119.229 114.232H117.896V115.452H119.229V114.232Z" fill="#F0F0F0"/>
<path d="M119.229 118.316H117.896V119.536H119.229V118.316Z" fill="#F0F0F0"/>
<path d="M119.229 122.396H117.896V123.616H119.229V122.396Z" fill="#F0F0F0"/>
<path d="M119.229 124.441H117.896V125.66H119.229V124.441Z" fill="#F0F0F0"/>
<path d="M119.229 126.481H117.896V127.7H119.229V126.481Z" fill="#F0F0F0"/>
<path d="M119.229 128.525H117.896V129.744H119.229V128.525Z" fill="#F0F0F0"/>
<path d="M119.229 130.565H117.896V131.784H119.229V130.565Z" fill="#F0F0F0"/>
<path d="M106.388 99.3301H105.055V100.55H106.388V99.3301Z" fill="#F0F0F0"/>
<path d="M106.388 101.374H105.055V102.594H106.388V101.374Z" fill="#F0F0F0"/>
<path d="M106.388 103.414H105.055V104.634H106.388V103.414Z" fill="#F0F0F0"/>
<path d="M106.388 105.454H105.055V106.674H106.388V105.454Z" fill="#F0F0F0"/>
<path d="M106.388 107.498H105.055V108.718H106.388V107.498Z" fill="#F0F0F0"/>
<path d="M106.388 109.538H105.055V110.758H106.388V109.538Z" fill="#F0F0F0"/>
<path d="M106.388 115.667H105.055V116.886H106.388V115.667Z" fill="#F0F0F0"/>
<path d="M106.388 117.707H105.055V118.926H106.388V117.707Z" fill="#F0F0F0"/>
<path d="M106.388 119.747H105.055V120.966H106.388V119.747Z" fill="#F0F0F0"/>
<path d="M106.388 121.791H105.055V123.011H106.388V121.791Z" fill="#F0F0F0"/>
<path d="M106.388 123.831H105.055V125.05H106.388V123.831Z" fill="#F0F0F0"/>
<path d="M106.388 125.875H105.055V127.095H106.388V125.875Z" fill="#F0F0F0"/>
<path d="M106.388 127.915H105.055V129.135H106.388V127.915Z" fill="#F0F0F0"/>
<path d="M108.501 99.3301H107.168V100.55H108.501V99.3301Z" fill="#F0F0F0"/>
<path d="M108.501 101.374H107.168V102.594H108.501V101.374Z" fill="#F0F0F0"/>
<path d="M108.501 103.414H107.168V104.634H108.501V103.414Z" fill="#F0F0F0"/>
<path d="M108.501 105.454H107.168V106.674H108.501V105.454Z" fill="#F0F0F0"/>
<path d="M108.501 107.498H107.168V108.718H108.501V107.498Z" fill="#F0F0F0"/>
<path d="M108.501 109.538H107.168V110.758H108.501V109.538Z" fill="#F0F0F0"/>
<path d="M108.501 115.667H107.168V116.886H108.501V115.667Z" fill="#F0F0F0"/>
<path d="M108.501 117.707H107.168V118.926H108.501V117.707Z" fill="#F0F0F0"/>
<path d="M108.501 119.747H107.168V120.966H108.501V119.747Z" fill="#F0F0F0"/>
<path d="M108.501 121.791H107.168V123.011H108.501V121.791Z" fill="#F0F0F0"/>
<path d="M108.501 123.831H107.168V125.05H108.501V123.831Z" fill="#F0F0F0"/>
<path d="M108.501 125.875H107.168V127.095H108.501V125.875Z" fill="#F0F0F0"/>
<path d="M108.501 129.955H107.168V131.175H108.501V129.955Z" fill="#F0F0F0"/>
<path d="M178.727 90.3414H177.394V91.5611H178.727V90.3414Z" fill="#F0F0F0"/>
<path d="M178.727 92.3813H177.394V93.601H178.727V92.3813Z" fill="#F0F0F0"/>
<path d="M178.727 94.4256H177.394V95.6453H178.727V94.4256Z" fill="#F0F0F0"/>
<path d="M178.727 96.4655H177.394V97.6852H178.727V96.4655Z" fill="#F0F0F0"/>
<path d="M178.727 98.5055H177.394V99.7252H178.727V98.5055Z" fill="#F0F0F0"/>
<path d="M178.727 100.55H177.394V101.769H178.727V100.55Z" fill="#F0F0F0"/>
<path d="M178.727 102.59H177.394V103.809H178.727V102.59Z" fill="#F0F0F0"/>
<path d="M178.727 104.634H177.394V105.854H178.727V104.634Z" fill="#F0F0F0"/>
<path d="M178.727 106.674H177.394V107.893H178.727V106.674Z" fill="#F0F0F0"/>
<path d="M178.727 108.714H177.394V109.933H178.727V108.714Z" fill="#F0F0F0"/>
<path d="M178.727 110.758H177.394V111.978H178.727V110.758Z" fill="#F0F0F0"/>
<path d="M178.727 114.842H177.394V116.062H178.727V114.842Z" fill="#F0F0F0"/>
<path d="M178.727 116.882H177.394V118.102H178.727V116.882Z" fill="#F0F0F0"/>
<path d="M178.727 118.922H177.394V120.142H178.727V118.922Z" fill="#F0F0F0"/>
<path d="M178.727 120.966H177.394V122.186H178.727V120.966Z" fill="#F0F0F0"/>
<path d="M178.727 123.006H177.394V124.226H178.727V123.006Z" fill="#F0F0F0"/>
<path d="M178.727 125.05H177.394V126.27H178.727V125.05Z" fill="#F0F0F0"/>
<path d="M178.727 127.09H177.394V128.31H178.727V127.09Z" fill="#F0F0F0"/>
<path d="M178.727 129.135H177.394V130.354H178.727V129.135Z" fill="#F0F0F0"/>
<path d="M180.844 90.3414H179.511V91.5611H180.844V90.3414Z" fill="#F0F0F0"/>
<path d="M180.844 92.3813H179.511V93.601H180.844V92.3813Z" fill="#F0F0F0"/>
<path d="M180.844 94.4256H179.511V95.6453H180.844V94.4256Z" fill="#F0F0F0"/>
<path d="M180.844 96.4655H179.511V97.6852H180.844V96.4655Z" fill="#F0F0F0"/>
<path d="M180.844 98.5055H179.511V99.7252H180.844V98.5055Z" fill="#F0F0F0"/>
<path d="M180.844 100.55H179.511V101.769H180.844V100.55Z" fill="#F0F0F0"/>
<path d="M180.844 102.59H179.511V103.809H180.844V102.59Z" fill="#F0F0F0"/>
<path d="M180.844 104.634H179.511V105.854H180.844V104.634Z" fill="#F0F0F0"/>
<path d="M180.844 106.674H179.511V107.893H180.844V106.674Z" fill="#F0F0F0"/>
<path d="M180.844 108.714H179.511V109.933H180.844V108.714Z" fill="#F0F0F0"/>
<path d="M180.844 110.758H179.511V111.978H180.844V110.758Z" fill="#F0F0F0"/>
<path d="M180.844 112.798H179.511V114.018H180.844V112.798Z" fill="#F0F0F0"/>
<path d="M180.844 114.842H179.511V116.062H180.844V114.842Z" fill="#F0F0F0"/>
<path d="M180.844 116.882H179.511V118.102H180.844V116.882Z" fill="#F0F0F0"/>
<path d="M180.844 118.922H179.511V120.142H180.844V118.922Z" fill="#F0F0F0"/>
<path d="M180.844 120.966H179.511V122.186H180.844V120.966Z" fill="#F0F0F0"/>
<path d="M180.844 123.006H179.511V124.226H180.844V123.006Z" fill="#F0F0F0"/>
<path d="M180.844 125.05H179.511V126.27H180.844V125.05Z" fill="#F0F0F0"/>
<path d="M180.844 127.09H179.511V128.31H180.844V127.09Z" fill="#F0F0F0"/>
<path d="M180.844 129.135H179.511V130.354H180.844V129.135Z" fill="#F0F0F0"/>
<path d="M168.317 98.2908H166.984V99.5104H168.317V98.2908Z" fill="#F0F0F0"/>
<path d="M168.317 100.335H166.984V101.555H168.317V100.335Z" fill="#F0F0F0"/>
<path d="M168.317 102.375H166.984V103.595H168.317V102.375Z" fill="#F0F0F0"/>
<path d="M168.317 104.419H166.984V105.639H168.317V104.419Z" fill="#F0F0F0"/>
<path d="M168.317 106.459H166.984V107.679H168.317V106.459Z" fill="#F0F0F0"/>
<path d="M168.317 108.499H166.984V109.719H168.317V108.499Z" fill="#F0F0F0"/>
<path d="M168.317 110.543H166.984V111.763H168.317V110.543Z" fill="#F0F0F0"/>
<path d="M168.317 112.583H166.984V113.803H168.317V112.583Z" fill="#F0F0F0"/>
<path d="M168.317 114.627H166.984V115.847H168.317V114.627Z" fill="#F0F0F0"/>
<path d="M168.317 116.667H166.984V117.887H168.317V116.667Z" fill="#F0F0F0"/>
<path d="M170.429 98.2908H169.096V99.5104H170.429V98.2908Z" fill="#F0F0F0"/>
<path d="M170.429 100.335H169.096V101.555H170.429V100.335Z" fill="#F0F0F0"/>
<path d="M170.429 102.375H169.096V103.595H170.429V102.375Z" fill="#F0F0F0"/>
<path d="M170.429 104.419H169.096V105.639H170.429V104.419Z" fill="#F0F0F0"/>
<path d="M170.429 106.459H169.096V107.679H170.429V106.459Z" fill="#F0F0F0"/>
<path d="M170.429 108.499H169.096V109.719H170.429V108.499Z" fill="#F0F0F0"/>
<path d="M170.429 110.543H169.096V111.763H170.429V110.543Z" fill="#F0F0F0"/>
<path d="M170.429 112.583H169.096V113.803H170.429V112.583Z" fill="#F0F0F0"/>
<path d="M170.429 114.627H169.096V115.847H170.429V114.627Z" fill="#F0F0F0"/>
<path d="M63.9983 47.7733C63.9986 47.1824 63.8478 46.5997 63.558 46.0717C63.2682 45.5437 62.8475 45.0851 62.3294 44.7324C61.8113 44.3798 61.2103 44.143 60.5743 44.0408C59.9383 43.9387 59.285 43.9742 58.6667 44.1443C58.729 43.7604 58.7604 43.3729 58.7606 42.9848C58.7605 41.8067 58.4768 40.643 57.9295 39.5767C57.3823 38.5103 56.5849 37.5674 55.5942 36.815C54.6035 36.0626 53.4437 35.5193 52.1975 35.2236C50.9512 34.9279 49.649 34.8871 48.3836 35.1042C47.5187 33.807 46.2165 32.8022 44.6733 32.2411C43.13 31.68 41.4293 31.593 39.8273 31.9933C38.2254 32.3935 36.809 33.2593 35.7915 34.4603C34.7741 35.6612 34.2107 37.1321 34.1863 38.6515H34.0549C32.1828 38.6515 30.3873 39.332 29.0636 40.5433C27.7398 41.7546 26.9961 43.3975 26.9961 45.1106C26.9961 46.8237 27.7398 48.4666 29.0636 49.6779C30.3873 50.8892 32.1828 51.5697 34.0549 51.5697H59.9761C61.0556 51.5428 62.0807 51.1305 62.8323 50.4211C63.5839 49.7117 64.0024 48.7613 63.9983 47.7733Z" fill="#F0F0F0"/>
<path d="M173.184 39.4416C173.184 38.8004 173.462 38.1854 173.958 37.732C174.453 37.2785 175.126 37.0238 175.826 37.0238C176.082 37.0249 176.337 37.0596 176.582 37.1269C176.544 36.8807 176.525 36.6324 176.526 36.3839C176.526 35.0292 177.112 33.7297 178.158 32.7701C179.203 31.8106 180.621 31.2693 182.101 31.2647C182.446 31.2662 182.79 31.2964 183.129 31.3549C183.681 30.5259 184.511 29.8833 185.497 29.5242C186.482 29.165 187.568 29.1086 188.591 29.3635C189.615 29.6185 190.52 30.1709 191.17 30.9375C191.82 31.7042 192.181 32.6435 192.197 33.6139H192.281C193.476 33.6139 194.622 34.0482 195.467 34.8214C196.312 35.5946 196.787 36.6432 196.787 37.7367C196.787 38.8301 196.312 39.8788 195.467 40.652C194.622 41.4251 193.476 41.8595 192.281 41.8595H175.751C175.063 41.8438 174.408 41.5819 173.928 41.1299C173.449 40.6779 173.181 40.0718 173.184 39.4416Z" fill="#F0F0F0"/>
<path d="M120.562 13.3562C120.564 12.9636 120.735 12.5874 121.038 12.3098C121.341 12.0322 121.753 11.8757 122.182 11.8746C122.341 11.8735 122.499 11.8953 122.651 11.939C122.627 11.7883 122.614 11.6362 122.613 11.4838C122.613 11.0717 122.702 10.6637 122.875 10.2831C123.047 9.90242 123.3 9.55663 123.619 9.26545C123.937 8.97428 124.315 8.74344 124.732 8.58614C125.148 8.42884 125.594 8.34817 126.044 8.34873C126.255 8.34845 126.466 8.3657 126.673 8.40027C127.012 7.89332 127.522 7.50076 128.125 7.28158C128.729 7.06241 129.394 7.02848 130.021 7.18488C130.647 7.34129 131.201 7.67959 131.6 8.14891C131.998 8.61823 132.219 9.19322 132.23 9.78743H132.277C132.649 9.77338 133.021 9.82835 133.369 9.94903C133.718 10.0697 134.036 10.2536 134.305 10.4897C134.574 10.7258 134.788 11.0091 134.934 11.3228C135.08 11.6364 135.155 11.9739 135.155 12.3148C135.155 12.6558 135.08 12.9932 134.934 13.3068C134.788 13.6205 134.574 13.9038 134.305 14.1399C134.036 14.376 133.718 14.5599 133.369 14.6806C133.021 14.8013 132.649 14.8562 132.277 14.8422H122.139C121.716 14.8332 121.314 14.6724 121.019 14.3944C120.724 14.1165 120.56 13.7437 120.562 13.3562Z" fill="#F0F0F0"/>
<path d="M117.333 160C167.591 160 208.332 157.823 208.332 155.139C208.332 152.454 167.591 150.277 117.333 150.277C67.0759 150.277 26.3342 152.454 26.3342 155.139C26.3342 157.823 67.0759 160 117.333 160Z" fill="#F5F5F5"/>
<path d="M198.528 133.889C198.528 133.889 200.729 127.133 196.271 125.785C191.812 124.436 189.141 121.28 189.306 117.707C189.47 114.134 184.758 110.655 181.238 114.005C177.718 117.355 178.187 111.428 173.494 109.989C168.8 108.551 164.825 112.042 166.111 115.233C167.397 118.424 162.765 120.421 157.227 117.707C151.689 114.993 145.578 119.931 146.751 123.796C147.924 127.662 146.967 128.091 143.466 126.803C139.965 125.514 133.68 129.165 135.881 133.889C138.083 138.613 198.528 133.889 198.528 133.889Z" fill="#FCC709"/>
<path opacity="0.3" d="M198.528 133.889C198.528 133.889 200.729 127.133 196.271 125.785C191.812 124.436 189.141 121.28 189.306 117.707C189.47 114.134 184.758 110.655 181.238 114.005C177.718 117.355 178.187 111.428 173.494 109.989C168.8 108.551 164.825 112.042 166.111 115.233C167.397 118.424 162.765 120.421 157.227 117.707C151.689 114.993 145.578 119.931 146.751 123.796C147.924 127.662 146.967 128.091 143.466 126.803C139.965 125.514 133.68 129.165 135.881 133.889C138.083 138.613 198.528 133.889 198.528 133.889Z" fill="white"/>
<path d="M80.5658 134.533C82.9125 132.386 80.8005 128.735 78.4538 128.306C76.1072 127.876 73.7605 124.097 73.6385 121.692C73.5164 119.287 69.3018 111.888 62.7312 116.457C56.1605 121.026 58.1599 117.131 53.4055 115.847C48.6512 114.563 45.6568 118.256 47.7407 121.026C47.7407 121.026 42.9675 119.931 41.001 124.011C39.0345 128.091 41.001 130.625 41.001 130.625C41.001 130.625 32.018 130.38 32.8252 135.465C33.6325 140.55 80.5658 134.533 80.5658 134.533Z" fill="#FCC709"/>
<path opacity="0.3" d="M80.5658 134.533C82.9125 132.386 80.8005 128.735 78.4538 128.306C76.1072 127.876 73.7605 124.097 73.6385 121.692C73.5164 119.287 69.3018 111.888 62.7312 116.457C56.1605 121.026 58.1599 117.131 53.4055 115.847C48.6512 114.563 45.6568 118.256 47.7407 121.026C47.7407 121.026 42.9675 119.931 41.001 124.011C39.0345 128.091 41.001 130.625 41.001 130.625C41.001 130.625 32.018 130.38 32.8252 135.465C33.6325 140.55 80.5658 134.533 80.5658 134.533Z" fill="white"/>
<path d="M206.582 134.662V140.545H25.4191V134.662C25.4051 134.427 25.4431 134.192 25.5308 133.97C25.6184 133.749 25.7539 133.546 25.9291 133.374C26.1043 133.201 26.3157 133.063 26.5506 132.967C26.7855 132.871 27.0392 132.819 27.2964 132.815H204.686C204.944 132.817 205.2 132.867 205.437 132.962C205.674 133.057 205.888 133.195 206.065 133.367C206.242 133.54 206.38 133.744 206.468 133.966C206.557 134.189 206.596 134.425 206.582 134.662Z" fill="#263238"/>
<path d="M47.0085 132.815H35.7445V140.545H47.0085V132.815Z" fill="#FCC709"/>
<path d="M68.1285 132.815H57.3339V140.545H68.1285V132.815Z" fill="#FCC709"/>
<path d="M89.7177 132.815H78.4537V140.545H89.7177V132.815Z" fill="#FCC709"/>
<path d="M110.838 132.815H100.043V140.545H110.838V132.815Z" fill="#FCC709"/>
<path d="M131.958 132.815H121.163V140.545H131.958V132.815Z" fill="#FCC709"/>
<path d="M153.547 132.815H142.283V140.545H153.547V132.815Z" fill="#FCC709"/>
<path d="M174.667 132.815H163.872V140.545H174.667V132.815Z" fill="#FCC709"/>
<path d="M196.256 132.815H184.992V140.545H196.256V132.815Z" fill="#FCC709"/>
<g opacity="0.6">
<path d="M47.0085 132.815H35.7445V140.545H47.0085V132.815Z" fill="white"/>
<path d="M68.1285 132.815H57.3339V140.545H68.1285V132.815Z" fill="white"/>
<path d="M89.7177 132.815H78.4537V140.545H89.7177V132.815Z" fill="white"/>
<path d="M110.838 132.815H100.043V140.545H110.838V132.815Z" fill="white"/>
<path d="M131.958 132.815H121.163V140.545H131.958V132.815Z" fill="white"/>
<path d="M153.547 132.815H142.283V140.545H153.547V132.815Z" fill="white"/>
<path d="M174.667 132.815H163.873V140.545H174.667V132.815Z" fill="white"/>
<path d="M196.256 132.815H184.992V140.545H196.256V132.815Z" fill="white"/>
</g>
<path opacity="0.1" d="M206.582 134.662V140.545H25.4191V134.662C25.4051 134.427 25.4431 134.192 25.5308 133.97C25.6184 133.749 25.7539 133.546 25.9291 133.374C26.1043 133.201 26.3157 133.063 26.5506 132.967C26.7855 132.871 27.0392 132.819 27.2964 132.815H204.686C204.944 132.817 205.2 132.867 205.437 132.962C205.674 133.057 205.888 133.195 206.065 133.367C206.242 133.54 206.38 133.744 206.468 133.966C206.557 134.189 206.596 134.425 206.582 134.662Z" fill="white"/>
<path d="M93.1111 130.818V41.4687L125.791 37.8656L140.152 40.3693L144.846 41.1853L154.922 42.9418L161.638 41.7307L166.332 40.8847L188.437 36.9036V126.253L166.332 130.238L161.638 131.084L154.922 132.295L125.791 127.219L123.895 127.43L118.239 128.052L93.1111 130.818Z" fill="#FCC709"/>
<path opacity="0.2" d="M93.1111 130.818V41.4687L125.791 37.8656L140.152 40.3693L144.846 41.1853L154.922 42.9418L161.638 41.7307L166.332 40.8847L188.437 36.9036V126.253L166.332 130.238L161.638 131.084L154.922 132.295L125.791 127.219L123.895 127.43L118.239 128.052L93.1111 130.818Z" fill="black"/>
<path d="M161.638 86.9487V80.3092C161.639 80.1532 161.601 79.999 161.529 79.8577C161.456 79.7165 161.351 79.5917 161.219 79.4924C161.088 79.393 160.934 79.3215 160.768 79.283C160.603 79.2446 160.431 79.2401 160.263 79.2699L93.1111 91.0844V86.7082L119.755 82.027C119.912 81.9991 120.061 81.9419 120.192 81.8589C120.324 81.776 120.435 81.669 120.519 81.5448C120.603 81.4206 120.658 81.2819 120.681 81.1372C120.704 80.9926 120.694 80.8452 120.652 80.7043L115.531 63.659C115.455 63.4021 115.275 63.1812 115.027 63.0409C114.78 62.9006 114.484 62.8514 114.198 62.9031L93.1111 66.6223V62.2418L117.573 57.9257C117.859 57.8762 118.154 57.9269 118.401 58.0677C118.648 58.2086 118.828 58.4292 118.906 58.6858L125.312 80.0472C125.389 80.3039 125.569 80.5245 125.816 80.6653C126.063 80.8061 126.359 80.8568 126.645 80.8074L139.214 78.5914C139.478 78.5453 139.716 78.4163 139.888 78.2265C140.059 78.0368 140.153 77.7982 140.152 77.5521V52.4629C140.153 52.2168 140.059 51.9782 139.888 51.7885C139.716 51.5987 139.478 51.4697 139.214 51.4237L124.092 48.8727C123.963 48.8533 123.831 48.8533 123.702 48.8727L93.1111 53.2532V48.9242L123.754 44.5136C123.883 44.4921 124.015 44.4921 124.143 44.5136L138.787 46.9787C138.953 47.0071 139.125 47.0015 139.289 46.9624C139.453 46.9233 139.606 46.8516 139.736 46.7524C139.866 46.6532 139.971 46.5289 140.043 46.3884C140.115 46.2479 140.152 46.0946 140.152 45.9394V40.3693L144.846 41.1853V76.3195C144.846 76.4759 144.884 76.6302 144.957 76.7716C145.03 76.9129 145.136 77.0378 145.268 77.1375C145.4 77.2371 145.554 77.3089 145.719 77.3479C145.885 77.3869 146.058 77.3921 146.226 77.3631L160.7 74.8121C160.964 74.7668 161.203 74.638 161.375 74.4481C161.546 74.2582 161.64 74.0192 161.638 73.7728V41.7307L166.332 40.8718V72.5274C166.332 72.6836 166.37 72.8378 166.443 72.9791C166.516 73.1203 166.622 73.245 166.754 73.3443C166.886 73.4436 167.04 73.515 167.206 73.5534C167.371 73.5919 167.544 73.5964 167.712 73.5667L177.469 71.8488C177.733 71.8028 177.972 71.6738 178.143 71.484C178.314 71.2942 178.408 71.0557 178.408 70.8095V48.907C178.408 48.6614 178.501 48.4234 178.673 48.2344C178.844 48.0453 179.082 47.9171 179.346 47.872L188.451 46.1542V50.539L184.04 51.3721C183.776 51.4189 183.538 51.5482 183.367 51.7377C183.195 51.9273 183.102 52.1655 183.101 52.4114V69.5898C183.101 69.7459 183.138 69.9001 183.211 70.0413C183.283 70.1825 183.389 70.3073 183.52 70.4067C183.652 70.5061 183.806 70.5775 183.971 70.616C184.136 70.6545 184.309 70.659 184.476 70.6291L188.437 69.9334V74.2967L167.27 78.0202C167.006 78.0679 166.768 78.198 166.597 78.3883C166.426 78.5786 166.332 78.8173 166.332 79.0638V109.023C166.332 109.177 166.369 109.329 166.44 109.469C166.511 109.608 166.615 109.732 166.743 109.831C166.872 109.931 167.023 110.003 167.185 110.044C167.347 110.084 167.517 110.092 167.683 110.067L188.437 106.936V111.273L167.317 114.486C167.045 114.524 166.797 114.65 166.617 114.84C166.436 115.03 166.335 115.273 166.332 115.525V130.23L161.638 131.089V93.455C161.639 93.3008 161.602 93.1483 161.532 93.0084C161.461 92.8684 161.357 92.7444 161.228 92.6449C161.1 92.5455 160.949 92.473 160.786 92.4327C160.623 92.3923 160.453 92.3851 160.287 92.4114L142.879 95.1557C142.704 95.1837 142.537 95.2482 142.393 95.3442C142.249 95.4403 142.131 95.5653 142.048 95.7097L123.904 127.43L118.249 128.052L125.185 115.929C125.284 115.755 125.328 115.56 125.313 115.365C125.297 115.17 125.224 114.982 125.099 114.823C124.975 114.664 124.805 114.54 124.608 114.463C124.411 114.387 124.195 114.362 123.984 114.391L93.1205 118.686V114.348L128.367 109.44C128.548 109.414 128.719 109.35 128.867 109.254C129.016 109.157 129.137 109.029 129.222 108.881L138.979 91.8359C139.061 91.6923 139.178 91.5679 139.322 91.4725C139.465 91.3772 139.63 91.3134 139.805 91.2862L160.69 87.9923C160.957 87.9471 161.197 87.818 161.371 87.6273C161.544 87.4367 161.639 87.1966 161.638 86.9487Z" fill="#FCC709"/>
<path d="M154.913 130.127L126.251 125.111L125.894 125.046L125.528 125.089L123.651 125.3L118.019 125.922L95.4577 128.409V43.3756L125.706 40.043L139.711 42.4823L144.405 43.2983L154.481 45.0548L154.95 45.1321L155.396 45.0548L162.112 43.8437L166.806 42.9848L186.091 39.5104V124.488L165.877 128.134L161.183 128.993L154.913 130.127ZM154.913 132.313L161.629 131.102L166.322 130.243L188.437 126.262V36.9337L166.332 40.9148L161.638 41.7737L154.922 42.9461L144.846 41.1896L140.152 40.3736L125.781 37.8656L93.1017 41.4688V130.818L118.23 128.052L123.904 127.43L125.781 127.219L154.913 132.295V132.313Z" fill="#263238"/>
<path opacity="0.1" d="M154.913 130.127L126.251 125.111L125.894 125.046L125.528 125.089L123.651 125.3L118.019 125.922L95.4577 128.409V43.3756L125.706 40.043L139.711 42.4823L144.405 43.2983L154.481 45.0548L154.95 45.1321L155.396 45.0548L162.112 43.8437L166.806 42.9848L186.091 39.5104V124.488L165.877 128.134L161.183 128.993L154.913 130.127ZM154.913 132.313L161.629 131.102L166.322 130.243L188.437 126.262V36.9337L166.332 40.9148L161.638 41.7737L154.922 42.9461L144.846 41.1896L140.152 40.3736L125.781 37.8656L93.1017 41.4688V130.818L118.23 128.052L123.904 127.43L125.781 127.219L154.913 132.295V132.313Z" fill="white"/>
<path opacity="0.1" d="M154.922 132.295V42.9418L125.791 37.8655V127.219L154.922 132.295Z" fill="black"/>
<g opacity="0.5">
<path d="M176.667 73.9317C176.791 73.9214 176.915 73.9568 177.011 74.0301C177.107 74.1034 177.167 74.2086 177.178 74.3225C177.189 74.4364 177.151 74.5497 177.07 74.6375C176.99 74.7253 176.875 74.7803 176.751 74.7906L164.454 76.8091V89.6499C164.456 89.7523 164.418 89.8517 164.346 89.9305C164.275 90.0092 164.175 90.062 164.065 90.0794L141.068 93.7084L129.733 113.378C129.705 113.429 129.667 113.475 129.619 113.512C129.572 113.549 129.517 113.578 129.457 113.595C129.398 113.613 129.335 113.62 129.273 113.615C129.21 113.61 129.15 113.594 129.094 113.567C129.039 113.54 128.99 113.504 128.95 113.46C128.911 113.416 128.881 113.364 128.863 113.31C128.845 113.255 128.839 113.197 128.846 113.14C128.853 113.083 128.872 113.028 128.902 112.978L140.359 93.0985C140.392 93.0405 140.439 92.9902 140.497 92.9515C140.555 92.9128 140.622 92.8867 140.692 92.8752L163.516 89.2677V76.444C163.514 76.3423 163.552 76.2433 163.622 76.1647C163.693 76.0861 163.791 76.0329 163.901 76.0146L176.573 73.9317H176.667Z" fill="white"/>
<path d="M128.433 113.193C128.432 113.032 128.484 112.875 128.581 112.74C128.678 112.606 128.816 112.502 128.979 112.44C129.141 112.378 129.32 112.361 129.492 112.392C129.665 112.424 129.823 112.501 129.947 112.615C130.072 112.729 130.156 112.874 130.19 113.031C130.224 113.189 130.206 113.353 130.139 113.501C130.071 113.65 129.957 113.777 129.81 113.865C129.663 113.954 129.491 114.001 129.315 114C129.082 113.999 128.858 113.914 128.693 113.763C128.528 113.612 128.434 113.407 128.433 113.193Z" fill="white"/>
<path d="M175.784 74.3611C175.783 74.2002 175.834 74.0427 175.931 73.9086C176.029 73.7744 176.167 73.6697 176.329 73.6078C176.492 73.5458 176.67 73.5294 176.843 73.5606C177.015 73.5917 177.174 73.6691 177.298 73.7829C177.423 73.8967 177.507 74.0417 177.541 74.1995C177.575 74.3574 177.557 74.521 177.49 74.6694C177.422 74.8179 177.307 74.9447 177.161 75.0335C177.014 75.1224 176.842 75.1694 176.666 75.1685C176.432 75.1685 176.208 75.0835 176.042 74.932C175.877 74.7806 175.784 74.5753 175.784 74.3611Z" fill="white"/>
</g>
<path d="M129.775 100.528C129.284 100.078 128.701 99.7209 128.058 99.4772C127.416 99.2335 126.728 99.1081 126.032 99.1081C125.337 99.1081 124.649 99.2335 124.006 99.4772C123.364 99.7209 122.781 100.078 122.289 100.528C121.798 100.978 121.408 101.511 121.142 102.099C120.877 102.686 120.74 103.315 120.74 103.951C120.74 104.587 120.877 105.216 121.142 105.803C121.408 106.391 121.798 106.924 122.289 107.374L126.044 110.81L129.799 107.374C130.288 106.923 130.676 106.388 130.94 105.8C131.204 105.212 131.339 104.582 131.337 103.947C131.334 103.311 131.195 102.682 130.928 102.095C130.66 101.509 130.268 100.976 129.775 100.528ZM124.509 105.342C124.208 105.067 124.003 104.716 123.92 104.333C123.836 103.951 123.879 103.554 124.042 103.194C124.205 102.834 124.481 102.526 124.835 102.309C125.19 102.093 125.606 101.977 126.032 101.977C126.458 101.977 126.875 102.093 127.229 102.309C127.584 102.526 127.86 102.834 128.023 103.194C128.186 103.554 128.228 103.951 128.145 104.333C128.062 104.716 127.857 105.067 127.555 105.342C127.356 105.526 127.118 105.672 126.857 105.771C126.596 105.87 126.315 105.921 126.032 105.921C125.749 105.921 125.469 105.87 125.208 105.771C124.946 105.672 124.709 105.526 124.509 105.342Z" fill="white"/>
<path opacity="0.2" d="M129.775 100.528C129.28 100.074 128.691 99.715 128.042 99.4716C127.394 99.2283 126.698 99.1057 125.997 99.1111V101.984C126.288 101.972 126.578 102.013 126.85 102.106C127.123 102.2 127.371 102.342 127.582 102.526C127.792 102.71 127.96 102.93 128.074 103.175C128.188 103.42 128.247 103.683 128.247 103.949C128.247 104.215 128.188 104.478 128.074 104.723C127.96 104.967 127.792 105.188 127.582 105.372C127.371 105.556 127.123 105.698 126.85 105.791C126.578 105.885 126.288 105.926 125.997 105.914V110.767L126.03 110.797L129.785 107.361C130.772 106.453 131.325 105.224 131.323 103.943C131.321 102.662 130.765 101.434 129.775 100.528Z" fill="black"/>
<path d="M180.407 60.8889C179.916 60.4394 179.333 60.0828 178.691 59.8395C178.049 59.5962 177.361 59.4709 176.666 59.4709C175.972 59.4709 175.284 59.5962 174.642 59.8395C174 60.0828 173.417 60.4394 172.926 60.8889C171.934 61.798 171.378 63.0297 171.378 64.3139C171.378 65.5981 171.934 66.8298 172.926 67.7389L176.68 71.1745L180.435 67.7389C180.925 67.2876 181.313 66.7524 181.577 66.1638C181.841 65.5752 181.976 64.9448 181.973 64.3086C181.97 63.6723 181.831 63.0429 181.562 62.4561C181.293 61.8693 180.901 61.3368 180.407 60.8889ZM175.146 65.7075C174.844 65.4321 174.638 65.0809 174.554 64.6983C174.47 64.3157 174.512 63.919 174.675 63.5584C174.838 63.1979 175.114 62.8896 175.469 62.6727C175.823 62.4558 176.24 62.34 176.666 62.34C177.093 62.34 177.509 62.4558 177.864 62.6727C178.218 62.8896 178.494 63.1979 178.657 63.5584C178.82 63.919 178.862 64.3157 178.779 64.6983C178.695 65.0809 178.489 65.4321 178.187 65.7075C177.783 66.0757 177.236 66.2825 176.666 66.2825C176.096 66.2825 175.549 66.0757 175.146 65.7075Z" fill="white"/>
<path opacity="0.2" d="M180.407 60.8889C179.914 60.4384 179.328 60.0816 178.684 59.8391C178.04 59.5966 177.349 59.4732 176.652 59.476V62.3491C176.943 62.3367 177.233 62.3783 177.505 62.4714C177.778 62.5645 178.026 62.7073 178.237 62.8909C178.447 63.0746 178.615 63.2954 178.729 63.54C178.843 63.7846 178.902 64.0478 178.902 64.3139C178.902 64.5799 178.843 64.8432 178.729 65.0878C178.615 65.3323 178.447 65.5532 178.237 65.7368C178.026 65.9205 177.778 66.0632 177.505 66.1563C177.233 66.2495 176.943 66.2911 176.652 66.2787V71.1316L176.685 71.1616L180.44 67.7259C181.425 66.8146 181.975 65.583 181.968 64.3012C181.962 63.0195 181.401 61.7923 180.407 60.8889Z" fill="black"/>
<path d="M43.1927 146.012L45.7929 148.413L52.0772 143.109L49.4771 140.704L43.1927 146.012Z" fill="#EEC1BB"/>
<path d="M46.4641 148.469L43.3101 145.557C43.2579 145.51 43.1897 145.48 43.1165 145.472C43.0433 145.464 42.9693 145.479 42.9065 145.514L40.0624 147.155C39.9409 147.227 39.8554 147.34 39.8247 147.47C39.7939 147.599 39.8203 147.734 39.8981 147.846C39.9205 147.877 39.9456 147.905 39.9732 147.932C41.0104 148.86 41.8177 149.487 43.0989 150.672C43.8874 151.402 46.1872 153.678 47.276 154.683C48.3649 155.688 49.5945 154.838 49.2519 154.335C47.689 152.085 46.7926 150.14 46.7316 149.023C46.7234 148.814 46.6276 148.615 46.4641 148.469Z" fill="#263238"/>
<path opacity="0.2" d="M49.4771 140.709L52.0725 143.109L48.8294 145.845L46.234 143.444L49.4771 140.709Z" fill="black"/>
<path d="M46.2716 148.963C46.2613 148.95 46.2557 148.934 46.2557 148.918C46.2557 148.902 46.2613 148.886 46.2716 148.873C46.2811 148.86 46.2951 148.85 46.3113 148.845C46.3275 148.841 46.3449 148.841 46.3608 148.847C46.5157 148.877 47.872 149.182 48.0081 149.581C48.0262 149.625 48.0295 149.672 48.0178 149.717C48.0061 149.762 47.9798 149.803 47.9424 149.835C47.8894 149.901 47.8179 149.953 47.7353 149.986C47.6528 150.018 47.5622 150.03 47.4731 150.019C47.2252 149.977 47.0012 149.857 46.8395 149.68C46.6213 149.461 46.4308 149.221 46.2716 148.963ZM46.5344 149.049C46.7334 149.423 47.0809 149.713 47.5059 149.86C47.5641 149.865 47.6226 149.856 47.6759 149.834C47.7292 149.812 47.7757 149.778 47.811 149.736C47.8579 149.689 47.8626 149.646 47.8439 149.633C47.8329 149.598 47.8118 149.567 47.7829 149.543C47.4052 149.306 46.9813 149.139 46.5344 149.049Z" fill="#FCC709"/>
<path d="M46.2387 148.959C46.2365 148.945 46.2378 148.93 46.2427 148.917C46.2476 148.903 46.2559 148.891 46.2669 148.881C46.3044 148.851 47.1211 148.224 47.6749 148.28C47.7418 148.284 47.8069 148.301 47.866 148.33C47.9251 148.359 47.9768 148.399 48.0175 148.448C48.0631 148.491 48.0912 148.548 48.0972 148.608C48.1031 148.668 48.0866 148.728 48.0504 148.778C47.8251 149.079 46.7315 149.122 46.3185 149.01L46.2857 148.98C46.2767 148.98 46.2678 148.977 46.2598 148.974C46.2517 148.97 46.2445 148.965 46.2387 148.959ZM47.6749 148.422C47.2564 148.464 46.8627 148.625 46.5485 148.881C47.0178 148.941 47.7875 148.851 47.9236 148.667C47.9236 148.667 47.9753 148.602 47.8955 148.529L47.8673 148.499C47.8159 148.452 47.7473 148.425 47.6749 148.422Z" fill="#FCC709"/>
<path d="M85.7143 60.2147C85.7143 60.2147 91.5763 68.8039 92.6886 69.8819C93.8009 70.9598 101.137 59.7251 101.709 58.2263C102.282 56.7275 109.617 56.6845 110.12 56.8778C110.622 57.0711 110.284 60.3135 108.876 60.9792C107.468 61.6448 102.629 61.473 102.629 61.473C102.629 61.473 98.3675 74.0348 93.355 74.6747C88.3426 75.3146 82.8795 63.9596 82.8795 63.9596L85.7143 60.2147Z" fill="#EEC1BB"/>
<path d="M81.4153 55.9459C85.0949 56.5472 89.9196 65.6389 89.9196 65.6389L85.6674 70.7323L80.3781 66.137L81.4153 55.9459Z" fill="#FCC709"/>
<path opacity="0.4" d="M89.9195 65.6389L85.6674 70.7323L85.5266 70.6077L80.3639 66.1456L80.4296 65.4928L81.4011 55.9459C85.0948 56.5472 89.9195 65.6389 89.9195 65.6389Z" fill="white"/>
<path opacity="0.2" d="M85.5266 70.6077L80.3639 66.1456L80.4296 65.4928L82.2178 62.1817C82.2178 62.1817 85.5031 65.0935 85.5266 70.6077Z" fill="black"/>
<path d="M80.378 85.6689C80.378 85.6689 71.6719 115.418 65.7067 127.12C59.7414 138.823 51.3404 144.96 51.3404 144.96L47.4496 140.571C47.4496 140.571 58.3851 126.339 60.7552 117.556C63.1253 108.774 63.9185 90.6163 63.9185 90.6163L80.378 85.6689Z" fill="#263238"/>
<path opacity="0.2" d="M80.378 85.6689C80.378 85.6689 71.6719 115.418 65.7067 127.12C59.7414 138.823 51.3404 144.96 51.3404 144.96L47.4496 140.571C47.4496 140.571 58.3851 126.339 60.7552 117.556C63.1253 108.774 63.9185 90.6163 63.9185 90.6163L80.378 85.6689Z" fill="black"/>
<path d="M82.9453 152.618L86.4465 151.548L84.0295 144.041L80.5236 145.111L82.9453 152.618Z" fill="#EEC1BB"/>
<path d="M86.7938 151.029L82.5417 152.317C82.4726 152.34 82.4138 152.383 82.3747 152.44C82.3355 152.496 82.3183 152.564 82.3258 152.63L82.6778 155.693C82.6966 155.822 82.77 155.939 82.8823 156.02C82.9946 156.1 83.1369 156.137 83.2785 156.122C83.3186 156.117 83.358 156.109 83.3959 156.096C84.7616 155.667 85.7425 155.272 87.465 154.743C88.5304 154.421 91.7735 153.541 93.2425 153.094C94.7115 152.648 94.4205 151.256 93.7775 151.321C90.8817 151.604 88.5773 151.48 87.4556 151.033C87.2437 150.954 87.007 150.953 86.7938 151.029Z" fill="#263238"/>
<path opacity="0.2" d="M80.5282 145.115L84.0294 144.046L85.2732 147.915L81.7719 148.984L80.5282 145.115Z" fill="black"/>
<path d="M87.1975 151.398C87.1797 151.4 87.1616 151.396 87.1463 151.388C87.131 151.379 87.1192 151.366 87.113 151.351C87.1024 151.338 87.0966 151.323 87.0966 151.308C87.0966 151.292 87.1024 151.277 87.113 151.265C87.2069 151.153 88.108 150.174 88.5633 150.238C88.6136 150.244 88.6611 150.263 88.7001 150.293C88.7392 150.322 88.7682 150.362 88.7839 150.406C88.8211 150.479 88.838 150.56 88.8331 150.641C88.8282 150.722 88.8016 150.8 88.7557 150.87C88.6047 151.052 88.389 151.181 88.1456 151.235C87.8368 151.32 87.519 151.375 87.1975 151.398ZM87.3993 151.218C87.8526 151.223 88.2909 151.069 88.6243 150.788C88.6518 150.741 88.6662 150.689 88.6662 150.636C88.6662 150.582 88.6518 150.53 88.6243 150.483C88.5961 150.423 88.5586 150.402 88.5351 150.41C88.4988 150.398 88.4588 150.398 88.4225 150.41C88.0286 150.617 87.6814 150.891 87.3993 151.218Z" fill="#FCC709"/>
<path d="M87.1833 151.419C87.1675 151.417 87.1528 151.411 87.141 151.401C87.1293 151.391 87.1211 151.378 87.1176 151.364C87.1176 151.316 86.8547 150.371 87.1457 149.946C87.1796 149.893 87.2257 149.847 87.2807 149.811C87.3358 149.776 87.3986 149.752 87.4649 149.74C87.5277 149.721 87.596 149.722 87.6578 149.744C87.7196 149.766 87.771 149.807 87.8028 149.86C87.9999 150.174 87.5587 151.093 87.2631 151.385H87.2208C87.2133 151.4 87.1999 151.412 87.1833 151.419ZM87.2865 150.002C87.1471 150.366 87.1307 150.759 87.2396 151.132C87.5071 150.775 87.7605 150.105 87.6385 149.908C87.6385 149.908 87.5963 149.835 87.493 149.869H87.4508C87.3834 149.895 87.3284 149.942 87.2959 150.002H87.2865Z" fill="#FCC709"/>
<path d="M60.7599 83.7148C59.4147 89.3025 59.545 95.1032 61.1401 100.636C63.1629 107.284 80.4391 147.516 80.4391 147.516L86.4466 145.935L73.7417 98.0674C73.7417 98.0674 78.4913 91.9133 80.3781 85.6689L60.7599 83.7148Z" fill="#263238"/>
<path d="M87.4275 146.575L79.8759 148.881L77.9939 146.511L86.9112 144.286L87.4275 146.575Z" fill="#FCC709"/>
<path opacity="0.3" d="M87.4275 146.575L79.8759 148.881L77.9939 146.511L86.9112 144.286L87.4275 146.575Z" fill="white"/>
<path d="M51.0965 147.017L45.4973 141.842L46.9851 139.248L53.1099 145.579L51.0965 147.017Z" fill="#FCC709"/>
<path opacity="0.3" d="M51.0965 147.017L45.4973 141.842L46.9851 139.248L53.1099 145.579L51.0965 147.017Z" fill="white"/>
<path d="M63.0737 54.3998C63.4358 58.1629 63.4907 61.9455 63.238 65.7161C63.0784 68.3487 62.7968 70.8353 62.487 73.0899C61.7643 78.3637 58.8215 88.1468 58.8215 88.1468L73.9857 91.7973L75.3608 85.6688L76.7688 91.7973L79.7867 90.1009C84.48 76.4741 84.602 62.727 84.0107 58.776C83.9165 58.1255 83.6207 57.5132 83.1582 57.0117C82.6958 56.5102 82.0861 56.1403 81.4012 55.9458C80.7112 55.7483 79.9087 55.5164 79.0545 55.3446C78.7213 55.2888 78.3974 55.2072 78.0595 55.1471C75.298 54.7213 72.5117 54.4431 69.7148 54.3139C69.1891 54.2838 68.6494 54.271 68.1237 54.2624C66.4389 54.2278 64.7533 54.2737 63.0737 54.3998Z" fill="#FCC709"/>
<path opacity="0.4" d="M79.7867 90.1009L76.7782 91.7973L75.3702 85.6689L73.9951 91.7973L58.8309 88.1469C58.8309 88.1469 61.7737 78.3638 62.4964 73.09C62.5715 72.5532 62.6419 72.0035 62.7123 71.4409C62.9329 69.6414 63.1253 67.7217 63.2474 65.7161C63.3225 64.6167 63.3694 63.513 63.3882 62.4136C63.4415 59.7393 63.3397 57.0643 63.0831 54.3998C64.7689 54.2731 66.4608 54.2273 68.1519 54.2624C68.6775 54.2624 69.2173 54.2839 69.7429 54.314C72.5398 54.4432 75.3261 54.7214 78.0877 55.1471C78.4256 55.2072 78.7494 55.2888 79.0827 55.3447C79.9322 55.5336 80.7347 55.7484 81.4293 55.9459C82.1142 56.1404 82.724 56.5102 83.1864 57.0118C83.6488 57.5133 83.9446 58.1255 84.0388 58.7761C84.5973 62.7271 84.48 76.4741 79.7867 90.1009Z" fill="white"/>
<path d="M71.5828 45.7762C71.8175 48.2886 71.8081 52.8409 69.7336 54.2925C70.4668 55.1628 71.3954 55.8792 72.4568 56.3933C73.5182 56.9075 74.6878 57.2074 75.8866 57.2729C78.2004 57.4576 78.4961 55.9845 78.0784 55.1256C75.1591 54.1722 75.4783 52.1495 76.2292 50.2899L71.5828 45.7762Z" fill="#EEC1BB"/>
<path opacity="0.2" d="M73.4789 47.6229L76.2245 50.2856C76.0455 50.7181 75.9058 51.1634 75.8068 51.6169C74.6804 51.3549 73.2536 50.0494 73.2583 48.9414C73.2396 48.4931 73.3145 48.0456 73.4789 47.6229Z" fill="black"/>
<path d="M71.7 42.0529C71.5216 45.3984 71.2306 47.3481 72.878 49.2292C75.3373 52.0722 80.0025 50.9942 81.2744 47.7604C82.4102 44.8487 82.4993 39.8626 79.0967 38.1877C78.3474 37.8122 77.5054 37.6188 76.6512 37.6257C75.797 37.6327 74.9589 37.8399 74.2171 38.2276C73.4753 38.6152 72.8544 39.1704 72.4137 39.84C71.9731 40.5097 71.7273 41.2716 71.7 42.0529Z" fill="#EEC1BB"/>
<path d="M77.1021 43.5302C77.0504 43.7965 77.2006 44.037 77.3977 44.0542C77.5949 44.0713 77.7732 43.8695 77.8061 43.5989C77.8389 43.3284 77.7075 43.0922 77.5151 43.075C77.3226 43.0578 77.1396 43.2597 77.1021 43.5302Z" fill="#263238"/>
<path d="M80.4483 43.8652C80.3967 44.1315 80.5515 44.3677 80.7393 44.3891C80.927 44.4106 81.1147 44.2002 81.1523 43.9296C81.1898 43.659 81.049 43.4271 80.8566 43.4057C80.6642 43.3842 80.4811 43.6075 80.4483 43.8652Z" fill="#263238"/>
<path d="M79.369 43.8909C79.6233 44.754 80.0071 45.5807 80.5094 46.3474C80.2904 46.4601 80.0472 46.5277 79.7968 46.5455C79.5463 46.5633 79.2946 46.5309 79.0592 46.4505L79.369 43.8909Z" fill="#D4827D"/>
<path d="M76.1822 42.4393C76.2139 42.4459 76.2468 42.445 76.278 42.4367C76.3092 42.4284 76.3376 42.4131 76.3605 42.3921C76.506 42.2418 76.6879 42.1247 76.8916 42.0501C77.0953 41.9756 77.3153 41.9456 77.5339 41.9626C77.5564 41.9663 77.5795 41.9659 77.6018 41.9615C77.6241 41.957 77.6453 41.9485 77.664 41.9366C77.6828 41.9246 77.6988 41.9094 77.7111 41.8917C77.7234 41.8741 77.7317 41.8544 77.7357 41.8338C77.7404 41.8131 77.7405 41.7918 77.7359 41.7712C77.7313 41.7505 77.7221 41.7309 77.7089 41.7136C77.6957 41.6963 77.6788 41.6817 77.6592 41.6706C77.6396 41.6595 77.6177 41.6522 77.5949 41.6491C77.3199 41.6196 77.0412 41.651 76.7823 41.7407C76.5234 41.8304 76.2918 41.9757 76.1071 42.1645C76.075 42.1942 76.057 42.2343 76.057 42.2761C76.057 42.3179 76.075 42.3581 76.1071 42.3878L76.1822 42.4393Z" fill="#263238"/>
<path d="M77.5291 47.5457C77.1066 47.469 76.7106 47.3001 76.3748 47.0533C76.039 46.8066 75.7732 46.4893 75.6001 46.1284C75.5936 46.1073 75.5958 46.0848 75.6061 46.065C75.6165 46.0453 75.6344 46.0296 75.6564 46.0211C75.6672 46.0168 75.6788 46.0146 75.6905 46.0144C75.7023 46.0143 75.7139 46.0162 75.7248 46.0202C75.7357 46.0242 75.7457 46.0301 75.7541 46.0377C75.7625 46.0452 75.7692 46.0541 75.7738 46.064C75.9444 46.3911 76.1955 46.6776 76.5074 46.9011C76.8192 47.1247 77.1834 47.2791 77.5713 47.3524C77.5831 47.354 77.5944 47.3577 77.6046 47.3633C77.6148 47.3689 77.6236 47.3763 77.6306 47.3852C77.6376 47.394 77.6426 47.404 77.6453 47.4146C77.648 47.4252 77.6484 47.4361 77.6464 47.4469C77.6447 47.4577 77.6406 47.468 77.6345 47.4773C77.6283 47.4866 77.6202 47.4947 77.6106 47.5011C77.601 47.5076 77.59 47.5121 77.5785 47.5146C77.5669 47.5171 77.5549 47.5174 77.5431 47.5156L77.5291 47.5457Z" fill="#263238"/>
<path d="M82.0112 42.9461C82.0446 42.9569 82.0811 42.9569 82.1145 42.9461C82.1573 42.9315 82.1924 42.9024 82.2125 42.8649C82.2326 42.8273 82.2361 42.7841 82.2224 42.7443C82.1344 42.5032 81.9845 42.2849 81.7852 42.1078C81.586 41.9307 81.3432 41.7999 81.0773 41.7264C81.0326 41.7186 80.9863 41.7267 80.9479 41.749C80.9095 41.7714 80.8819 41.8063 80.8707 41.8467C80.8618 41.8875 80.8698 41.93 80.8933 41.9657C80.9167 42.0015 80.9539 42.0279 80.9975 42.0399C81.2061 42.1026 81.3958 42.209 81.5514 42.3507C81.7071 42.4924 81.8243 42.6654 81.8939 42.8559C81.904 42.8785 81.9199 42.8986 81.9404 42.9143C81.9608 42.93 81.9851 42.9409 82.0112 42.9461Z" fill="#263238"/>
<path d="M72.3196 44.883C72.3196 44.883 74.6334 42.1473 74.0421 39.6264C75.3041 39.4757 76.5831 39.7489 77.6419 40.3951C77.6661 40.0056 77.6393 39.6149 77.5621 39.2313C77.5621 39.2313 80.8474 39.4417 82.4478 41.3485C82.4283 40.2365 82.0112 39.161 81.2604 38.2864C81.7453 38.2072 82.245 38.261 82.6966 38.441C82.6966 38.441 80.073 35.9115 75.2717 36.5772C70.4705 37.2428 68.6494 39.6306 69.1704 43.5302C69.6914 47.4297 71.7658 48.5291 71.7658 48.5291C71.7658 48.5291 71.2636 45.5486 71.564 44.9302C71.8644 44.3118 72.3196 44.883 72.3196 44.883Z" fill="#263238"/>
<path d="M69.6256 45.5572C70.0303 46.3136 70.7457 46.8926 71.6156 47.1677C72.7701 47.5242 73.4131 46.5879 73.1503 45.5615C72.9015 44.6468 72.0145 43.3326 70.8036 43.4142C69.5927 43.4958 69.1422 44.621 69.6256 45.5572Z" fill="#EEC1BB"/>
<path d="M79.1016 36.6459C77.9648 36.8163 76.8466 37.0779 75.7599 37.4275C74.9824 37.6777 74.2289 37.9866 73.5071 38.3509C69.9731 40.1331 69.0719 42.435 69.0719 42.435C69.0719 42.435 68.9593 42.143 68.8091 41.6878C68.6589 41.2325 68.4571 40.6399 68.2741 40.0215C67.9221 38.8619 67.6311 37.6508 67.8047 37.303C69.3113 34.198 74.0891 33.3262 74.7321 33.4979C75.1217 33.6053 76.6094 34.7133 77.7499 35.5851C78.3272 36.0146 78.8106 36.4011 79.0124 36.5643L79.1016 36.6459Z" fill="#FCC709"/>
<path opacity="0.6" d="M78.9983 36.5643C77.8847 36.7293 76.7972 37.0177 75.7599 37.4233C75.1028 37.6638 74.3519 37.9687 73.5071 38.3466C70.8272 39.5405 69.4802 40.7387 68.8137 41.6835C68.6588 41.2326 68.4617 40.6356 68.2787 40.0172C69.5975 38.8061 73.1269 35.9889 77.7498 35.5809C78.313 36.0189 78.7965 36.4011 78.9983 36.5643Z" fill="white"/>
<path d="M69.1563 43.5302C69.1563 43.5302 65.9367 45.5959 65.7348 44.4965C65.2139 41.6749 73.7558 35.4778 82.0911 35.6238C88.9387 35.7398 81.5748 37.6552 81.5748 37.6552C78.848 36.7919 68.9404 40.7344 69.1563 43.5302Z" fill="#FCC709"/>
<path opacity="0.3" d="M69.1563 43.5302C69.1563 43.5302 65.9367 45.5959 65.7348 44.4965C65.2139 41.6749 73.7558 35.4778 82.0911 35.6238C88.9387 35.7398 81.5748 37.6552 81.5748 37.6552C78.848 36.7919 68.9404 40.7344 69.1563 43.5302Z" fill="black"/>
<path d="M70.1466 52.639C70.1466 52.639 71.7612 54.1765 75.5956 55.8299C75.5956 55.8299 76.5061 55.19 76.6234 53.2532L79.0734 55.3618L78.5289 58.8963L76.9004 57.2514L76.0555 67.5242C76.0555 67.5242 76.5859 60.6528 74.7414 57.5821L73.5071 59.3257C73.5071 59.3257 69.0484 57.9128 67.7437 54.2667L70.1466 52.639Z" fill="#FCC709"/>
<path opacity="0.6" d="M79.0734 55.3446L78.5289 58.8791L76.9004 57.2343L76.0555 67.507C76.0555 67.507 76.5859 60.6356 74.7414 57.5649L73.5071 59.3086C73.5071 59.3086 69.0484 57.8956 67.7437 54.2495L70.1466 52.639C70.1466 52.639 71.7612 54.1765 75.5956 55.8299C75.6989 55.7526 76.5061 55.0784 76.6141 53.2532L79.0734 55.3446Z" fill="white"/>
<path opacity="0.2" d="M76.2245 61.1767C76.0884 58.6 75.5956 55.8299 75.5956 55.8299C75.6988 55.7526 76.5061 55.0784 76.614 53.2532C76.7552 53.6204 76.8036 54.0121 76.7557 54.3989C76.7077 54.7856 76.5646 55.1574 76.3371 55.4864L76.2245 61.1767Z" fill="black"/>
<path d="M55.8506 90.7237C56.2549 91.4023 56.4679 92.1625 56.4701 92.9354C56.5311 94.3483 56.2167 97.1184 55.8506 97.4662C55.6347 97.6681 52.0255 96.7404 51.6735 95.9202C51.514 95.5465 52.1429 91.7458 52.8797 90.7237C53.6166 89.7016 55.8506 90.7237 55.8506 90.7237Z" fill="#EEC1BB"/>
<path opacity="0.2" d="M67.6263 63.3841C67.6263 63.3841 65.9273 69.3966 62.703 71.4408C62.9236 69.6413 63.116 67.7217 63.238 65.7161C63.3131 64.6166 63.3601 63.5129 63.3788 62.4135L67.6263 63.3841Z" fill="black"/>
<path d="M58.8216 62.1817C58.8216 62.1817 54.4615 69.2034 53.659 71.5826C52.8564 73.9618 52.8705 90.7237 52.8705 90.7237H55.8508C55.8508 90.7237 57.7281 74.0735 58.8216 71.9219C59.9152 69.7703 63.9186 64.81 63.9186 64.81L58.8216 62.1817Z" fill="#EEC1BB"/>
<path d="M63.8294 54.3568C61.8347 54.0648 56.4796 64.767 56.4796 64.767L62.1116 68.0008C62.1116 68.0008 65.7912 64.8657 67.6169 63.3841C69.4426 61.9024 67.0678 54.8335 63.8294 54.3568Z" fill="#FCC709"/>
<path opacity="0.4" d="M63.8294 54.3568C61.8347 54.0648 56.4796 64.767 56.4796 64.767L62.1116 68.0008C62.1116 68.0008 65.7912 64.8657 67.6169 63.3841C69.4426 61.9024 67.0678 54.8335 63.8294 54.3568Z" fill="white"/>
<path d="M56.4703 64.024L63.0692 68.0009L61.6048 69.2033L55.757 65.7204L56.4703 64.024Z" fill="#FCC709"/>
<path opacity="0.6" d="M56.4703 64.024L63.0692 68.0009L61.6048 69.2033L55.757 65.7204L56.4703 64.024Z" fill="white"/>
<path d="M84.5599 70.3672L89.6006 64.8014L90.7504 66.2616L86.3293 71.2004L84.5599 70.3672Z" fill="#FCC709"/>
<path opacity="0.6" d="M84.5599 70.3672L89.6006 64.8014L90.7504 66.2616L86.3293 71.2004L84.5599 70.3672Z" fill="white"/>
<path d="M103.854 57.1828L108.829 50.8697C108.862 50.829 108.907 50.7974 108.958 50.7785C109.009 50.7595 109.065 50.754 109.12 50.7623L112.368 51.2863C112.418 51.2939 112.465 51.3132 112.505 51.3424C112.544 51.3715 112.575 51.4095 112.594 51.4527C112.613 51.4958 112.619 51.5427 112.612 51.5888C112.606 51.6349 112.586 51.6786 112.556 51.7157L107.477 58.0374C107.445 58.0781 107.4 58.1094 107.348 58.1276C107.297 58.1459 107.241 58.1504 107.186 58.1405L104.051 57.6037C104.002 57.5965 103.955 57.578 103.916 57.5499C103.876 57.5218 103.845 57.485 103.826 57.443C103.806 57.401 103.798 57.3551 103.803 57.3095C103.808 57.264 103.826 57.2204 103.854 57.1828Z" fill="#263238"/>
<path d="M103.497 57.0023L108.472 50.6892C108.505 50.6478 108.549 50.6156 108.601 50.5966C108.652 50.5776 108.709 50.5725 108.763 50.5819L112.011 51.1015C112.061 51.1092 112.108 51.1285 112.148 51.1576C112.187 51.1868 112.218 51.2248 112.237 51.2679C112.256 51.3111 112.262 51.3579 112.256 51.404C112.249 51.4501 112.229 51.4938 112.199 51.531L107.111 57.8612C107.078 57.9015 107.033 57.9325 106.982 57.9508C106.93 57.969 106.874 57.9737 106.82 57.9643L103.685 57.4275C103.636 57.4195 103.59 57.4001 103.551 57.3712C103.512 57.3424 103.481 57.3049 103.463 57.2624C103.444 57.2199 103.437 57.1738 103.443 57.1283C103.449 57.0828 103.468 57.0394 103.497 57.0023Z" fill="#263238"/>
<path d="M108.674 50.8997L111.786 51.4065L106.816 57.522L103.798 57.0152L108.674 50.8997Z" fill="white"/>
<path d="M121.862 26.9487C121.863 24.7277 121.165 22.5536 119.85 20.6867C118.536 18.8197 116.661 17.3391 114.45 16.4221C112.24 15.505 109.787 15.1905 107.386 15.5162C104.985 15.8418 102.738 16.7938 100.913 18.2582C99.0882 19.7225 97.7633 21.6371 97.0971 23.7728C96.4309 25.9084 96.4515 28.1745 97.1566 30.2996C97.8616 32.4248 99.2212 34.3189 101.072 35.7552C102.924 37.1916 105.188 38.1091 107.595 38.3981L108.205 44.4664L109.369 38.4969C112.693 38.4652 115.87 37.2347 118.209 35.0725C120.549 32.9104 121.861 29.9911 121.862 26.9487Z" fill="#FCC709"/>
<path opacity="0.8" d="M121.862 26.9487C121.863 24.7277 121.165 22.5536 119.85 20.6867C118.536 18.8197 116.661 17.3391 114.45 16.4221C112.24 15.505 109.787 15.1905 107.386 15.5162C104.985 15.8418 102.738 16.7938 100.913 18.2582C99.0882 19.7225 97.7633 21.6371 97.0971 23.7728C96.4309 25.9084 96.4515 28.1745 97.1566 30.2996C97.8616 32.4248 99.2212 34.3189 101.072 35.7552C102.924 37.1916 105.188 38.1091 107.595 38.3981L108.205 44.4664L109.369 38.4969C112.693 38.4652 115.87 37.2347 118.209 35.0725C120.549 32.9104 121.861 29.9911 121.862 26.9487Z" fill="white"/>
<path d="M115.395 26.9487L103.08 22.2375L105.098 26.9487L103.08 31.6556L115.395 26.9487Z" fill="#FCC709"/>
<path opacity="0.3" d="M105.098 26.9486H115.395L103.08 31.6555L105.098 26.9486Z" fill="black"/>
</svg>
