<svg width="22" height="22" viewBox="0 0 22 22" fill="none" xmlns="http://www.w3.org/2000/svg">
<path d="M15.4537 1.6514H14.1974L14.1976 1.04975C14.1997 0.978352 14.1729 0.90909 14.1231 0.857758C14.0734 0.806425 14.0049 0.777474 13.9335 0.777474C13.862 0.777474 13.7935 0.806429 13.7438 0.857758C13.6941 0.909086 13.6672 0.978352 13.6695 1.04975V1.65123H11.4152V1.04975C11.4174 0.978352 11.3905 0.90909 11.3407 0.857758C11.291 0.806425 11.2226 0.777474 11.1512 0.777474C11.0796 0.777474 11.0112 0.806429 10.9615 0.857758C10.9118 0.909086 10.885 0.978352 10.8871 1.04975V1.65123L8.63253 1.6514V1.04975C8.63253 0.903986 8.51441 0.78586 8.36864 0.78586C8.22288 0.78586 8.10475 0.903986 8.10475 1.04975V1.65123L5.85017 1.65139V1.04975C5.85231 0.978344 5.82549 0.909082 5.7758 0.85775C5.72612 0.806417 5.65768 0.777466 5.58611 0.777466C5.51471 0.777466 5.44627 0.806421 5.39658 0.85775C5.34674 0.909082 5.31992 0.978344 5.32206 1.04975V1.65122H3.06781V1.04975C3.07011 0.978344 3.04313 0.909082 2.99345 0.85775C2.94376 0.806417 2.87532 0.777466 2.80376 0.777466C2.73235 0.777466 2.66391 0.806421 2.61423 0.85775C2.56438 0.909082 2.53756 0.978344 2.5397 1.04975V1.65122H1.28342L1.28359 1.65139C0.943197 1.65172 0.616956 1.78712 0.376424 2.02765C0.135732 2.26834 0.000328515 2.59459 0 2.93481V17.3469C0.000493573 17.7263 0.151525 18.0899 0.419859 18.3581C0.688193 18.6263 1.05196 18.7771 1.43135 18.7775H15.3065C15.6859 18.7771 16.0495 18.6263 16.3178 18.3581C16.586 18.0899 16.737 17.7262 16.7375 17.3469V2.93481C16.7372 2.59459 16.6018 2.26835 16.3611 2.02765C16.1206 1.78712 15.7943 1.65172 15.4539 1.65139L15.4537 1.6514ZM16.2092 13.1242L13.8041 13.124C13.6583 13.124 13.54 13.2421 13.5399 13.3879V15.8146H1.28372C1.08333 15.8144 0.891333 15.7348 0.749667 15.5931C0.608014 15.4515 0.528387 15.2593 0.528223 15.0591V4.76517H16.2094L16.2092 13.1242ZM15.9516 13.6521L14.0679 15.4587V13.6521H15.9516ZM2.53971 2.17934V2.58456C2.53757 2.65596 2.56438 2.72522 2.61423 2.77655C2.66392 2.82789 2.73236 2.85684 2.80376 2.85684C2.87533 2.85684 2.94377 2.82788 2.99345 2.77655C3.04314 2.72522 3.07012 2.65596 3.06781 2.58456V2.17934H5.32206V2.58456C5.31992 2.65596 5.34674 2.72522 5.39659 2.77655C5.44627 2.82789 5.51472 2.85684 5.58612 2.85684C5.65768 2.85684 5.72612 2.82788 5.77581 2.77655C5.82549 2.72522 5.85231 2.65596 5.85017 2.58456V2.17934H8.10475V2.58456C8.10475 2.73032 8.22288 2.84845 8.36865 2.84845C8.51441 2.84845 8.63254 2.73032 8.63254 2.58456V2.17934H10.8871V2.58456C10.885 2.65596 10.9118 2.72522 10.9615 2.77655C11.0112 2.82789 11.0796 2.85684 11.1512 2.85684C11.2226 2.85684 11.291 2.82788 11.3407 2.77655C11.3906 2.72522 11.4174 2.65596 11.4152 2.58456V2.17934H13.6695V2.58456C13.6672 2.65596 13.6942 2.72522 13.7438 2.77655C13.7935 2.82789 13.862 2.85684 13.9335 2.85684C14.0049 2.85684 14.0734 2.82788 14.1231 2.77655C14.1729 2.72522 14.1997 2.65596 14.1976 2.58456V2.17934H15.3063C15.5457 2.17967 15.7752 2.27493 15.9444 2.44439C16.1137 2.61368 16.209 2.84319 16.2092 3.08255V4.23698H0.528029V3.08255C0.528194 2.84317 0.62345 2.61349 0.792745 2.44422C0.9622 2.27493 1.19171 2.17967 1.43124 2.17934L2.53971 2.17934ZM16.2093 17.3471C16.209 17.5864 16.1137 17.8158 15.9444 17.9849C15.7753 18.1542 15.5458 18.2493 15.3064 18.2495H1.4313C1.19192 18.2493 0.962238 18.1542 0.792968 17.9851C0.623678 17.816 0.52842 17.5865 0.528088 17.3471V16.0912C0.746407 16.2535 1.0113 16.3417 1.28359 16.3424H13.9099L16.2091 14.1365L16.2093 17.3471ZM2.17371 8.32005H3.66327C3.95743 8.31989 4.19584 8.08149 4.19631 7.78735V6.29762C4.19581 6.00345 3.95742 5.76521 3.66327 5.76492H2.17371C1.87938 5.76525 1.64084 6.00364 1.64067 6.29796V7.78752C1.64116 8.08168 1.87955 8.31988 2.17371 8.32005ZM2.16877 6.29791H2.16861C2.16926 6.29544 2.17124 6.29363 2.17371 6.29314L3.66773 6.29791L3.6628 7.79194L2.16877 7.78717V6.29791ZM5.8075 8.32005H7.29706H7.2969C7.59106 8.31972 7.8293 8.08133 7.82977 7.78735V6.29762C7.82927 6.00362 7.59105 5.76538 7.2969 5.76492H5.80733C5.51333 5.76541 5.27493 6.00364 5.27463 6.29762V7.78735C5.27496 8.08135 5.51335 8.31976 5.80733 8.32005H5.8075ZM5.80273 6.29791H5.80256C5.80289 6.29544 5.80487 6.29347 5.80733 6.29314L7.30119 6.29791L7.29642 7.79194L5.80256 7.78717L5.80273 6.29791ZM9.44112 8.32005H10.9307C11.2247 8.31972 11.4631 8.08133 11.4634 7.78735V6.29762C11.4631 6.00362 11.2247 5.76538 10.9307 5.76492H9.44112C9.14695 5.76541 8.90871 6.00364 8.90825 6.29762V7.78735C8.90874 8.08135 9.14697 8.31976 9.44112 8.32005ZM9.43635 6.29791C9.43668 6.29544 9.43865 6.29347 9.44112 6.29314L10.935 6.29791L10.9302 7.79194L9.43635 7.78733V6.29791ZM13.0747 8.32005H14.5643C14.8583 8.31956 15.0965 8.08133 15.0969 7.78735V6.29762C15.0965 6.00345 14.858 5.76521 14.5638 5.76492H13.0743C12.7803 5.76541 12.542 6.00364 12.5417 6.29762V7.78735C12.542 8.08151 12.7806 8.31992 13.0747 8.32005ZM13.0703 6.29791C13.0705 6.29544 13.0723 6.29347 13.0747 6.29314L14.5688 6.29791L14.5638 7.79194L13.0703 7.78717L13.0703 6.29791ZM2.1737 11.443H3.66326C3.95742 11.4428 4.19596 11.2044 4.1963 10.9103V9.42053C4.1958 9.12637 3.95708 8.88796 3.66276 8.88796H2.17319C1.87919 8.88862 1.64095 9.12685 1.64062 9.42083V10.9104C1.64095 11.2046 1.8795 11.4428 2.17365 11.443H2.1737ZM2.16876 9.42083H2.1686C2.16925 9.41836 2.17123 9.41655 2.1737 9.41606L3.66772 9.42083L3.66279 10.9149L2.16876 10.9101L2.16876 9.42083ZM5.80749 11.443H7.29705H7.29689C7.59105 11.4426 7.82946 11.2042 7.82976 10.9103V9.42053C7.82926 9.12637 7.59054 8.88813 7.29638 8.88796H5.80682C5.51282 8.88845 5.27441 9.12668 5.27412 9.42083V10.9104C5.27445 11.2047 5.51317 11.443 5.80732 11.443H5.80749ZM5.80272 9.42083H5.80255C5.80321 9.41853 5.80502 9.41655 5.80732 9.41606L7.30118 9.42083L7.29641 10.9149L5.80255 10.9101L5.80272 9.42083ZM9.44111 11.443H10.9307C11.2248 11.4426 11.4632 11.2042 11.4634 10.9103V9.42053C11.4629 9.12637 11.2243 8.88813 10.9302 8.88796H9.4406C9.14644 8.88845 8.9082 9.12668 8.90773 9.42083V10.9104C8.90823 11.2047 9.14678 11.443 9.44111 11.443ZM9.43634 9.42083C9.43683 9.41853 9.43864 9.41655 9.44111 9.41606L10.935 9.42083L10.9302 10.9149L9.43634 10.9103V9.42083ZM13.0747 11.443H14.5643C14.8585 11.4426 15.0967 11.2042 15.0969 10.9103V9.42053C15.0964 9.12653 14.858 8.8883 14.5638 8.88796H13.0743C12.7803 8.88845 12.542 9.12685 12.5417 9.42083V10.9104C12.542 11.2046 12.7806 11.443 13.0747 11.443ZM13.0703 9.42083C13.0708 9.41853 13.0724 9.41672 13.0747 9.41606L14.5688 9.42083L14.5638 10.9149L13.0703 10.9101L13.0703 9.42083ZM2.17369 14.5663H3.66325C3.95758 14.566 4.19612 14.3274 4.19629 14.0331V12.5434C4.19596 12.2492 3.9574 12.0108 3.66325 12.0107H2.17369C1.87919 12.0108 1.64065 12.2496 1.64065 12.5439V14.0336C1.64098 14.3278 1.87953 14.566 2.17369 14.5663ZM2.16875 12.5438H2.16859C2.16941 12.5415 2.17122 12.5396 2.17369 12.5389L3.66772 12.5438L3.66278 14.0382L2.16875 14.0329V12.5438ZM5.80748 14.5663H7.29704H7.29688C7.59121 14.5658 7.82958 14.3273 7.82975 14.0331V12.5434C7.82942 12.2492 7.59103 12.0108 7.29688 12.0107H5.80732C5.51315 12.0108 5.27474 12.2492 5.27461 12.5434V14.0331C5.27478 14.3273 5.51301 14.5658 5.80732 14.5663H5.80748ZM5.80271 12.5438H5.80254C5.80304 12.5414 5.80485 12.5394 5.80732 12.5389L7.30118 12.5438L7.2964 14.0382L5.80254 14.0329L5.80271 12.5438ZM9.4411 14.5663H10.9307C11.225 14.5658 11.4634 14.3273 11.4634 14.0331V12.5434C11.4632 12.2492 11.2248 12.0108 10.9307 12.0107H9.4411C9.14694 12.0108 8.90853 12.2492 8.90823 12.5434V14.0331C8.9084 14.3273 9.14679 14.5658 9.4411 14.5663ZM9.43633 12.5438C9.43682 12.5414 9.43863 12.5394 9.4411 12.5389L10.935 12.5438L10.9302 14.0382L9.43633 14.0331V12.5438Z" fill="black"/>
<path d="M18.1825 14.3325C16.2794 14.3325 14.7375 15.8745 14.7375 17.7775C14.7375 19.6805 16.2795 21.2225 18.1825 21.2225C20.0855 21.2225 21.6275 19.6805 21.6275 17.7775C21.6275 15.8745 20.0855 14.3325 18.1825 14.3325ZM19.9061 18.0925H16.4589C16.2843 18.0925 16.1441 17.9515 16.1441 17.7776C16.1441 17.6038 16.2843 17.4636 16.4589 17.4636H19.9061C20.0807 17.4636 20.2209 17.6039 20.2209 17.7776C20.2209 17.9515 20.08 18.0925 19.9061 18.0925Z" fill="black"/>
</svg>
