<svg width="21" height="22" viewBox="0 0 21 22" fill="none" xmlns="http://www.w3.org/2000/svg">
<path d="M15.4537 1.15152H14.1974L14.1976 0.549876C14.1997 0.478475 14.1729 0.409212 14.1231 0.35788C14.0734 0.306547 14.0049 0.277596 13.9335 0.277596C13.862 0.277596 13.7935 0.306551 13.7438 0.35788C13.6941 0.409208 13.6672 0.478475 13.6695 0.549876V1.15135H11.4152V0.549876C11.4174 0.478475 11.3905 0.409212 11.3407 0.35788C11.291 0.306547 11.2226 0.277596 11.1512 0.277596C11.0796 0.277596 11.0112 0.306551 10.9615 0.35788C10.9118 0.409208 10.885 0.478475 10.8871 0.549876V1.15135L8.63253 1.15152V0.549872C8.63253 0.404108 8.51441 0.285982 8.36864 0.285982C8.22288 0.285982 8.10475 0.404108 8.10475 0.549872V1.15135L5.85017 1.15151V0.549868C5.85231 0.478467 5.82549 0.409204 5.7758 0.357872C5.72612 0.306539 5.65768 0.277588 5.58611 0.277588C5.51471 0.277588 5.44627 0.306543 5.39658 0.357872C5.34674 0.409204 5.31992 0.478467 5.32206 0.549868V1.15135H3.06781V0.549868C3.07011 0.478467 3.04313 0.409204 2.99345 0.357872C2.94376 0.306539 2.87532 0.277588 2.80376 0.277588C2.73235 0.277588 2.66391 0.306543 2.61423 0.357872C2.56438 0.409204 2.53756 0.478467 2.5397 0.549868V1.15135H1.28342L1.28359 1.15151C0.943197 1.15184 0.616956 1.28724 0.376424 1.52777C0.135732 1.76846 0.000328515 2.09471 0 2.43494V16.8471C0.000493573 17.2265 0.151525 17.5901 0.419859 17.8582C0.688193 18.1264 1.05196 18.2773 1.43135 18.2776H15.3065C15.6859 18.2773 16.0495 18.1264 16.3178 17.8582C16.586 17.5901 16.737 17.2263 16.7375 16.8471V2.43494C16.7372 2.09471 16.6018 1.76847 16.3611 1.52777C16.1206 1.28724 15.7943 1.15184 15.4539 1.15151L15.4537 1.15152ZM16.2092 12.6243L13.8041 12.6241C13.6583 12.6241 13.54 12.7423 13.5399 12.888V15.3147H1.28372C1.08333 15.3145 0.891333 15.2349 0.749667 15.0932C0.608014 14.9516 0.528387 14.7594 0.528223 14.5592V4.2653H16.2094L16.2092 12.6243ZM15.9516 13.1522L14.0679 14.9589V13.1522H15.9516ZM2.53971 1.67946V2.08468C2.53757 2.15608 2.56438 2.22534 2.61423 2.27667C2.66392 2.32801 2.73236 2.35696 2.80376 2.35696C2.87533 2.35696 2.94377 2.328 2.99345 2.27667C3.04314 2.22535 3.07012 2.15608 3.06781 2.08468V1.67946H5.32206V2.08468C5.31992 2.15608 5.34674 2.22534 5.39659 2.27667C5.44627 2.32801 5.51472 2.35696 5.58612 2.35696C5.65768 2.35696 5.72612 2.328 5.77581 2.27667C5.82549 2.22535 5.85231 2.15608 5.85017 2.08468V1.67946H8.10475V2.08468C8.10475 2.23044 8.22288 2.34857 8.36865 2.34857C8.51441 2.34857 8.63254 2.23044 8.63254 2.08468V1.67946H10.8871V2.08468C10.885 2.15608 10.9118 2.22534 10.9615 2.27667C11.0112 2.32801 11.0796 2.35696 11.1512 2.35696C11.2226 2.35696 11.291 2.328 11.3407 2.27667C11.3906 2.22534 11.4174 2.15608 11.4152 2.08468V1.67946H13.6695V2.08468C13.6672 2.15608 13.6942 2.22534 13.7438 2.27667C13.7935 2.32801 13.862 2.35696 13.9335 2.35696C14.0049 2.35696 14.0734 2.328 14.1231 2.27667C14.1729 2.22534 14.1997 2.15608 14.1976 2.08468V1.67946H15.3063C15.5457 1.67979 15.7752 1.77505 15.9444 1.94451C16.1137 2.1138 16.209 2.34331 16.2092 2.58267V3.73711H0.528029V2.58267C0.528194 2.34329 0.62345 2.11361 0.792745 1.94434C0.9622 1.77505 1.19171 1.67979 1.43124 1.67946L2.53971 1.67946ZM16.2093 16.8472C16.209 17.0866 16.1137 17.3159 15.9444 17.4851C15.7753 17.6543 15.5458 17.7494 15.3064 17.7496H1.4313C1.19192 17.7494 0.962238 17.6543 0.792968 17.4852C0.623678 17.3161 0.52842 17.0866 0.528088 16.8472V15.5913C0.746407 15.7537 1.0113 15.8418 1.28359 15.8425H13.9099L16.2091 13.6366L16.2093 16.8472ZM2.17371 7.82017H3.66327C3.95743 7.82001 4.19584 7.58162 4.19631 7.28747V5.79774C4.19581 5.50358 3.95742 5.26533 3.66327 5.26504H2.17371C1.87938 5.26537 1.64084 5.50376 1.64067 5.79808V7.28764C1.64116 7.58181 1.87955 7.82 2.17371 7.82017ZM2.16877 5.79803H2.16861C2.16926 5.79557 2.17124 5.79376 2.17371 5.79326L3.66773 5.79803L3.6628 7.29206L2.16877 7.28729V5.79803ZM5.8075 7.82017H7.29706H7.2969C7.59106 7.81984 7.8293 7.58145 7.82977 7.28747V5.79774C7.82927 5.50374 7.59105 5.2655 7.2969 5.26504H5.80733C5.51333 5.26553 5.27493 5.50376 5.27463 5.79774V7.28747C5.27496 7.58147 5.51335 7.81988 5.80733 7.82017H5.8075ZM5.80273 5.79803H5.80256C5.80289 5.79557 5.80487 5.79359 5.80733 5.79326L7.30119 5.79803L7.29642 7.29206L5.80256 7.28729L5.80273 5.79803ZM9.44112 7.82017H10.9307C11.2247 7.81984 11.4631 7.58145 11.4634 7.28747V5.79774C11.4631 5.50374 11.2247 5.2655 10.9307 5.26504H9.44112C9.14695 5.26553 8.90871 5.50376 8.90825 5.79774V7.28747C8.90874 7.58147 9.14697 7.81988 9.44112 7.82017ZM9.43635 5.79803C9.43668 5.79557 9.43865 5.79359 9.44112 5.79326L10.935 5.79803L10.9302 7.29206L9.43635 7.28746V5.79803ZM13.0747 7.82017H14.5643C14.8583 7.81968 15.0965 7.58145 15.0969 7.28747V5.79774C15.0965 5.50358 14.858 5.26533 14.5638 5.26504H13.0743C12.7803 5.26553 12.542 5.50376 12.5417 5.79774V7.28747C12.542 7.58164 12.7806 7.82005 13.0747 7.82017ZM13.0703 5.79803C13.0705 5.79557 13.0723 5.79359 13.0747 5.79326L14.5688 5.79803L14.5638 7.29206L13.0703 7.28729L13.0703 5.79803ZM2.1737 10.9431H3.66326C3.95742 10.9429 4.19596 10.7045 4.1963 10.4104V8.92066C4.1958 8.62649 3.95708 8.38808 3.66276 8.38808H2.17319C1.87919 8.38874 1.64095 8.62697 1.64062 8.92095V10.4105C1.64095 10.7047 1.8795 10.9429 2.17365 10.9431H2.1737ZM2.16876 8.92095H2.1686C2.16925 8.91848 2.17123 8.91667 2.1737 8.91618L3.66772 8.92095L3.66279 10.415L2.16876 10.4102L2.16876 8.92095ZM5.80749 10.9431H7.29705H7.29689C7.59105 10.9428 7.82946 10.7044 7.82976 10.4104V8.92066C7.82926 8.62649 7.59054 8.38825 7.29638 8.38808H5.80682C5.51282 8.38858 5.27441 8.6268 5.27412 8.92095V10.4105C5.27445 10.7048 5.51317 10.9431 5.80732 10.9431H5.80749ZM5.80272 8.92095H5.80255C5.80321 8.91865 5.80502 8.91667 5.80732 8.91618L7.30118 8.92095L7.29641 10.415L5.80255 10.4102L5.80272 8.92095ZM9.44111 10.9431H10.9307C11.2248 10.9428 11.4632 10.7044 11.4634 10.4104V8.92066C11.4629 8.62649 11.2243 8.38825 10.9302 8.38808H9.4406C9.14644 8.38858 8.9082 8.6268 8.90773 8.92095V10.4105C8.90823 10.7048 9.14678 10.9431 9.44111 10.9431ZM9.43634 8.92095C9.43683 8.91865 9.43864 8.91667 9.44111 8.91618L10.935 8.92095L10.9302 10.415L9.43634 10.4104V8.92095ZM13.0747 10.9431H14.5643C14.8585 10.9428 15.0967 10.7044 15.0969 10.4104V8.92066C15.0964 8.62666 14.858 8.38842 14.5638 8.38808H13.0743C12.7803 8.38858 12.542 8.62697 12.5417 8.92095V10.4105C12.542 10.7047 12.7806 10.9431 13.0747 10.9431ZM13.0703 8.92095C13.0708 8.91865 13.0724 8.91684 13.0747 8.91618L14.5688 8.92095L14.5638 10.415L13.0703 10.4102L13.0703 8.92095ZM2.17369 14.0664H3.66325C3.95758 14.0661 4.19612 13.8275 4.19629 13.5332V12.0435C4.19596 11.7493 3.9574 11.5109 3.66325 11.5108H2.17369C1.87919 11.511 1.64065 11.7497 1.64065 12.044V13.5337C1.64098 13.8279 1.87953 14.0661 2.17369 14.0664ZM2.16875 12.044H2.16859C2.16941 12.0416 2.17122 12.0397 2.17369 12.039L3.66772 12.044L3.66278 13.5383L2.16875 13.533V12.044ZM5.80748 14.0664H7.29704H7.29688C7.59121 14.0659 7.82958 13.8274 7.82975 13.5332V12.0435C7.82942 11.7493 7.59103 11.5109 7.29688 11.5108H5.80732C5.51315 11.511 5.27474 11.7493 5.27461 12.0435V13.5332C5.27478 13.8274 5.51301 14.0659 5.80732 14.0664H5.80748ZM5.80271 12.044H5.80254C5.80304 12.0415 5.80485 12.0395 5.80732 12.039L7.30118 12.044L7.2964 13.5383L5.80254 13.533L5.80271 12.044ZM9.4411 14.0664H10.9307C11.225 14.0659 11.4634 13.8274 11.4634 13.5332V12.0435C11.4632 11.7493 11.2248 11.5109 10.9307 11.5108H9.4411C9.14694 11.511 8.90853 11.7493 8.90823 12.0435V13.5332C8.9084 13.8274 9.14679 14.0659 9.4411 14.0664ZM9.43633 12.044C9.43682 12.0415 9.43863 12.0395 9.4411 12.039L10.935 12.044L10.9302 13.5383L9.43633 13.5332V12.044Z" fill="black"/>
<path d="M19.6185 15.8416C18.2731 14.4962 16.0918 14.4962 14.7465 15.8416C13.4011 17.1869 13.4011 19.3682 14.7465 20.7135C16.0919 22.0589 18.2731 22.0589 19.6185 20.7135C20.9638 19.3681 20.9638 17.1869 19.6185 15.8416ZM18.4743 18.7251H17.6131V19.5863C17.6131 19.8242 17.4203 20.017 17.1825 20.017C16.9446 20.017 16.7519 19.8242 16.7519 19.5863V18.7251H15.8906C15.6528 18.7251 15.46 18.5323 15.46 18.2945C15.46 18.0566 15.6528 17.8638 15.8906 17.8638H16.7519V17.0026C16.7519 16.7648 16.9446 16.572 17.1825 16.572C17.4203 16.572 17.6131 16.7648 17.6131 17.0026V17.8638H18.4743C18.7122 17.8638 18.905 18.0566 18.905 18.2945C18.905 18.5323 18.7122 18.7251 18.4743 18.7251Z" fill="black"/>
</svg>
