<svg width="20" height="20" viewBox="0 0 20 20" fill="none" xmlns="http://www.w3.org/2000/svg">
<path d="M4.49099 13.0597L0.651449 7.62861C-0.422756 5.85804 -0.14424 3.59012 1.30795 2.13786C3.05866 0.387152 5.90347 0.387152 7.65414 2.13786C9.12633 3.61005 9.38488 5.85804 8.31064 7.62861L8.2908 7.64845L4.49099 13.0597ZM1.32788 7.19094L4.49099 11.6671L7.65411 7.19094C8.52948 5.73871 8.31061 3.8885 7.09707 2.675C5.6647 1.24263 3.31721 1.24263 1.86495 2.675C0.671379 3.88853 0.452545 5.73875 1.32792 7.19094H1.32788Z" fill="black"/>
<path d="M4.41141 7.25059C3.39685 7.25059 2.58116 6.4349 2.58116 5.42034C2.58116 4.40578 3.39685 3.59009 4.41141 3.59009C5.42597 3.59009 6.24166 4.40578 6.24166 5.42034C6.24166 6.41504 5.42597 7.25059 4.41141 7.25059ZM4.41141 4.36599C3.83456 4.36599 3.37689 4.82352 3.37689 5.40051C3.37689 5.97737 3.83441 6.43504 4.41141 6.43504C4.98827 6.43504 5.44593 5.97751 5.44593 5.40051C5.4458 4.84334 4.98827 4.36599 4.41141 4.36599Z" fill="black"/>
<path d="M13.6423 13.0597L9.8226 7.64851L10.4791 7.19099L13.6622 11.687L16.8253 7.21088C17.7007 5.75865 17.4818 3.90844 16.2683 2.69494C14.8359 1.26257 12.4884 1.26257 11.0362 2.69494L10.4592 2.11808C12.2099 0.367377 15.0547 0.367377 16.8054 2.11808C18.2776 3.59028 18.5361 5.83827 17.4619 7.60883L17.442 7.62867L13.6423 13.0597Z" fill="black"/>
<path d="M13.5627 7.25059C12.5481 7.25059 11.7324 6.4349 11.7324 5.42034C11.7324 4.40578 12.5481 3.59009 13.5627 3.59009C14.5772 3.59009 15.3929 4.40578 15.3929 5.42034C15.3929 6.41504 14.5774 7.25059 13.5627 7.25059ZM13.5627 4.36599C12.9858 4.36599 12.5281 4.82352 12.5281 5.40051C12.5281 5.97737 12.9857 6.43504 13.5627 6.43504C14.1395 6.43504 14.5972 5.97751 14.5972 5.40051C14.5972 4.84334 14.1397 4.36599 13.5627 4.36599Z" fill="black"/>
<path d="M4.29205 15.805C3.95387 15.805 3.69519 15.5464 3.69519 15.2082C3.69519 14.87 3.95386 14.6113 4.29205 14.6113C4.63023 14.6113 4.8889 14.87 4.8889 15.2082C4.88876 15.5464 4.63024 15.805 4.29205 15.805ZM4.29205 15.0092C4.1727 15.0092 4.09305 15.0887 4.09305 15.2082C4.09305 15.3275 4.17257 15.4072 4.29205 15.4072C4.41139 15.4072 4.49104 15.3277 4.49104 15.2082C4.4909 15.0889 4.41139 15.0092 4.29205 15.0092Z" fill="black"/>
<path d="M6.67934 15.805C6.34116 15.805 6.08249 15.5464 6.08249 15.2082C6.08249 14.87 6.34115 14.6113 6.67934 14.6113C7.01754 14.6113 7.2762 14.87 7.2762 15.2082C7.2762 15.5464 7.01754 15.805 6.67934 15.805ZM6.67934 15.0092C6.56 15.0092 6.48035 15.0887 6.48035 15.2082C6.48035 15.3275 6.55986 15.4072 6.67934 15.4072C6.79869 15.4072 6.87834 15.3277 6.87834 15.2082C6.8782 15.0889 6.79869 15.0092 6.67934 15.0092Z" fill="black"/>
<path d="M9.06661 15.805C8.72843 15.805 8.46976 15.5464 8.46976 15.2082C8.46976 14.87 8.72842 14.6113 9.06661 14.6113C9.4048 14.6113 9.66347 14.87 9.66347 15.2082C9.66347 15.5464 9.4048 15.805 9.06661 15.805ZM9.06661 15.0092C8.94727 15.0092 8.86762 15.0887 8.86762 15.2082C8.86762 15.3275 8.94713 15.4072 9.06661 15.4072C9.18596 15.4072 9.26561 15.3277 9.26561 15.2082C9.26561 15.0889 9.18596 15.0092 9.06661 15.0092Z" fill="black"/>
<path d="M11.4539 15.805C11.1157 15.805 10.857 15.5464 10.857 15.2082C10.857 14.87 11.1157 14.6113 11.4539 14.6113C11.7921 14.6113 12.0507 14.87 12.0507 15.2082C12.0507 15.5464 11.7921 15.805 11.4539 15.805ZM11.4539 15.0092C11.3345 15.0092 11.2549 15.0887 11.2549 15.2082C11.2549 15.3275 11.3344 15.4072 11.4539 15.4072C11.5732 15.4072 11.6529 15.3277 11.6529 15.2082C11.6529 15.0889 11.5732 15.0092 11.4539 15.0092Z" fill="black"/>
<path d="M13.8412 15.805C13.503 15.805 13.2443 15.5464 13.2443 15.2082C13.2443 14.87 13.503 14.6113 13.8412 14.6113C14.1794 14.6113 14.438 14.87 14.438 15.2082C14.438 15.5464 14.1795 15.805 13.8412 15.805ZM13.8412 15.0092C13.7218 15.0092 13.6422 15.0887 13.6422 15.2082C13.6422 15.3275 13.7217 15.4072 13.8412 15.4072C13.9605 15.4072 14.0402 15.3277 14.0402 15.2082C14.0402 15.0889 13.9607 15.0092 13.8412 15.0092Z" fill="black"/>
<path d="M16.445 12.3051C14.5419 12.3051 13 13.8471 13 15.7501C13 17.653 14.542 19.1951 16.445 19.1951C18.348 19.1951 19.89 17.653 19.89 15.7501C19.89 13.8471 18.348 12.3051 16.445 12.3051ZM18.1686 16.065H14.7214C14.5468 16.065 14.4066 15.9241 14.4066 15.7502C14.4066 15.5763 14.5468 15.4361 14.7214 15.4361H18.1686C18.3432 15.4361 18.4834 15.5764 18.4834 15.7502C18.4834 15.9241 18.3425 16.065 18.1686 16.065Z" fill="black"/>
</svg>
