<svg width="20" height="20" viewBox="0 0 20 20" fill="none" xmlns="http://www.w3.org/2000/svg">
<path d="M4.49099 13.0322L0.651449 7.60114C-0.422756 5.83057 -0.14424 3.56266 1.30795 2.11039C3.05866 0.359686 5.90347 0.359686 7.65414 2.11039C9.12633 3.58259 9.38488 5.83057 8.31064 7.60114L8.2908 7.62098L4.49099 13.0322ZM1.32788 7.16347L4.49099 11.6396L7.65411 7.16347C8.52948 5.71125 8.31061 3.86103 7.09707 2.64753C5.6647 1.21516 3.31721 1.21516 1.86495 2.64753C0.671379 3.86107 0.452545 5.71128 1.32792 7.16347H1.32788Z" fill="black"/>
<path d="M4.41141 7.22312C3.39685 7.22312 2.58116 6.40743 2.58116 5.39287C2.58116 4.37831 3.39685 3.56262 4.41141 3.56262C5.42597 3.56262 6.24166 4.37831 6.24166 5.39287C6.24166 6.38757 5.42597 7.22312 4.41141 7.22312ZM4.41141 4.33852C3.83456 4.33852 3.37689 4.79605 3.37689 5.37305C3.37689 5.9499 3.83441 6.40757 4.41141 6.40757C4.98827 6.40757 5.44593 5.95005 5.44593 5.37305C5.4458 4.81587 4.98827 4.33852 4.41141 4.33852Z" fill="black"/>
<path d="M13.6423 13.0322L9.8226 7.62105L10.4791 7.16352L13.6622 11.6596L16.8253 7.18341C17.7007 5.73119 17.4818 3.88097 16.2683 2.66747C14.8359 1.23511 12.4884 1.23511 11.0362 2.66747L10.4592 2.09062C12.2099 0.339911 15.0547 0.339911 16.8054 2.09062C18.2776 3.56281 18.5361 5.8108 17.4619 7.58137L17.442 7.60121L13.6423 13.0322Z" fill="black"/>
<path d="M13.5627 7.22312C12.5481 7.22312 11.7324 6.40743 11.7324 5.39287C11.7324 4.37831 12.5481 3.56262 13.5627 3.56262C14.5772 3.56262 15.3929 4.37831 15.3929 5.39287C15.3929 6.38757 14.5774 7.22312 13.5627 7.22312ZM13.5627 4.33852C12.9858 4.33852 12.5281 4.79605 12.5281 5.37305C12.5281 5.9499 12.9857 6.40757 13.5627 6.40757C14.1395 6.40757 14.5972 5.95005 14.5972 5.37305C14.5972 4.81587 14.1397 4.33852 13.5627 4.33852Z" fill="black"/>
<path d="M4.29205 15.7776C3.95387 15.7776 3.69519 15.5189 3.69519 15.1807C3.69519 14.8425 3.95386 14.5839 4.29205 14.5839C4.63023 14.5839 4.8889 14.8425 4.8889 15.1807C4.88876 15.5189 4.63024 15.7776 4.29205 15.7776ZM4.29205 14.9817C4.1727 14.9817 4.09305 15.0613 4.09305 15.1807C4.09305 15.3001 4.17257 15.3797 4.29205 15.3797C4.41139 15.3797 4.49104 15.3002 4.49104 15.1807C4.4909 15.0614 4.41139 14.9817 4.29205 14.9817Z" fill="black"/>
<path d="M6.67934 15.7776C6.34116 15.7776 6.08249 15.5189 6.08249 15.1807C6.08249 14.8425 6.34115 14.5839 6.67934 14.5839C7.01754 14.5839 7.2762 14.8425 7.2762 15.1807C7.2762 15.5189 7.01754 15.7776 6.67934 15.7776ZM6.67934 14.9817C6.56 14.9817 6.48035 15.0613 6.48035 15.1807C6.48035 15.3001 6.55986 15.3797 6.67934 15.3797C6.79869 15.3797 6.87834 15.3002 6.87834 15.1807C6.8782 15.0614 6.79869 14.9817 6.67934 14.9817Z" fill="black"/>
<path d="M9.06661 15.7776C8.72843 15.7776 8.46976 15.5189 8.46976 15.1807C8.46976 14.8425 8.72842 14.5839 9.06661 14.5839C9.4048 14.5839 9.66347 14.8425 9.66347 15.1807C9.66347 15.5189 9.4048 15.7776 9.06661 15.7776ZM9.06661 14.9817C8.94727 14.9817 8.86762 15.0613 8.86762 15.1807C8.86762 15.3001 8.94713 15.3797 9.06661 15.3797C9.18596 15.3797 9.26561 15.3002 9.26561 15.1807C9.26561 15.0614 9.18596 14.9817 9.06661 14.9817Z" fill="black"/>
<path d="M11.4539 15.7776C11.1157 15.7776 10.857 15.5189 10.857 15.1807C10.857 14.8425 11.1157 14.5839 11.4539 14.5839C11.7921 14.5839 12.0507 14.8425 12.0507 15.1807C12.0507 15.5189 11.7921 15.7776 11.4539 15.7776ZM11.4539 14.9817C11.3345 14.9817 11.2549 15.0613 11.2549 15.1807C11.2549 15.3001 11.3344 15.3797 11.4539 15.3797C11.5732 15.3797 11.6529 15.3002 11.6529 15.1807C11.6529 15.0614 11.5732 14.9817 11.4539 14.9817Z" fill="black"/>
<path d="M13.8412 15.7776C13.503 15.7776 13.2443 15.5189 13.2443 15.1807C13.2443 14.8425 13.503 14.5839 13.8412 14.5839C14.1794 14.5839 14.438 14.8425 14.438 15.1807C14.438 15.5189 14.1795 15.7776 13.8412 15.7776ZM13.8412 14.9817C13.7218 14.9817 13.6422 15.0613 13.6422 15.1807C13.6422 15.3001 13.7217 15.3797 13.8412 15.3797C13.9605 15.3797 14.0402 15.3002 14.0402 15.1807C14.0402 15.0614 13.9607 14.9817 13.8412 14.9817Z" fill="black"/>
<path d="M18.881 13.3416C17.5356 11.9962 15.3544 11.9962 14.009 13.3416C12.6637 14.6869 12.6637 16.8682 14.009 18.2135C15.3544 19.5589 17.5356 19.5589 18.881 18.2135C20.2263 16.8681 20.2263 14.6869 18.881 13.3416ZM17.7369 16.2251H16.8756V17.0863C16.8756 17.3242 16.6828 17.517 16.445 17.517C16.2071 17.517 16.0144 17.3242 16.0144 17.0863V16.2251H15.1531C14.9153 16.2251 14.7225 16.0323 14.7225 15.7945C14.7225 15.5566 14.9153 15.3638 15.1531 15.3638H16.0144V14.5026C16.0144 14.2648 16.2071 14.072 16.445 14.072C16.6828 14.072 16.8756 14.2648 16.8756 14.5026V15.3638H17.7369C17.9747 15.3638 18.1675 15.5566 18.1675 15.7945C18.1675 16.0323 17.9747 16.2251 17.7369 16.2251Z" fill="black"/>
</svg>
