<svg width="18" height="21" viewBox="0 0 18 21" fill="none" xmlns="http://www.w3.org/2000/svg">
<path d="M12.9808 2.74282C12.6638 2.34109 12.3042 2.10854 12.0082 2.00279C11.7758 1.70682 11.3741 1.30523 10.7821 0.988031C10.0845 0.586303 9.30227 0.375 8.43543 0.375C8.28737 0.375 8.13946 0.375 7.99138 0.396088C7.61091 0.417177 7.23028 0.480591 6.84981 0.607565C6.44808 0.755628 6.02529 0.945865 5.64466 1.2206C5.22187 1.49548 4.82014 1.81256 4.46077 2.19319C3.78416 2.89086 3.34027 3.69431 3.12881 4.5399C2.95966 5.17419 2.95966 5.87186 3.10772 6.69639C3.08664 6.71747 3.0654 6.73871 3.04431 6.78089C2.53687 7.45749 2.72725 8.40883 2.91748 9.08528C3.04431 9.50808 3.25578 10.2904 3.76307 10.7767C4.14355 12.1931 5.24295 13.8211 7.0188 14.4341C7.4416 14.5822 7.88565 14.6667 8.32955 14.6667C8.79466 14.6667 9.23856 14.5822 9.6615 14.4341C11.4374 13.7998 12.5368 12.1719 12.9172 10.7767C13.4247 10.3115 13.636 9.50808 13.7628 9.08528C13.9531 8.40868 14.1433 7.45734 13.636 6.78089C13.6149 6.7598 13.5937 6.73856 13.5726 6.69639C13.8476 4.94148 13.6574 3.58842 12.9808 2.7429L12.9808 2.74282ZM12.8117 8.81046C12.5157 9.84644 12.2408 10.1424 12.0506 10.1424C11.8603 11.3686 10.8878 12.9332 9.34446 13.4828C9.0274 13.5885 8.68911 13.6519 8.35081 13.6519C8.01251 13.6519 7.6742 13.5885 7.35715 13.4828C5.79275 12.9543 4.84141 11.3897 4.65103 10.1635C4.43955 10.1424 4.16481 9.86751 3.88993 8.83153C3.50946 7.49957 3.86884 7.24591 4.20699 7.24591H4.27041C4.27041 7.24591 4.56638 3.14444 7.8857 4.56089C9.61938 5.30092 10.9089 5.25856 11.7335 5.06832C12.7905 5.7871 12.4735 7.01335 12.4101 7.20359V7.22468H12.4735C12.8329 7.22482 13.171 7.47862 12.8116 8.81045L12.8117 8.81046Z" fill="black"/>
<path d="M10.761 15.005C10.5284 15.1319 10.2535 15.2587 9.97876 15.3433C9.45022 15.5336 8.87936 15.6393 8.30865 15.6393C7.73779 15.6393 7.18815 15.5548 6.65961 15.3644C5.5602 14.984 4.71458 14.3073 4.08033 13.5251C3.21349 14.0114 1.62787 14.8993 0 16.1044C1.8816 18.6837 4.90485 20.375 8.35093 20.375C9.42912 20.375 10.4862 20.2059 11.4587 19.8888C10.7611 19.1066 10.3172 18.0706 10.3172 16.9501C10.3172 16.2523 10.4863 15.5969 10.7611 15.005L10.761 15.005Z" fill="black"/>
<path d="M16.881 14.689C15.5356 13.3436 13.3544 13.3436 12.009 14.689C10.6637 16.0343 10.6637 18.2156 12.009 19.5609C13.3544 20.9063 15.5356 20.9063 16.881 19.5609C18.2263 18.2155 18.2263 16.0343 16.881 14.689ZM15.7369 17.5725H14.8756V18.4338C14.8756 18.6716 14.6828 18.8644 14.445 18.8644C14.2071 18.8644 14.0144 18.6716 14.0144 18.4338V17.5725H13.1531C12.9153 17.5725 12.7225 17.3797 12.7225 17.1419C12.7225 16.904 12.9153 16.7113 13.1531 16.7113H14.0144V15.85C14.0144 15.6122 14.2071 15.4194 14.445 15.4194C14.6828 15.4194 14.8756 15.6122 14.8756 15.85V16.7113H15.7369C15.9747 16.7113 16.1675 16.904 16.1675 17.1419C16.1675 17.3797 15.9747 17.5725 15.7369 17.5725Z" fill="black"/>
</svg>
