<svg width="18" height="21" viewBox="0 0 18 21" fill="none" xmlns="http://www.w3.org/2000/svg">
<path d="M12.9808 2.74282C12.6638 2.34109 12.3042 2.10854 12.0082 2.00279C11.7758 1.70682 11.3741 1.30523 10.7821 0.988031C10.0845 0.586303 9.30226 0.375 8.43542 0.375C8.28735 0.375 8.13944 0.375 7.99137 0.396088C7.61089 0.417177 7.23027 0.480591 6.84979 0.607565C6.44807 0.755628 6.02527 0.945865 5.64465 1.2206C5.22185 1.49548 4.82013 1.81256 4.46076 2.19319C3.78415 2.89086 3.34025 3.69431 3.1288 4.5399C2.95964 5.17419 2.95965 5.87186 3.10771 6.69639C3.08662 6.71747 3.06538 6.73871 3.0443 6.78089C2.53686 7.45749 2.72723 8.40883 2.91747 9.08528C3.04429 9.50808 3.25577 10.2904 3.76306 10.7767C4.14353 12.1931 5.24293 13.8211 7.01879 14.4341C7.44158 14.5822 7.88563 14.6667 8.32953 14.6667C8.79465 14.6667 9.23854 14.5822 9.66149 14.4341C11.4373 13.7998 12.5367 12.1719 12.9172 10.7767C13.4247 10.3115 13.636 9.50808 13.7628 9.08528C13.953 8.40868 14.1433 7.45734 13.636 6.78089C13.6149 6.7598 13.5937 6.73856 13.5726 6.69639C13.8476 4.94148 13.6574 3.58842 12.9808 2.7429L12.9808 2.74282ZM12.8117 8.81046C12.5157 9.84644 12.2408 10.1424 12.0506 10.1424C11.8603 11.3686 10.8877 12.9332 9.34445 13.4828C9.02738 13.5885 8.6891 13.6519 8.35079 13.6519C8.01249 13.6519 7.67419 13.5885 7.35714 13.4828C5.79273 12.9543 4.8414 11.3897 4.65101 10.1635C4.43953 10.1424 4.16479 9.86751 3.88991 8.83153C3.50944 7.49957 3.86882 7.24591 4.20698 7.24591H4.27039C4.27039 7.24591 4.56637 3.14444 7.88568 4.56089C9.61937 5.30092 10.9089 5.25856 11.7335 5.06832C12.7905 5.7871 12.4735 7.01335 12.4101 7.20359V7.22468H12.4735C12.8329 7.22482 13.171 7.47862 12.8116 8.81045L12.8117 8.81046Z" fill="black"/>
<path d="M14.445 13.625C12.5419 13.625 11 15.167 11 17.07C11 18.973 12.542 20.515 14.445 20.515C16.348 20.515 17.89 18.973 17.89 17.07C17.89 15.167 16.348 13.625 14.445 13.625ZM16.1686 17.385H12.7214C12.5468 17.385 12.4066 17.244 12.4066 17.0701C12.4066 16.8963 12.5468 16.7561 12.7214 16.7561H16.1686C16.3432 16.7561 16.4834 16.8963 16.4834 17.0701C16.4834 17.244 16.3425 17.385 16.1686 17.385Z" fill="black"/>
<path d="M10.761 15.005C10.5284 15.1319 10.2535 15.2587 9.97876 15.3433C9.45022 15.5336 8.87936 15.6393 8.30865 15.6393C7.73779 15.6393 7.18815 15.5548 6.65961 15.3644C5.5602 14.984 4.71458 14.3073 4.08033 13.5251C3.21349 14.0114 1.62787 14.8993 0 16.1044C1.8816 18.6837 4.90485 20.375 8.35093 20.375C9.42912 20.375 10.4862 20.2059 11.4587 19.8888C10.7611 19.1066 10.3172 18.0706 10.3172 16.9501C10.3172 16.2523 10.4863 15.5969 10.7611 15.005L10.761 15.005Z" fill="black"/>
</svg>
