<svg width="24" height="16" viewBox="0 0 24 16" fill="none" xmlns="http://www.w3.org/2000/svg">
<path fill-rule="evenodd" clip-rule="evenodd" d="M21.3585 6.43134V3.71933H19.4717V6.43134H16.7547V8.36849H19.4717V11.158H21.3585V8.36849H24V6.43134H21.3585ZM7.62264 6.27637V9.37581C7.62264 9.37581 10.5512 9.37178 11.7437 9.37178C11.098 11.3811 10.0939 12.4752 7.62264 12.4752C5.12173 12.4752 3.16982 10.3937 3.16982 7.82609C3.16982 5.25843 5.12173 3.17693 7.62264 3.17693C8.9449 3.17693 9.79888 3.65409 10.5822 4.31915C11.2092 3.67539 11.1568 3.58365 12.7521 2.03695C11.3979 0.771451 9.59803 0 7.62264 0C3.41275 0 0 3.50384 0 7.82609C0 12.1483 3.41275 15.6522 7.62264 15.6522C13.9152 15.6522 15.4533 10.0267 14.9434 6.27637H7.62264Z" fill="#DD4B39"/>
</svg>
