<svg width="300" height="147" viewBox="0 0 300 147" fill="none" xmlns="http://www.w3.org/2000/svg">
<path d="M87.2511 116.21C86.9315 121.507 87.5799 122.42 92.4566 122.164C101.918 121.68 111.142 120.082 119.379 114.913C124.256 111.854 124.447 107.498 119.553 104.685C117.559 103.612 115.397 102.886 113.16 102.539C101.833 100.476 90.1629 101.421 79.3151 105.278C71.6895 107.881 64.1918 110.904 56.6575 113.762C51.9178 115.589 51.7352 115.269 51.4155 110.11C51.0959 104.731 53.2968 101.096 58.0457 98.9497C69.8721 93.5981 81.4612 87.6712 94.3744 85.2967C95.1521 85.1374 95.939 85.0275 96.7306 84.968C101.16 84.7305 101.16 84.7397 102 89.7899C104.74 89.2693 107.479 88.9223 110.119 88.2008C119.553 85.6255 128.384 81.9451 135.333 74.6757C139.123 70.694 138.073 66.6483 132.676 65.3607C125.89 63.7351 119.151 64.7945 112.466 66.2739C97.6347 69.5433 83.6256 75.0776 70.0457 81.799C66.7945 83.3972 63.7626 85.452 60.5662 87.178C59.0137 88.0182 57.3242 88.5935 55.0868 89.525C54.3562 83.6803 56.5936 79.4794 59.5434 75.5981C66.2466 66.7123 75.7991 61.8173 85.5616 57.5342C102.584 49.9725 120.475 45.936 139.187 46.7123C143.695 47.0612 148.13 48.0546 152.356 49.662C163.58 53.5524 163.644 64.8766 157.963 72.4931C150.502 82.5387 139.854 88.073 128.137 93.2328C129.562 94.0821 130.749 94.9223 132.055 95.5433C133.79 96.3744 135.708 96.8492 137.37 97.799C146.813 103.278 147.416 112.922 138.603 119.278C128.531 126.596 116.637 130.994 104.228 131.991C95.7717 132.703 87.1963 132.091 78.7123 132.648C75.9726 132.822 73.1416 134.475 70.8858 136.119C64.5896 141.034 57.2667 144.468 49.4612 146.164C48.4825 146.473 47.4396 146.517 46.4384 146.292C45.5982 145.963 44.347 144.703 44.484 144.192C46.0365 138.63 47.6256 133.059 49.6712 127.671C50.21 126.228 52.1552 124.84 53.7352 124.347C63.032 121.498 72.4018 118.868 81.7991 116.31C83.4612 115.826 85.3425 116.21 87.2511 116.21Z" fill="black"/>
<path d="M0 26.8584C0.600892 25.8267 1.31455 24.865 2.12785 23.9909C10.347 16.8219 24.6575 15.4247 34.0913 20.9498C35.8174 21.9543 37.169 23.5982 38.7215 24.9041C39.9417 26.0866 41.2789 27.1423 42.7123 28.0548C45.79 29.726 48.7854 27.863 48.8128 24.4018C48.8128 19.7169 46.0731 16.3014 43.1324 13.1415C40.5804 10.2953 37.4477 8.02936 33.9456 6.49652C30.4435 4.96367 26.6535 4.19956 22.8311 4.2557C20.6906 4.33773 18.5476 4.19078 16.4384 3.81735C18.3562 0.666661 21.5616 0.465748 24.5297 0.155245C40.6027 -1.49772 54.1187 10.0183 57.3333 21.9817C57.8721 23.9543 59.9452 26.5479 61.7717 26.9772C71.9817 29.4703 74.9772 42.7032 72.7306 50.8676C71.7323 54.5618 69.9816 58.0099 67.5882 60.9958C65.1948 63.9816 62.2103 66.4408 58.8219 68.2192C53.3142 71.1437 47.5174 73.4881 41.5251 75.2146C34.7854 77.2237 32.0365 75.2146 31.6347 68.3379C31.2099 62.1246 31.2465 55.8883 31.7443 49.6804C32.0274 46.5479 33.8356 43.4977 35.2603 40.5479C36.8584 37.2511 36.4292 34.5753 34.0274 31.8173C30.2831 27.5251 26.1644 23.7443 20.3836 22.831C17.2876 22.5019 14.1572 22.7653 11.1598 23.6073C7.50685 24.5205 4.10046 26.0913 0.584475 27.379L0 26.8584ZM67.1781 45.863C67.1781 41.8265 65.2603 39.3516 61.9635 38.5571C56.484 37.2329 52.0365 40.9863 50.9406 47.6347C50.4292 50.7215 49.6986 54.6119 52.6119 55.8539C54.8128 56.8128 58.4658 55.4429 61.0776 54.2466C62.7719 53.5523 64.2397 52.4006 65.317 50.9201C66.3944 49.4396 67.0387 47.6887 67.1781 45.863Z" fill="black"/>
<path d="M271.425 115.982C274.42 115.781 277.452 115.781 280.402 115.297C281.526 115.183 282.595 114.751 283.481 114.05C284.368 113.35 285.036 112.41 285.406 111.342C287.114 106.886 291.744 105.096 295.452 107.059C299.16 109.023 299.954 113.224 297.58 117.416C294.941 122.073 287.534 125.05 281.571 124.557C273.215 123.863 264.813 123.726 256.438 123.26C255.279 123.196 253.26 122.758 253.151 122.192C252.667 119.808 249.79 117.626 252.612 114.822C259.543 107.936 266.311 100.858 273.151 93.9087C275.443 91.5799 277.872 89.3425 280.32 87.0228C275.68 84.2009 270.721 85.516 268.594 89.9087C267.352 92.4384 266.027 94.6301 263.041 95.4429C259.47 96.4201 256.292 94.4658 255.863 90.8037C255.142 84.7032 258.511 79.6438 265.406 78.4384C270.804 77.5251 276.466 77.8356 281.991 77.9543C286.397 78.1158 290.79 78.5244 295.151 79.1781C296.466 79.3516 298.292 80.0913 298.804 81.0046C299.717 82.968 301.142 85.0868 298.712 87.4612C290.073 95.8539 281.635 104.466 273.142 113.032C272.511 113.662 271.79 114.201 271.105 114.785L271.425 115.982Z" fill="black"/>
<path d="M194.877 107.872L200.119 113.443C197.991 115.105 196.082 116.785 193.982 118.192C188.219 122.064 181.881 124.858 174.886 124.53C155.543 123.616 149.315 107.525 157.443 93.3607C163.936 81.9817 174.502 77.1141 187.461 77.6164C190.524 77.6766 193.544 78.344 196.347 79.5799C203.059 82.7488 204.201 90.7032 199.151 96.1552C194.758 100.895 188.831 102.155 182.904 103.233C179.644 103.692 176.36 103.954 173.068 104.018C169.982 104.201 169.142 105.215 169.717 108.283C170.776 113.973 175.653 116.804 181.881 115.059C184.258 114.324 186.541 113.316 188.685 112.055C190.74 110.913 192.612 109.425 194.877 107.872ZM171.534 96.9132C176.224 97.5144 180.976 96.4476 184.959 93.8995C187.744 92.073 189.078 89.1872 187.991 87.0776C186.904 84.968 183.169 84.3379 180.356 85.6803C175.735 87.9087 173.352 91.8813 171.534 96.895V96.9132Z" fill="black"/>
<path d="M219.662 103.918C217.708 112.521 223.772 117.361 231.689 114.877C235.407 113.56 238.891 111.658 242.009 109.242C244.831 107.169 245.753 109.16 247.215 110.648C248.676 112.137 249.47 113.552 247.215 115.352C238.813 122.137 229.607 126.018 218.575 123.817C206.703 121.452 200.384 109.114 205.205 96.9406C209.708 85.5708 218.749 79.589 230.612 77.8447C233.791 77.4908 236.999 77.4693 240.183 77.7808C245.662 78.1278 250.164 81.6529 251.388 86.2557C252.612 90.8584 250.548 95.5068 245.662 98.6301C240.055 102.21 233.689 103.406 227.178 103.89C224.712 104.11 222.219 103.918 219.662 103.918ZM221.342 96.8219C227.799 97.5068 233.872 95.5616 236.521 91.6895C237.297 90.5571 237.89 88.4657 237.352 87.4612C236.891 86.8145 236.297 86.2739 235.611 85.8754C234.924 85.4769 234.16 85.2298 233.37 85.1507C228.374 84.758 222.877 90.1826 221.342 96.8036V96.8219Z" fill="black"/>
</svg>
