<svg width="178" height="161" viewBox="0 0 178 161" fill="none" xmlns="http://www.w3.org/2000/svg">
<path d="M95.54 127.254C95.19 133.054 95.9 134.054 101.24 133.774C111.6 133.244 121.7 131.494 130.72 125.834C136.06 122.484 136.27 117.714 130.91 114.634C128.727 113.459 126.36 112.664 123.91 112.284C111.507 110.026 98.7284 111.06 86.85 115.284C78.5 118.134 70.29 121.444 62.04 124.574C56.85 126.574 56.65 126.224 56.3 120.574C55.95 114.684 58.36 110.704 63.56 108.354C76.51 102.494 89.2 96.004 103.34 93.404C104.192 93.2295 105.053 93.1092 105.92 93.044C110.77 92.784 110.77 92.794 111.69 98.324C114.69 97.754 117.69 97.374 120.58 96.584C130.91 93.764 140.58 89.734 148.19 81.774C152.34 77.414 151.19 72.984 145.28 71.574C137.85 69.794 130.47 70.954 123.15 72.574C106.91 76.154 91.57 82.214 76.7 89.574C73.14 91.324 69.82 93.574 66.32 95.464C64.62 96.384 62.77 97.014 60.32 98.034C59.52 91.634 61.97 87.034 65.2 82.784C72.54 73.054 83 67.694 93.69 63.004C112.33 54.724 131.92 50.304 152.41 51.154C157.346 51.5361 162.202 52.6238 166.83 54.384C179.12 58.644 179.19 71.044 172.97 79.384C164.8 90.384 153.14 96.444 140.31 102.094C141.87 103.024 143.17 103.944 144.6 104.624C146.5 105.534 148.6 106.054 150.42 107.094C160.76 113.094 161.42 123.654 151.77 130.614C140.742 138.627 127.718 143.443 114.13 144.534C104.87 145.314 95.48 144.644 86.19 145.254C83.19 145.444 80.09 147.254 77.62 149.054C70.7256 154.436 62.707 158.196 54.16 160.054C53.0883 160.392 51.9464 160.44 50.85 160.194C49.93 159.834 48.56 158.454 48.71 157.894C50.41 151.804 52.15 145.704 54.39 139.804C54.98 138.224 57.11 136.704 58.84 136.164C69.02 133.044 79.28 130.164 89.57 127.364C91.39 126.834 93.45 127.254 95.54 127.254Z" fill="black"/>
<path d="M0 29.414C0.657976 28.2843 1.43944 27.2311 2.33 26.274C11.33 18.424 27 16.894 37.33 22.944C39.22 24.044 40.7 25.844 42.4 27.274C43.7362 28.5689 45.2004 29.7248 46.77 30.724C50.14 32.554 53.42 30.514 53.45 26.724C53.45 21.594 50.45 17.854 47.23 14.394C44.4355 11.2774 41.0052 8.79616 37.1704 7.1177C33.3357 5.43923 29.1856 4.60253 25 4.664C22.6562 4.75383 20.3096 4.59292 18 4.184C20.1 0.734004 23.61 0.514004 26.86 0.174004C44.46 -1.636 59.26 10.974 62.78 24.074C63.37 26.234 65.64 29.074 67.64 29.544C78.82 32.274 82.1 46.764 79.64 55.704C78.5469 59.7492 76.6298 63.5249 74.0091 66.7944C71.3883 70.0639 68.1203 72.7567 64.41 74.704C58.379 77.9064 52.0316 80.4735 45.47 82.364C38.09 84.564 35.08 82.364 34.64 74.834C34.1749 68.0304 34.215 61.2017 34.76 54.404C35.07 50.974 37.05 47.634 38.61 44.404C40.36 40.794 39.89 37.864 37.26 34.844C33.16 30.144 28.65 26.004 22.32 25.004C18.9299 24.6436 15.5022 24.932 12.22 25.854C8.22 26.854 4.49 28.574 0.64 29.984L0 29.414ZM73.56 50.224C73.56 45.804 71.46 43.094 67.85 42.224C61.85 40.774 56.98 44.884 55.78 52.164C55.22 55.544 54.42 59.804 57.61 61.164C60.02 62.214 64.02 60.714 66.88 59.404C68.7352 58.6438 70.3425 57.3827 71.5222 55.7615C72.7018 54.1404 73.4074 52.2231 73.56 50.224Z" fill="black"/>
</svg>
