<svg width="19" height="17" viewBox="0 0 19 17" fill="none" xmlns="http://www.w3.org/2000/svg">
<path d="M12.5311 0C11.0053 0 9.77526 1.27239 9.77526 2.84881C9.77526 3.21093 9.87575 3.67267 9.99434 3.99108L12.5376 9.35029L15.0809 3.99108C15.2003 3.67268 15.3 3.21109 15.3 2.84881C15.3 1.27239 14.0567 0 12.5308 0H12.5311ZM5.95004 0.84993L0 3.39991V17L5.95004 14.45V0.84993ZM6.375 0.84993V14.45L12.325 17V9.74839L9.60905 4.11065C9.47208 3.74882 9.35662 3.22054 9.35662 2.80904C9.35662 2.58507 9.38078 2.36924 9.42302 2.15818L6.37499 0.849892L6.375 0.84993ZM18.7001 0.84993L15.6652 2.15154C15.7087 2.3644 15.7316 2.58273 15.7316 2.80893C15.7316 3.22057 15.6169 3.74856 15.4793 4.11054L12.75 9.77484V16.9999L18.7 14.4499L18.7001 0.84993ZM12.5375 1.48747C13.2416 1.48747 13.8126 2.0583 13.8126 2.76256C13.8126 3.46681 13.2418 4.03764 12.5375 4.03764C11.8333 4.03764 11.2625 3.46681 11.2625 2.76256C11.2625 2.0583 11.8333 1.48747 12.5375 1.48747Z" fill="#D6940A"/>
</svg>
