<svg width="23" height="17" viewBox="0 0 23 17" fill="none" xmlns="http://www.w3.org/2000/svg">
<path d="M4.9374 13.5625L3.68734 14.8126V2.18744L4.9374 3.4375C5.18734 3.68744 5.62483 3.68744 5.87476 3.4375C6.12471 3.18756 6.12471 2.75006 5.87476 2.50013L3.56219 0.187552C3.4998 0.125166 3.43702 0.125167 3.31225 0.0623867C3.18708 0.0623867 3.0623 0 2.99992 0C2.93753 0 2.81236 3.77186e-07 2.74997 0.0623867C2.68759 0.124773 2.62481 0.124772 2.50004 0.187552L0.187456 2.50013C-0.0624852 2.75007 -0.0624852 3.18757 0.187456 3.4375C0.437397 3.68744 0.874891 3.68744 1.12482 3.4375L2.37488 2.18744V14.8126L1.12482 13.5625C0.874881 13.3126 0.437387 13.3126 0.187456 13.5625C-0.0624852 13.8124 -0.0624852 14.2499 0.187456 14.4999L2.50004 16.8124C2.56242 16.8748 2.6252 16.8748 2.74997 16.9376C2.87514 16.9376 2.99992 17 3.0623 17C3.12469 17 3.24986 17 3.31225 16.9376C3.37463 16.8752 3.43741 16.8752 3.56219 16.8124L5.87476 14.4999C6.12471 14.2499 6.12471 13.8124 5.87476 13.5625C5.62482 13.3126 5.25011 13.3126 4.9374 13.5625Z" fill="black"/>
<path d="M16.1251 0.749512C17.0001 0.749512 17.6876 1.43695 17.6876 2.31196C17.6876 3.18694 17.0001 3.8744 16.1251 3.8744H10.2502C9.37524 3.8744 8.68777 3.18697 8.68777 2.31196C8.68777 1.43698 9.37521 0.749512 10.2502 0.749512H16.1251Z" fill="black"/>
<path d="M18.6252 7.00037C19.5002 7.00037 20.1877 7.6878 20.1877 8.56281C20.1877 9.43779 19.5002 10.1253 18.6252 10.1253L10.2501 10.1256C9.37513 10.1256 8.68767 9.43821 8.68767 8.5632C8.68767 7.68819 9.3751 7.00076 10.2501 7.00076L18.6252 7.00037Z" fill="black"/>
<path d="M21.1253 13.1879C22.0003 13.1879 22.6878 13.8753 22.6878 14.7503C22.6878 15.6253 22.0004 16.3128 21.1253 16.3128H10.25C9.37503 16.3128 8.68756 15.6253 8.68756 14.7503C8.68756 13.8753 9.375 13.1879 10.25 13.1879H21.1253Z" fill="black"/>
</svg>
