<svg width="19" height="16" viewBox="0 0 19 16" fill="none" xmlns="http://www.w3.org/2000/svg">
<path fill-rule="evenodd" clip-rule="evenodd" d="M15.9997 1.31898C15.2887 0.524827 14.2756 0.0188459 13.1545 0.00051126C11.0018 -0.0346915 9.25632 1.75244 9.25632 3.99202C9.25632 4.30987 9.29081 4.61982 9.35731 4.91737C6.11762 4.71091 3.2453 3.05351 1.32278 0.555173C0.98724 1.15383 0.79496 1.85353 0.79496 2.60306C0.79496 4.02199 1.48314 5.28128 2.52909 6.02482C1.89012 5.9971 1.28905 5.80707 0.763515 5.49531C0.763135 5.51235 0.763135 5.52939 0.763135 5.54673C0.763135 7.52827 2.10681 9.19063 3.89006 9.57787C3.56297 9.66893 3.2186 9.71659 2.86311 9.71427C2.61193 9.71263 2.36768 9.68527 2.12971 9.63613C2.6257 11.2612 4.06524 12.447 5.77106 12.4862C4.43698 13.5742 2.75623 14.2222 0.92986 14.2185C0.61522 14.2179 0.30495 14.1979 0 14.1595C1.7251 15.3224 3.77407 15.9994 5.9754 16C13.1453 16.0018 17.0663 9.87172 17.0663 4.55458C17.0663 4.38013 17.0624 4.20661 17.055 4.03393C17.8166 3.47638 18.4774 2.77734 19 1.9791C18.301 2.28868 17.5496 2.49428 16.7612 2.58052C17.566 2.09394 18.1841 1.31517 18.4751 0.381283C17.7219 0.830062 16.8877 1.1519 15.9997 1.31898Z" fill="#1DA1F2"/>
</svg>
